<?xml version="1.0" encoding="UTF-8"?>
<svg id="_레이어_2" data-name="레이어 2" xmlns="http://www.w3.org/2000/svg" viewBox="0 0 203.0547 192.8711">
  <defs>
    <style>
      .cls-1, .cls-2 {
        stroke-width: 0px;
      }

      .cls-2 {
        fill: #fff;
      }
    </style>
  </defs>
  <g id="_레이어_1-2" data-name="레이어 1">
    <g>
      <g>
        <path class="cls-1" d="m5.7998,169.584h2.001v19.4014h-2.001v-5.8008h-1.9141v-3.8564h-1.8555v9.6572H0v-19.4014h2.0303v5.7998h1.9141v3.8574h1.8555v-9.6572Z"/>
        <path class="cls-1" d="m13.6006,173.5283h-2.001v-2.001h2.001v2.001Zm0,15.457h-2.001v-13.6016h2.001v13.6016Z"/>
        <path class="cls-1" d="m17.3994,175.3838h1.9434v-3.8564h2.001v3.8564h1.9434v2.001h-1.9434v11.6006h-2.001v-11.6006h-1.9434v-2.001Z"/>
        <path class="cls-1" d="m32.9434,175.3838v2.001h-1.9434v1.9434h-1.9434v9.6572h-2.001v-13.6016h2.001v1.9434h1.8857v-1.9434h2.001Z"/>
        <path class="cls-1" d="m40.7148,175.3838v1.9434h1.9141v9.7441h-1.9141v1.9141h-4.002v-1.9141h-1.9141v-9.7441h1.9141v-1.9434h4.002Zm-3.915,11.6006h3.8281v-9.5996h-3.8281v9.5996Z"/>
        <path class="cls-1" d="m46.3984,177.3271h1.9141v-1.9434h5.916v15.5439h-1.9141v1.9434h-4.002v-2.0303h3.915v-1.8555h-3.915v-1.9141h-1.9141v-9.7441Zm5.8291,9.6572v-9.5996h-3.8281v9.5996h3.8281Z"/>
        <path class="cls-1" d="m63.915,175.3838v1.9434h1.9141v5.8574h-5.8291v3.7998h3.8281v-1.9141h2.001v2.001h-1.9141v1.9141h-4.002v-1.9141h-1.9141v-9.7441h1.9141v-1.9434h4.002Zm-3.915,5.7998h3.8281v-3.7988h-3.8281v3.7988Z"/>
        <path class="cls-1" d="m71.5996,188.9854h-2.001v-13.6016h5.916v1.9434h1.9141v11.6582h-2.001v-11.6006h-3.8281v11.6006Z"/>
        <path class="cls-1" d="m94.8281,187.0713h-1.9141v1.9141h-5.916v-19.4014h5.916v1.9434h1.9141v15.5439Zm-5.8291-15.4863v15.3994h3.8281v-15.3994h-3.8281Z"/>
        <path class="cls-1" d="m100.5986,173.5283h-2.001v-2.001h2.001v2.001Zm0,15.457h-2.001v-13.6016h2.001v13.6016Z"/>
        <path class="cls-1" d="m110.3135,175.3838v1.9434h1.9141v9.7441h-1.9141v1.9141h-4.002v-1.9141h-1.9141v-9.7441h1.9141v-1.9434h4.002Zm-3.915,11.6006h3.8281v-9.5996h-3.8281v9.5996Z"/>
        <path class="cls-1" d="m123.8281,175.3838v3.9443h-1.9141v3.7988h1.9141v5.8584h-2.001v-5.8008h-3.8281v5.8008h-2.001v-5.8584h1.9141v-3.7988h-1.9141v-3.9443h2.001v3.8574h3.8281v-3.8574h2.001Z"/>
        <path class="cls-1" d="m129.5986,173.5283h-2.001v-2.001h2.001v2.001Zm0,15.457h-2.001v-13.6016h2.001v13.6016Z"/>
        <path class="cls-1" d="m139.2266,175.3838v-5.7998h2.001v19.4014h-5.916v-1.9141h-1.9141v-9.7441h1.9141v-1.9434h3.915Zm0,2.001h-3.8281v9.5996h3.8281v-9.5996Z"/>
        <path class="cls-1" d="m150.9131,175.3838v1.9434h1.9141v5.8574h-5.8291v3.7998h3.8281v-1.9141h2.001v2.001h-1.9141v1.9141h-4.002v-1.9141h-1.9141v-9.7441h1.9141v-1.9434h4.002Zm-3.915,5.7998h3.8281v-3.7988h-3.8281v3.7988Z"/>
        <path class="cls-1" d="m162.4844,167.6699v2.001h-1.9434v1.917h-1.9434v17.3652h1.9434v1.917h1.9434v2.001h-2.001v-1.9141h-1.9727v-1.9453h-1.9141v-17.4824h1.9141v-1.9453h1.9727v-1.9141h2.001Z"/>
        <path class="cls-1" d="m170.1396,169.584h2.001v19.4014h-2.001v-5.8008h-1.9131v-3.8564h-1.8564v9.6572h-2.0303v-19.4014h2.0303v5.7998h1.9141v3.8574h1.8555v-9.6572Z"/>
        <path class="cls-1" d="m181.8555,169.584v1.9434h1.9141v15.5439h-1.9141v1.9141h-4.002v-1.9141h-1.9141v-15.5439h1.9141v-1.9434h4.002Zm-3.915,17.4004h3.8281v-15.3994h-3.8281v15.3994Z"/>
        <path class="cls-1" d="m193.4561,169.584v1.9434h1.9141v5.8574h-1.9141v3.8867h-1.9717v3.8564h-1.9434v1.8564h5.8291v2.001h-7.8301v-3.9443h1.9141v-3.8574h1.9727v-3.8564h1.9424v-5.7422h-3.8281v3.8857h-2.001v-3.9434h1.9141v-1.9434h4.002Z"/>
        <path class="cls-1" d="m197.2256,167.6699h2.001v1.9141h1.9141v1.9434h1.9141v17.458h-1.9141v1.9424h-1.9141v1.9434h-2.001v-2.0303h1.9141v-1.9141h1.9141v-17.3418h-1.9141v-1.9141h-1.9141v-2.001Z"/>
      </g>
      <g>
        <g>
          <rect class="cls-1" x="53.0985" y="18.2318" width="97.8762" height="97.8762"/>
          <rect class="cls-1" x="67.492" y="8.6361" width="68.1295" height="17.2723"/>
          <rect class="cls-1" x="76.1282" width="49.8977" height="17.2723"/>
          <rect class="cls-1" x="76.1282" y="114.1889" width="49.8977" height="17.2723"/>
          <rect class="cls-1" x="133.7024" y="57.5742" width="49.8977" height="17.2723" transform="translate(224.8616 -92.4409) rotate(90)"/>
          <rect class="cls-1" x="19.5135" y="57.5742" width="49.8977" height="17.2723" transform="translate(110.6727 21.748) rotate(90)"/>
          <rect class="cls-1" x="67.492" y="107.4719" width="68.1295" height="17.2723"/>
          <rect class="cls-1" x="17.1146" y="59.0136" width="68.1295" height="17.2723" transform="translate(118.829 16.4704) rotate(90)"/>
          <rect class="cls-1" x="118.829" y="59.0136" width="68.1295" height="17.2723" transform="translate(220.5435 -85.2441) rotate(90)"/>
        </g>
        <g>
          <rect class="cls-2" x="79.0069" y="46.957" width="22.0701" height="32.7492"/>
          <rect class="cls-2" x="82.8452" y="41.2615" width="14.3936" height="9.9671"/>
          <rect class="cls-2" x="82.8452" y="75.4346" width="14.3936" height="9.9671"/>
          <rect class="cls-2" x="90.8777" y="59.9731" width="21.3582" height="6.717" transform="translate(164.8884 -38.2251) rotate(90)"/>
          <rect class="cls-2" x="67.848" y="59.9731" width="21.3582" height="6.717" transform="translate(141.8587 -15.1954) rotate(90)"/>
        </g>
        <g>
          <rect class="cls-2" x="116.4301" y="44.1402" width="22.0701" height="22.0701"/>
          <rect class="cls-2" x="120.2684" y="40.302" width="14.3936" height="6.717"/>
          <rect class="cls-2" x="120.2684" y="63.3316" width="14.3936" height="6.717"/>
          <rect class="cls-2" x="131.7832" y="51.8168" width="14.3936" height="6.717" transform="translate(194.1553 -83.8047) rotate(90)"/>
          <rect class="cls-2" x="108.7535" y="51.8168" width="14.3936" height="6.717" transform="translate(171.1256 -60.775) rotate(90)"/>
        </g>
        <g>
          <rect class="cls-1" x="89.655" y="51.8168" width="17.0865" height="22.0701"/>
          <rect class="cls-1" x="92.6266" y="47.9785" width="11.1434" height="6.717"/>
          <rect class="cls-1" x="92.6266" y="71.0082" width="11.1434" height="6.717"/>
          <rect class="cls-1" x="99.9162" y="60.2517" width="14.3936" height="5.2003" transform="translate(169.9648 -44.2611) rotate(90)"/>
          <rect class="cls-1" x="82.0868" y="60.2517" width="14.3936" height="5.2003" transform="translate(152.1354 -26.4317) rotate(90)"/>
        </g>
        <g>
          <rect class="cls-1" x="128.9974" y="45.0998" width="17.0865" height="22.0701"/>
          <rect class="cls-1" x="131.969" y="41.2615" width="11.1434" height="6.717"/>
          <rect class="cls-1" x="131.969" y="64.2912" width="11.1434" height="6.717"/>
          <rect class="cls-1" x="139.2586" y="53.5347" width="14.3936" height="5.2003" transform="translate(202.5902 -90.3205) rotate(90)"/>
          <rect class="cls-1" x="121.4292" y="53.5347" width="14.3936" height="5.2003" transform="translate(184.7608 -72.4911) rotate(90)"/>
        </g>
      </g>
    </g>
  </g>
</svg>