<?xml version="1.0" encoding="UTF-8"?>
<svg id="_레이어_2" data-name="레이어 2" xmlns="http://www.w3.org/2000/svg" viewBox="0 0 242 296">
  <defs>
    <style>
      .cls-1, .cls-2 {
        stroke-width: 0px;
      }

      .cls-2 {
        fill: #fff;
      }
    </style>
  </defs>
  <g id="_레이어_1-2" data-name="레이어 1">
    <g>
      <rect class="cls-2" width="242" height="296"/>
      <g>
        <g>
          <path class="cls-1" d="m30.1465,206.584h2.001v19.4014h-2.001v-5.8008h-1.9141v-3.8564h-1.8555v9.6572h-2.0303v-19.4014h2.0303v5.7998h1.9141v3.8574h1.8555v-9.6572Z"/>
          <path class="cls-1" d="m37.9473,210.5283h-2.001v-2.001h2.001v2.001Zm0,15.457h-2.001v-13.6016h2.001v13.6016Z"/>
          <path class="cls-1" d="m41.7461,212.3838h1.9434v-3.8564h2.001v3.8564h1.9434v2.001h-1.9434v11.6006h-2.001v-11.6006h-1.9434v-2.001Z"/>
          <path class="cls-1" d="m57.29,212.3838v2.001h-1.9434v1.9434h-1.9434v9.6572h-2.001v-13.6016h2.001v1.9434h1.8857v-1.9434h2.001Z"/>
          <path class="cls-1" d="m65.0615,212.3838v1.9434h1.9141v9.7441h-1.9141v1.9141h-4.002v-1.9141h-1.9141v-9.7441h1.9141v-1.9434h4.002Zm-3.915,11.6006h3.8281v-9.5996h-3.8281v9.5996Z"/>
          <path class="cls-1" d="m70.7451,214.3271h1.9141v-1.9434h5.916v15.5439h-1.9141v1.9434h-4.002v-2.0303h3.915v-1.8555h-3.915v-1.9141h-1.9141v-9.7441Zm5.8291,9.6572v-9.5996h-3.8281v9.5996h3.8281Z"/>
          <path class="cls-1" d="m88.2617,212.3838v1.9434h1.9141v5.8574h-5.8291v3.7998h3.8281v-1.9141h2.001v2.001h-1.9141v1.9141h-4.002v-1.9141h-1.9141v-9.7441h1.9141v-1.9434h4.002Zm-3.915,5.7998h3.8281v-3.7988h-3.8281v3.7988Z"/>
          <path class="cls-1" d="m95.9463,225.9854h-2.001v-13.6016h5.916v1.9434h1.9141v11.6582h-2.001v-11.6006h-3.8281v11.6006Z"/>
          <path class="cls-1" d="m119.1748,224.0713h-1.9141v1.9141h-5.916v-19.4014h5.916v1.9434h1.9141v15.5439Zm-5.8291-15.4863v15.3994h3.8281v-15.3994h-3.8281Z"/>
          <path class="cls-1" d="m124.9453,210.5283h-2.001v-2.001h2.001v2.001Zm0,15.457h-2.001v-13.6016h2.001v13.6016Z"/>
          <path class="cls-1" d="m134.6602,212.3838v1.9434h1.9141v9.7441h-1.9141v1.9141h-4.002v-1.9141h-1.9141v-9.7441h1.9141v-1.9434h4.002Zm-3.915,11.6006h3.8281v-9.5996h-3.8281v9.5996Z"/>
          <path class="cls-1" d="m148.1748,212.3838v3.9443h-1.9141v3.7988h1.9141v5.8584h-2.001v-5.8008h-3.8281v5.8008h-2.001v-5.8584h1.9141v-3.7988h-1.9141v-3.9443h2.001v3.8574h3.8281v-3.8574h2.001Z"/>
          <path class="cls-1" d="m153.9453,210.5283h-2.001v-2.001h2.001v2.001Zm0,15.457h-2.001v-13.6016h2.001v13.6016Z"/>
          <path class="cls-1" d="m163.5732,212.3838v-5.7998h2.001v19.4014h-5.916v-1.9141h-1.9141v-9.7441h1.9141v-1.9434h3.915Zm0,2.001h-3.8281v9.5996h3.8281v-9.5996Z"/>
          <path class="cls-1" d="m175.2598,212.3838v1.9434h1.9141v5.8574h-5.8291v3.7998h3.8281v-1.9141h2.001v2.001h-1.9141v1.9141h-4.002v-1.9141h-1.9141v-9.7441h1.9141v-1.9434h4.002Zm-3.915,5.7998h3.8281v-3.7988h-3.8281v3.7988Z"/>
          <path class="cls-1" d="m186.8311,204.6699v2.001h-1.9434v1.917h-1.9434v17.3652h1.9434v1.917h1.9434v2.001h-2.001v-1.9141h-1.9727v-1.9453h-1.9141v-17.4824h1.9141v-1.9453h1.9727v-1.9141h2.001Z"/>
          <path class="cls-1" d="m194.4863,206.584h2.001v19.4014h-2.001v-5.8008h-1.9131v-3.8564h-1.8564v9.6572h-2.0303v-19.4014h2.0303v5.7998h1.9141v3.8574h1.8555v-9.6572Z"/>
          <path class="cls-1" d="m206.2021,206.584v1.9434h1.9141v15.5439h-1.9141v1.9141h-4.002v-1.9141h-1.9141v-15.5439h1.9141v-1.9434h4.002Zm-3.915,17.4004h3.8281v-15.3994h-3.8281v15.3994Z"/>
          <path class="cls-1" d="m217.8027,206.584v1.9434h1.9141v5.8574h-1.9141v3.8867h-1.9717v3.8564h-1.9434v1.8564h5.8291v2.001h-7.8301v-3.9443h1.9141v-3.8574h1.9727v-3.8564h1.9424v-5.7422h-3.8281v3.8857h-2.001v-3.9434h1.9141v-1.9434h4.002Z"/>
          <path class="cls-1" d="m221.5723,204.6699h2.001v1.9141h1.9141v1.9434h1.9141v17.458h-1.9141v1.9424h-1.9141v1.9434h-2.001v-2.0303h1.9141v-1.9141h1.9141v-17.3418h-1.9141v-1.9141h-1.9141v-2.001Z"/>
        </g>
        <g>
          <g>
            <rect class="cls-1" x="77.4451" y="55.2318" width="97.8762" height="97.8762"/>
            <rect class="cls-1" x="91.8386" y="45.6361" width="68.1295" height="17.2723"/>
            <rect class="cls-1" x="100.4748" y="37" width="49.8977" height="17.2723"/>
            <rect class="cls-1" x="100.4748" y="151.1889" width="49.8977" height="17.2723"/>
            <rect class="cls-1" x="158.049" y="94.5742" width="49.8977" height="17.2723" transform="translate(286.2082 -79.7875) rotate(90)"/>
            <rect class="cls-1" x="43.8601" y="94.5742" width="49.8977" height="17.2723" transform="translate(172.0193 34.4014) rotate(90)"/>
            <rect class="cls-1" x="91.8386" y="144.4719" width="68.1295" height="17.2723"/>
            <rect class="cls-1" x="41.4612" y="96.0136" width="68.1295" height="17.2723" transform="translate(180.1757 29.1238) rotate(90)"/>
            <rect class="cls-1" x="143.1757" y="96.0136" width="68.1295" height="17.2723" transform="translate(281.8901 -72.5907) rotate(90)"/>
          </g>
          <g>
            <rect class="cls-2" x="103.3535" y="83.957" width="22.0701" height="32.7492"/>
            <rect class="cls-2" x="107.1918" y="78.2615" width="14.3936" height="9.9671"/>
            <rect class="cls-2" x="107.1918" y="112.4346" width="14.3936" height="9.9671"/>
            <rect class="cls-2" x="115.2243" y="96.9731" width="21.3582" height="6.717" transform="translate(226.235 -25.5717) rotate(90)"/>
            <rect class="cls-2" x="92.1946" y="96.9731" width="21.3582" height="6.717" transform="translate(203.2053 -2.5421) rotate(90)"/>
          </g>
          <g>
            <rect class="cls-2" x="140.7767" y="81.1402" width="22.0701" height="22.0701"/>
            <rect class="cls-2" x="144.615" y="77.302" width="14.3936" height="6.717"/>
            <rect class="cls-2" x="144.615" y="100.3316" width="14.3936" height="6.717"/>
            <rect class="cls-2" x="156.1298" y="88.8168" width="14.3936" height="6.717" transform="translate(255.5019 -71.1513) rotate(90)"/>
            <rect class="cls-2" x="133.1002" y="88.8168" width="14.3936" height="6.717" transform="translate(232.4722 -48.1216) rotate(90)"/>
          </g>
          <g>
            <rect class="cls-1" x="114.0016" y="88.8168" width="17.0865" height="22.0701"/>
            <rect class="cls-1" x="116.9732" y="84.9785" width="11.1434" height="6.717"/>
            <rect class="cls-1" x="116.9732" y="108.0082" width="11.1434" height="6.717"/>
            <rect class="cls-1" x="124.2628" y="97.2517" width="14.3936" height="5.2003" transform="translate(231.3115 -31.6078) rotate(90)"/>
            <rect class="cls-1" x="106.4334" y="97.2517" width="14.3936" height="5.2003" transform="translate(213.482 -13.7783) rotate(90)"/>
          </g>
          <g>
            <rect class="cls-1" x="153.344" y="82.0998" width="17.0865" height="22.0701"/>
            <rect class="cls-1" x="156.3156" y="78.2615" width="11.1434" height="6.717"/>
            <rect class="cls-1" x="156.3156" y="101.2912" width="11.1434" height="6.717"/>
            <rect class="cls-1" x="163.6052" y="90.5347" width="14.3936" height="5.2003" transform="translate(263.9369 -77.6671) rotate(90)"/>
            <rect class="cls-1" x="145.7758" y="90.5347" width="14.3936" height="5.2003" transform="translate(246.1074 -59.8377) rotate(90)"/>
          </g>
        </g>
      </g>
    </g>
  </g>
</svg>