<?xml version="1.0" encoding="UTF-8"?>
<svg id="_레이어_2" data-name="레이어 2" xmlns="http://www.w3.org/2000/svg" viewBox="0 0 145.0559 192.8711">
  <defs>
    <style>
      .cls-1, .cls-2 {
        stroke-width: 0px;
      }

      .cls-2 {
        fill: #fff;
      }
    </style>
  </defs>
  <g id="_레이어_1-2" data-name="레이어 1">
    <g>
      <g>
        <path class="cls-1" d="m3.886,177.3271h1.9434v1.9141h1.9707v1.9424h1.9141v5.8877h-1.9141v1.9141H3.7981v-1.9141h-1.9141v-3.9443h2.002v3.8574h3.8281v-5.7129h-1.9434v-1.9434h-1.9727v-1.9434h-1.9141v-5.8574h1.9141v-1.9434h4.002v1.9434h1.9141v3.9434h-2v-3.8857h-3.8281v5.7422Z"/>
        <path class="cls-1" d="m13.4837,175.3838h2.002v11.6006h3.8281v-11.6006h2v13.6016h-5.916v-1.9141h-1.9141v-11.6875Z"/>
        <path class="cls-1" d="m27.0852,188.9854h-2.001v-19.4014h2.001v19.4014Z"/>
        <path class="cls-1" d="m38.7141,187.0713h-1.9141v1.9141h-3.915v3.8857h-2.001v-17.4873h5.916v1.9434h1.9141v9.7441Zm-5.8291-9.6865v9.5996h3.8281v-9.5996h-3.8281Z"/>
        <path class="cls-1" d="m44.4846,188.9854h-2.001v-19.4014h2.001v5.7998h3.915v1.9434h1.9141v11.6582h-2.001v-11.6006h-3.8281v11.6006Z"/>
        <path class="cls-1" d="m54.0833,175.3838h2.001v11.6006h3.8281v-11.6006h2.001v13.6016h-5.916v-1.9141h-1.9141v-11.6875Z"/>
        <path class="cls-1" d="m71.5716,175.3838v2.001h-1.9434v1.9434h-1.9434v9.6572h-2.001v-13.6016h2.001v1.9434h1.8857v-1.9434h2.001Z"/>
        <path class="cls-1" d="m87.0569,187.0713h-1.9141v1.9141h-5.916v-19.4014h5.916v1.9434h1.9141v15.5439Zm-5.8291-15.4863v15.3994h3.8281v-15.3994h-3.8281Z"/>
        <path class="cls-1" d="m92.8274,173.5283h-2.001v-2.001h2.001v2.001Zm0,15.457h-2.001v-13.6016h2.001v13.6016Z"/>
        <path class="cls-1" d="m102.5423,175.3838v1.9434h1.9141v9.7441h-1.9141v1.9141h-4.002v-1.9141h-1.9141v-9.7441h1.9141v-1.9434h4.002Zm-3.915,11.6006h3.8281v-9.5996h-3.8281v9.5996Z"/>
        <path class="cls-1" d="m116.0559,175.3838v3.9443h-1.9141v3.7988h1.9141v5.8584h-2.001v-5.8008h-3.8281v5.8008h-2.001v-5.8584h1.9141v-3.7988h-1.9141v-3.9443h2.001v3.8574h3.8281v-3.8574h2.001Z"/>
        <path class="cls-1" d="m121.8264,173.5283h-2.001v-2.001h2.001v2.001Zm0,15.457h-2.001v-13.6016h2.001v13.6016Z"/>
        <path class="cls-1" d="m131.4544,175.3838v-5.7998h2.001v19.4014h-5.916v-1.9141h-1.9141v-9.7441h1.9141v-1.9434h3.915Zm0,2.001h-3.8281v9.5996h3.8281v-9.5996Z"/>
        <path class="cls-1" d="m143.1419,175.3838v1.9434h1.9141v5.8574h-5.8291v3.7998h3.8281v-1.9141h2.001v2.001h-1.9141v1.9141h-4.002v-1.9141h-1.9141v-9.7441h1.9141v-1.9434h4.002Zm-3.915,5.7998h3.8281v-3.7988h-3.8281v3.7988Z"/>
      </g>
      <g>
        <g>
          <rect class="cls-1" x="17.2723" y="18.2318" width="97.8762" height="97.8762"/>
          <rect class="cls-1" x="31.6658" y="8.6361" width="68.1295" height="17.2723"/>
          <rect class="cls-1" x="40.302" width="49.8977" height="17.2723"/>
          <rect class="cls-1" x="40.302" y="114.1889" width="49.8977" height="17.2723"/>
          <rect class="cls-1" x="97.8762" y="57.5742" width="49.8977" height="17.2723" transform="translate(189.0353 -56.6146) rotate(90)"/>
          <rect class="cls-1" x="-16.3127" y="57.5742" width="49.8977" height="17.2723" transform="translate(74.8465 57.5742) rotate(90)"/>
          <rect class="cls-1" x="31.6658" y="107.4719" width="68.1295" height="17.2723"/>
          <rect class="cls-1" x="-18.7116" y="59.0136" width="68.1295" height="17.2723" transform="translate(83.0028 52.2966) rotate(90)"/>
          <rect class="cls-1" x="83.0028" y="59.0136" width="68.1295" height="17.2723" transform="translate(184.7173 -49.4179) rotate(90)"/>
        </g>
        <g>
          <rect class="cls-2" x="43.1807" y="46.957" width="22.0701" height="32.7492"/>
          <rect class="cls-2" x="47.0189" y="41.2615" width="14.3936" height="9.9671"/>
          <rect class="cls-2" x="47.0189" y="75.4346" width="14.3936" height="9.9671"/>
          <rect class="cls-2" x="55.0515" y="59.9731" width="21.3582" height="6.717" transform="translate(129.0622 -2.3989) rotate(90)"/>
          <rect class="cls-2" x="32.0218" y="59.9731" width="21.3582" height="6.717" transform="translate(106.0325 20.6308) rotate(90)"/>
        </g>
        <g>
          <rect class="cls-1" x="41.8288" y="44.8168" width="17.0865" height="22.0701"/>
          <rect class="cls-1" x="44.8004" y="40.9785" width="11.1434" height="6.717"/>
          <rect class="cls-1" x="44.8004" y="64.0082" width="11.1434" height="6.717"/>
          <rect class="cls-1" x="52.09" y="53.2517" width="14.3936" height="5.2003" transform="translate(115.1386 -3.4349) rotate(90)"/>
          <rect class="cls-1" x="34.2606" y="53.2517" width="14.3936" height="5.2003" transform="translate(97.3092 14.3945) rotate(90)"/>
        </g>
        <g>
          <rect class="cls-2" x="83.1807" y="46.957" width="22.0701" height="32.7492"/>
          <rect class="cls-2" x="87.0189" y="41.2615" width="14.3936" height="9.9671"/>
          <rect class="cls-2" x="87.0189" y="75.4346" width="14.3936" height="9.9671"/>
          <rect class="cls-2" x="95.0515" y="59.9731" width="21.3582" height="6.717" transform="translate(169.0622 -42.3989) rotate(90)"/>
          <rect class="cls-2" x="72.0218" y="59.9731" width="21.3582" height="6.717" transform="translate(146.0325 -19.3692) rotate(90)"/>
        </g>
        <g>
          <rect class="cls-1" x="81.8288" y="44.8168" width="17.0865" height="22.0701"/>
          <rect class="cls-1" x="84.8004" y="40.9785" width="11.1434" height="6.717"/>
          <rect class="cls-1" x="84.8004" y="64.0082" width="11.1434" height="6.717"/>
          <rect class="cls-1" x="92.09" y="53.2517" width="14.3936" height="5.2003" transform="translate(155.1386 -43.4349) rotate(90)"/>
          <rect class="cls-1" x="74.2606" y="53.2517" width="14.3936" height="5.2003" transform="translate(137.3092 -25.6055) rotate(90)"/>
        </g>
      </g>
    </g>
  </g>
</svg>