<?xml version="1.0" encoding="UTF-8"?>
<svg id="_레이어_2" data-name="레이어 2" xmlns="http://www.w3.org/2000/svg" viewBox="0 0 242 296">
  <defs>
    <style>
      .cls-1, .cls-2 {
        stroke-width: 0px;
      }

      .cls-2 {
        fill: #fff;
      }
    </style>
  </defs>
  <g id="_레이어_1-2" data-name="레이어 1">
    <g>
      <rect class="cls-2" width="242" height="296"/>
      <g>
        <path class="cls-1" d="m51.4164,214.3271h1.9424v1.9141h1.9717v1.9424h1.9141v5.8877h-1.9141v1.9141h-4.002v-1.9141h-1.9141v-3.9443h2.002v3.8574h3.8271v-5.7129h-1.9424v-1.9434h-1.9727v-1.9434h-1.9141v-5.8574h1.9141v-1.9434h4.002v1.9434h1.9141v3.9434h-2.001v-3.8857h-3.8271v5.7422Z"/>
        <path class="cls-1" d="m61.0141,212.3838h2.002v11.6006h3.8271v-11.6006h2.001v13.6016h-5.916v-1.9141h-1.9141v-11.6875Z"/>
        <path class="cls-1" d="m74.6156,225.9854h-2.001v-19.4014h2.001v19.4014Z"/>
        <path class="cls-1" d="m86.2445,224.0713h-1.9141v1.9141h-3.915v3.8857h-2.001v-17.4873h5.916v1.9434h1.9141v9.7441Zm-5.8291-9.6865v9.5996h3.8281v-9.5996h-3.8281Z"/>
        <path class="cls-1" d="m92.015,225.9854h-2.001v-19.4014h2.001v5.7998h3.915v1.9434h1.9141v11.6582h-2.001v-11.6006h-3.8281v11.6006Z"/>
        <path class="cls-1" d="m101.6137,212.3838h2.001v11.6006h3.8281v-11.6006h2.001v13.6016h-5.916v-1.9141h-1.9141v-11.6875Z"/>
        <path class="cls-1" d="m119.1019,212.3838v2.001h-1.9434v1.9434h-1.9434v9.6572h-2.001v-13.6016h2.001v1.9434h1.8857v-1.9434h2.001Z"/>
        <path class="cls-1" d="m134.5873,224.0713h-1.9141v1.9141h-5.916v-19.4014h5.916v1.9434h1.9141v15.5439Zm-5.8291-15.4863v15.3994h3.8281v-15.3994h-3.8281Z"/>
        <path class="cls-1" d="m140.3578,210.5283h-2.001v-2.001h2.001v2.001Zm0,15.457h-2.001v-13.6016h2.001v13.6016Z"/>
        <path class="cls-1" d="m150.0726,212.3838v1.9434h1.9141v9.7441h-1.9141v1.9141h-4.002v-1.9141h-1.9141v-9.7441h1.9141v-1.9434h4.002Zm-3.915,11.6006h3.8281v-9.5996h-3.8281v9.5996Z"/>
        <path class="cls-1" d="m163.5863,212.3838v3.9443h-1.9141v3.7988h1.9141v5.8584h-2.001v-5.8008h-3.8281v5.8008h-2.001v-5.8584h1.9141v-3.7988h-1.9141v-3.9443h2.001v3.8574h3.8281v-3.8574h2.001Z"/>
        <path class="cls-1" d="m169.3568,210.5283h-2.001v-2.001h2.001v2.001Zm0,15.457h-2.001v-13.6016h2.001v13.6016Z"/>
        <path class="cls-1" d="m178.9848,212.3838v-5.7998h2.001v19.4014h-5.916v-1.9141h-1.9141v-9.7441h1.9141v-1.9434h3.915Zm0,2.001h-3.8281v9.5996h3.8281v-9.5996Z"/>
        <path class="cls-1" d="m190.6723,212.3838v1.9434h1.9141v5.8574h-5.8291v3.7998h3.8281v-1.9141h2.001v2.001h-1.9141v1.9141h-4.002v-1.9141h-1.9141v-9.7441h1.9141v-1.9434h4.002Zm-3.915,5.7998h3.8281v-3.7988h-3.8281v3.7988Z"/>
      </g>
      <g>
        <g>
          <rect class="cls-1" x="72.5417" y="55.2318" width="97.8762" height="97.8762"/>
          <rect class="cls-1" x="86.9353" y="45.6361" width="68.1295" height="17.2723"/>
          <rect class="cls-1" x="95.5714" y="37" width="49.8977" height="17.2723"/>
          <rect class="cls-1" x="95.5714" y="151.1889" width="49.8977" height="17.2723"/>
          <rect class="cls-1" x="153.1456" y="94.5742" width="49.8977" height="17.2723" transform="translate(281.3048 -74.8841) rotate(90)"/>
          <rect class="cls-1" x="38.9567" y="94.5742" width="49.8977" height="17.2723" transform="translate(167.1159 39.3048) rotate(90)"/>
          <rect class="cls-1" x="86.9353" y="144.4719" width="68.1295" height="17.2723"/>
          <rect class="cls-1" x="36.5578" y="96.0136" width="68.1295" height="17.2723" transform="translate(175.2723 34.0271) rotate(90)"/>
          <rect class="cls-1" x="138.2723" y="96.0136" width="68.1295" height="17.2723" transform="translate(276.9867 -67.6873) rotate(90)"/>
        </g>
        <g>
          <rect class="cls-2" x="98.4501" y="83.957" width="22.0701" height="32.7492"/>
          <rect class="cls-2" x="102.2884" y="78.2615" width="14.3936" height="9.9671"/>
          <rect class="cls-2" x="102.2884" y="112.4346" width="14.3936" height="9.9671"/>
          <rect class="cls-2" x="110.3209" y="96.9731" width="21.3582" height="6.717" transform="translate(221.3316 -20.6684) rotate(90)"/>
          <rect class="cls-2" x="87.2912" y="96.9731" width="21.3582" height="6.717" transform="translate(198.302 2.3613) rotate(90)"/>
        </g>
        <g>
          <rect class="cls-1" x="97.0982" y="81.8168" width="17.0865" height="22.0701"/>
          <rect class="cls-1" x="100.0698" y="77.9785" width="11.1434" height="6.717"/>
          <rect class="cls-1" x="100.0698" y="101.0082" width="11.1434" height="6.717"/>
          <rect class="cls-1" x="107.3594" y="90.2517" width="14.3936" height="5.2003" transform="translate(207.4081 -21.7044) rotate(90)"/>
          <rect class="cls-1" x="89.53" y="90.2517" width="14.3936" height="5.2003" transform="translate(189.5786 -3.8749) rotate(90)"/>
        </g>
        <g>
          <rect class="cls-2" x="138.4501" y="83.957" width="22.0701" height="32.7492"/>
          <rect class="cls-2" x="142.2884" y="78.2615" width="14.3936" height="9.9671"/>
          <rect class="cls-2" x="142.2884" y="112.4346" width="14.3936" height="9.9671"/>
          <rect class="cls-2" x="150.3209" y="96.9731" width="21.3582" height="6.717" transform="translate(261.3316 -60.6684) rotate(90)"/>
          <rect class="cls-2" x="127.2912" y="96.9731" width="21.3582" height="6.717" transform="translate(238.302 -37.6387) rotate(90)"/>
        </g>
        <g>
          <rect class="cls-1" x="137.0982" y="81.8168" width="17.0865" height="22.0701"/>
          <rect class="cls-1" x="140.0698" y="77.9785" width="11.1434" height="6.717"/>
          <rect class="cls-1" x="140.0698" y="101.0082" width="11.1434" height="6.717"/>
          <rect class="cls-1" x="147.3594" y="90.2517" width="14.3936" height="5.2003" transform="translate(247.4081 -61.7044) rotate(90)"/>
          <rect class="cls-1" x="129.53" y="90.2517" width="14.3936" height="5.2003" transform="translate(229.5786 -43.8749) rotate(90)"/>
        </g>
      </g>
    </g>
  </g>
</svg>