<?xml version="1.0" encoding="UTF-8"?>
<svg id="_레이어_2" data-name="레이어 2" xmlns="http://www.w3.org/2000/svg" viewBox="0 0 166.3428 187.8711">
  <defs>
    <style>
      .cls-1, .cls-2 {
        stroke-width: 0px;
      }

      .cls-2 {
        fill: #fff;
      }
    </style>
  </defs>
  <g id="_레이어_1-2" data-name="레이어 1">
    <g>
      <g>
        <path class="cls-1" d="m7.8301,138.3574h-1.9141v1.9141h-3.9141v7.7139H0v-19.4014h5.916v1.9434h1.9141v7.8301Zm-5.8281-7.7725v7.6855h3.8271v-7.6855h-3.8271Z"/>
        <path class="cls-1" d="m13.5137,134.3838h4.002v1.9434h1.9141v11.6582h-5.916v-1.9141h-1.9141v-5.8877h1.9141v-1.9131h3.915v-1.8857h-3.915v-2.001Zm3.915,5.8877h-3.8271v5.7129h3.8271v-5.7129Z"/>
        <path class="cls-1" d="m29.0869,134.3838v2.001h-1.9424v1.9434h-1.9434v9.6572h-2.001v-13.6016h2.001v1.9434h1.8848v-1.9434h2.001Z"/>
        <path class="cls-1" d="m30.9424,134.3838h1.9434v-3.8564h2.001v3.8564h1.9434v2.001h-1.9434v11.6006h-2.001v-11.6006h-1.9434v-2.001Z"/>
        <path class="cls-1" d="m42.6016,132.5283h-2.002v-2.001h2.002v2.001Zm0,15.457h-2.002v-13.6016h2.002v13.6016Z"/>
        <path class="cls-1" d="m48.4014,145.9844h3.8271v-1.9141h2.001v2.001h-1.9141v1.9141h-4.002v-1.9141h-1.9141v-9.7441h1.9141v-1.9434h4.002v1.9434h1.9141v2.001h-2.001v-1.9434h-3.8271v9.5996Z"/>
        <path class="cls-1" d="m60.001,147.9854h-2.002v-19.4014h2.002v19.4014Z"/>
        <path class="cls-1" d="m69.7148,134.3838v1.9434h1.9141v5.8574h-5.8281v3.7998h3.8271v-1.9141h2.001v2.001h-1.9141v1.9141h-4.002v-1.9141h-1.9141v-9.7441h1.9141v-1.9434h4.002Zm-3.9141,5.7998h3.8271v-3.7988h-3.8271v3.7988Z"/>
        <path class="cls-1" d="m77.4004,140.1836h3.915v1.9434h1.9141v3.9443h-1.9141v1.9141h-4.002v-1.9141h-1.9141v-2.001h2.001v1.9141h3.8281v-3.7998h-3.915v-1.9131h-1.9141v-3.9443h1.9141v-1.9434h4.002v1.9434h1.9141v2.001h-2.001v-1.9434h-3.8281v3.7988Z"/>
        <path class="cls-1" d="m100.6289,134.3838v2.001h-1.9141v1.9434h-1.9717v1.9434h-1.9434v1.8555h1.9434v1.9141h1.9717v1.9434h1.9141v2.001h-2.001v-1.9141h-1.9434v-1.9434h-1.9717v-1.9434h-1.9141v-2.001h1.9141v-1.9424h1.9717v-1.9141h1.9434v-1.9434h2.001Z"/>
        <path class="cls-1" d="m116.1152,128.584v1.9434h1.9141v5.8574h-1.9141v3.8867h-1.9717v3.8564h-1.9434v1.8564h5.8291v2.001h-7.8301v-3.9443h1.9141v-3.8574h1.9727v-3.8564h1.9424v-5.7422h-3.8281v3.8857h-2.001v-3.9434h1.9141v-1.9434h4.002Z"/>
        <path class="cls-1" d="m123.7998,147.9854h-2.001v-3.9443h2.001v3.9443Z"/>
        <path class="cls-1" d="m129.542,128.584h7.8301v2.001h-5.8291v3.7988h3.915v1.9434h1.9141v9.7441h-1.9141v1.9141h-4.002v-1.9141h-1.9141v-3.9443h2.001v3.8574h3.8281v-9.5996h-5.8291v-7.8008Z"/>
        <path class="cls-1" d="m143.1426,145.9844h3.8281v-11.6006h2.001v13.6016h-5.8291v3.8857h-2.001v-17.4873h2.001v11.6006Z"/>
        <path class="cls-1" d="m164.4287,134.3838v1.9434h1.9141v11.6582h-2.001v-11.6006h-3.7998v11.6006h-2.001v-11.6006h-3.7988v11.6006h-2.001v-13.6016h5.8877v1.9434h1.8262v-1.9434h3.9736Z"/>
        <path class="cls-1" d="m55.1719,162.6699v2.001h-1.9424v1.917h-1.9434v17.3652h1.9434v1.917h1.9424v2.001h-2.001v-1.9141h-1.9717v-1.9453h-1.9141v-17.4824h1.9141v-1.9453h1.9717v-1.9141h2.001Z"/>
        <path class="cls-1" d="m64.8584,174.3574h-1.9141v1.9141h-3.915v7.7139h-2.001v-19.4014h5.916v1.9434h1.9141v7.8301Zm-5.8291-7.7725v7.6855h3.8281v-7.6855h-3.8281Z"/>
        <path class="cls-1" d="m76.3711,168.4414v-3.8574h2.001v19.4014h-2.001v-11.6006h-1.8564v5.7998h-2.001v-5.7998h-1.8848v11.6006h-2.001v-19.4014h2.001v3.8574h1.9434v3.8857h1.8555v-3.8857h1.9434Z"/>
        <path class="cls-1" d="m88.0869,164.584v1.9434h1.9141v5.8574h-1.9141v3.8867h-1.9717v3.8564h-1.9434v1.8564h5.8291v2.001h-7.8301v-3.9443h1.9141v-3.8574h1.9717v-3.8564h1.9434v-5.7422h-3.8281v3.8857h-2.001v-3.9434h1.9141v-1.9434h4.002Z"/>
        <path class="cls-1" d="m95.7715,183.9854h-2.001v-3.9443h2.001v3.9443Z"/>
        <path class="cls-1" d="m101.5137,164.584h7.8301v2.001h-5.8291v3.7988h3.915v1.9434h1.9141v9.7441h-1.9141v1.9141h-4.002v-1.9141h-1.9141v-3.9443h2.001v3.8574h3.8281v-9.5996h-5.8291v-7.8008Z"/>
        <path class="cls-1" d="m111.1992,162.6699h2.001v1.9141h1.9141v1.9434h1.9141v17.458h-1.9141v1.9424h-1.9141v1.9434h-2.001v-2.0303h1.9141v-1.9141h1.9141v-17.3418h-1.9141v-1.9141h-1.9141v-2.001Z"/>
      </g>
      <g>
        <g>
          <rect class="cls-1" x="59.7093" y="6.8596" width="36.8251" height="36.8251"/>
          <rect class="cls-1" x="65.1248" y="3.2493" width="25.6331" height="6.4985"/>
          <rect class="cls-1" x="68.374" width="18.7736" height="6.4985"/>
          <rect class="cls-1" x="68.374" y="42.9626" width="18.7736" height="6.4985"/>
          <rect class="cls-1" x="90.0358" y="21.6618" width="18.7736" height="6.4985" transform="translate(124.3337 -74.5116) rotate(90)"/>
          <rect class="cls-1" x="47.0733" y="21.6618" width="18.7736" height="6.4985" transform="translate(81.3711 -31.549) rotate(90)"/>
          <rect class="cls-1" x="65.1248" y="40.4354" width="25.6331" height="6.4985"/>
          <rect class="cls-1" x="46.1707" y="22.2034" width="25.6331" height="6.4985" transform="translate(84.4399 -33.5346) rotate(90)"/>
          <rect class="cls-1" x="84.4399" y="22.2034" width="25.6331" height="6.4985" transform="translate(122.7091 -71.8038) rotate(90)"/>
        </g>
        <g>
          <rect class="cls-2" x="69.4571" y="17.6672" width="8.3037" height="12.3216"/>
          <rect class="cls-2" x="70.9012" y="15.5243" width="5.4155" height="3.7501"/>
          <rect class="cls-2" x="70.9012" y="28.3816" width="5.4155" height="3.7501"/>
          <rect class="cls-2" x="73.9234" y="22.5644" width="8.0358" height="2.5272" transform="translate(101.7693 -54.1133) rotate(90)"/>
          <rect class="cls-2" x="65.2587" y="22.5644" width="8.0358" height="2.5272" transform="translate(93.1046 -45.4486) rotate(90)"/>
        </g>
        <g>
          <rect class="cls-2" x="83.5373" y="16.6074" width="8.3037" height="8.3037"/>
          <rect class="cls-2" x="84.9814" y="15.1633" width="5.4155" height="2.5272"/>
          <rect class="cls-2" x="84.9814" y="23.828" width="5.4155" height="2.5272"/>
          <rect class="cls-2" x="89.3138" y="19.4956" width="5.4155" height="2.5272" transform="translate(112.7807 -71.2623) rotate(90)"/>
          <rect class="cls-2" x="80.6491" y="19.4956" width="5.4155" height="2.5272" transform="translate(104.116 -62.5976) rotate(90)"/>
        </g>
        <g>
          <rect class="cls-1" x="73.4634" y="19.4956" width="6.4287" height="8.3037"/>
          <rect class="cls-1" x="74.5814" y="18.0515" width="4.1926" height="2.5272"/>
          <rect class="cls-1" x="74.5814" y="26.7162" width="4.1926" height="2.5272"/>
          <rect class="cls-1" x="77.3241" y="22.6692" width="5.4155" height="1.9566" transform="translate(103.6793 -56.3843) rotate(90)"/>
          <rect class="cls-1" x="70.6159" y="22.6692" width="5.4155" height="1.9566" transform="translate(96.9711 -49.6762) rotate(90)"/>
        </g>
        <g>
          <rect class="cls-1" x="88.2656" y="16.9684" width="6.4287" height="8.3037"/>
          <rect class="cls-1" x="89.3837" y="15.5243" width="4.1926" height="2.5272"/>
          <rect class="cls-1" x="89.3837" y="24.189" width="4.1926" height="2.5272"/>
          <rect class="cls-1" x="92.1263" y="20.142" width="5.4155" height="1.9566" transform="translate(115.9543 -73.7138) rotate(90)"/>
          <rect class="cls-1" x="85.4182" y="20.142" width="5.4155" height="1.9566" transform="translate(109.2461 -67.0056) rotate(90)"/>
        </g>
      </g>
    </g>
  </g>
</svg>