<?xml version="1.0" encoding="UTF-8"?>
<svg id="_레이어_2" data-name="레이어 2" xmlns="http://www.w3.org/2000/svg" viewBox="0 0 242 296">
  <defs>
    <style>
      .cls-1, .cls-2 {
        stroke-width: 0px;
      }

      .cls-2 {
        fill: #fff;
      }
    </style>
  </defs>
  <g id="_레이어_1-2" data-name="레이어 1">
    <g>
      <rect class="cls-2" width="242" height="296"/>
      <g>
        <path class="cls-1" d="m41.7646,217.3574h-1.9141v1.9141h-3.9141v7.7139h-2.002v-19.4014h5.916v1.9434h1.9141v7.8301Zm-5.8281-7.7725v7.6855h3.8271v-7.6855h-3.8271Z"/>
        <path class="cls-1" d="m47.4482,213.3838h4.002v1.9434h1.9141v11.6582h-5.916v-1.9141h-1.9141v-5.8877h1.9141v-1.9131h3.915v-1.8857h-3.915v-2.001Zm3.915,5.8877h-3.8271v5.7129h3.8271v-5.7129Z"/>
        <path class="cls-1" d="m63.0215,213.3838v2.001h-1.9424v1.9434h-1.9434v9.6572h-2.001v-13.6016h2.001v1.9434h1.8848v-1.9434h2.001Z"/>
        <path class="cls-1" d="m64.877,213.3838h1.9434v-3.8564h2.001v3.8564h1.9434v2.001h-1.9434v11.6006h-2.001v-11.6006h-1.9434v-2.001Z"/>
        <path class="cls-1" d="m76.5361,211.5283h-2.002v-2.001h2.002v2.001Zm0,15.457h-2.002v-13.6016h2.002v13.6016Z"/>
        <path class="cls-1" d="m82.3359,224.9844h3.8271v-1.9141h2.001v2.001h-1.9141v1.9141h-4.002v-1.9141h-1.9141v-9.7441h1.9141v-1.9434h4.002v1.9434h1.9141v2.001h-2.001v-1.9434h-3.8271v9.5996Z"/>
        <path class="cls-1" d="m93.9355,226.9854h-2.002v-19.4014h2.002v19.4014Z"/>
        <path class="cls-1" d="m103.6494,213.3838v1.9434h1.9141v5.8574h-5.8281v3.7998h3.8271v-1.9141h2.001v2.001h-1.9141v1.9141h-4.002v-1.9141h-1.9141v-9.7441h1.9141v-1.9434h4.002Zm-3.9141,5.7998h3.8271v-3.7988h-3.8271v3.7988Z"/>
        <path class="cls-1" d="m111.335,219.1836h3.915v1.9434h1.9141v3.9443h-1.9141v1.9141h-4.002v-1.9141h-1.9141v-2.001h2.001v1.9141h3.8281v-3.7998h-3.915v-1.9131h-1.9141v-3.9443h1.9141v-1.9434h4.002v1.9434h1.9141v2.001h-2.001v-1.9434h-3.8281v3.7988Z"/>
        <path class="cls-1" d="m134.5635,213.3838v2.001h-1.9141v1.9434h-1.9717v1.9434h-1.9434v1.8555h1.9434v1.9141h1.9717v1.9434h1.9141v2.001h-2.001v-1.9141h-1.9434v-1.9434h-1.9717v-1.9434h-1.9141v-2.001h1.9141v-1.9424h1.9717v-1.9141h1.9434v-1.9434h2.001Z"/>
        <path class="cls-1" d="m150.0498,207.584v1.9434h1.9141v5.8574h-1.9141v3.8867h-1.9717v3.8564h-1.9434v1.8564h5.8291v2.001h-7.8301v-3.9443h1.9141v-3.8574h1.9727v-3.8564h1.9424v-5.7422h-3.8281v3.8857h-2.001v-3.9434h1.9141v-1.9434h4.002Z"/>
        <path class="cls-1" d="m157.7344,226.9854h-2.001v-3.9443h2.001v3.9443Z"/>
        <path class="cls-1" d="m163.4766,207.584h7.8301v2.001h-5.8291v3.7988h3.915v1.9434h1.9141v9.7441h-1.9141v1.9141h-4.002v-1.9141h-1.9141v-3.9443h2.001v3.8574h3.8281v-9.5996h-5.8291v-7.8008Z"/>
        <path class="cls-1" d="m177.0771,224.9844h3.8281v-11.6006h2.001v13.6016h-5.8291v3.8857h-2.001v-17.4873h2.001v11.6006Z"/>
        <path class="cls-1" d="m198.3633,213.3838v1.9434h1.9141v11.6582h-2.001v-11.6006h-3.7998v11.6006h-2.001v-11.6006h-3.7988v11.6006h-2.001v-13.6016h5.8877v1.9434h1.8262v-1.9434h3.9736Z"/>
        <path class="cls-1" d="m89.1064,241.6699v2.001h-1.9424v1.917h-1.9434v17.3652h1.9434v1.917h1.9424v2.001h-2.001v-1.9141h-1.9717v-1.9453h-1.9141v-17.4824h1.9141v-1.9453h1.9717v-1.9141h2.001Z"/>
        <path class="cls-1" d="m98.793,253.3574h-1.9141v1.9141h-3.915v7.7139h-2.001v-19.4014h5.916v1.9434h1.9141v7.8301Zm-5.8291-7.7725v7.6855h3.8281v-7.6855h-3.8281Z"/>
        <path class="cls-1" d="m110.3057,247.4414v-3.8574h2.001v19.4014h-2.001v-11.6006h-1.8564v5.7998h-2.001v-5.7998h-1.8848v11.6006h-2.001v-19.4014h2.001v3.8574h1.9434v3.8857h1.8555v-3.8857h1.9434Z"/>
        <path class="cls-1" d="m122.0215,243.584v1.9434h1.9141v5.8574h-1.9141v3.8867h-1.9717v3.8564h-1.9434v1.8564h5.8291v2.001h-7.8301v-3.9443h1.9141v-3.8574h1.9717v-3.8564h1.9434v-5.7422h-3.8281v3.8857h-2.001v-3.9434h1.9141v-1.9434h4.002Z"/>
        <path class="cls-1" d="m129.7061,262.9854h-2.001v-3.9443h2.001v3.9443Z"/>
        <path class="cls-1" d="m135.4482,243.584h7.8301v2.001h-5.8291v3.7988h3.915v1.9434h1.9141v9.7441h-1.9141v1.9141h-4.002v-1.9141h-1.9141v-3.9443h2.001v3.8574h3.8281v-9.5996h-5.8291v-7.8008Z"/>
        <path class="cls-1" d="m145.1338,241.6699h2.001v1.9141h1.9141v1.9434h1.9141v17.458h-1.9141v1.9424h-1.9141v1.9434h-2.001v-2.0303h1.9141v-1.9141h1.9141v-17.3418h-1.9141v-1.9141h-1.9141v-2.001Z"/>
      </g>
      <g>
        <g>
          <rect class="cls-1" x="98.8881" y="85.8596" width="36.8251" height="36.8251"/>
          <rect class="cls-1" x="104.3035" y="82.2493" width="25.6331" height="6.4985"/>
          <rect class="cls-1" x="107.5528" y="79" width="18.7736" height="6.4985"/>
          <rect class="cls-1" x="107.5528" y="121.9626" width="18.7736" height="6.4985"/>
          <rect class="cls-1" x="129.2146" y="100.6618" width="18.7736" height="6.4985" transform="translate(242.5125 -34.6903) rotate(90)"/>
          <rect class="cls-1" x="86.252" y="100.6618" width="18.7736" height="6.4985" transform="translate(199.5499 8.2723) rotate(90)"/>
          <rect class="cls-1" x="104.3035" y="119.4354" width="25.6331" height="6.4985"/>
          <rect class="cls-1" x="85.3494" y="101.2034" width="25.6331" height="6.4985" transform="translate(202.6186 6.2866) rotate(90)"/>
          <rect class="cls-1" x="123.6186" y="101.2034" width="25.6331" height="6.4985" transform="translate(240.8878 -31.9826) rotate(90)"/>
        </g>
        <g>
          <rect class="cls-2" x="108.6359" y="96.6672" width="8.3037" height="12.3216"/>
          <rect class="cls-2" x="110.08" y="94.5243" width="5.4155" height="3.7501"/>
          <rect class="cls-2" x="110.08" y="107.3816" width="5.4155" height="3.7501"/>
          <rect class="cls-2" x="113.1022" y="101.5644" width="8.0358" height="2.5272" transform="translate(219.9481 -14.2921) rotate(90)"/>
          <rect class="cls-2" x="104.4374" y="101.5644" width="8.0358" height="2.5272" transform="translate(211.2833 -5.6274) rotate(90)"/>
        </g>
        <g>
          <rect class="cls-2" x="122.716" y="95.6074" width="8.3037" height="8.3037"/>
          <rect class="cls-2" x="124.1602" y="94.1633" width="5.4155" height="2.5272"/>
          <rect class="cls-2" x="124.1602" y="102.828" width="5.4155" height="2.5272"/>
          <rect class="cls-2" x="128.4925" y="98.4956" width="5.4155" height="2.5272" transform="translate(230.9595 -31.441) rotate(90)"/>
          <rect class="cls-2" x="119.8278" y="98.4956" width="5.4155" height="2.5272" transform="translate(222.2948 -22.7763) rotate(90)"/>
        </g>
        <g>
          <rect class="cls-1" x="112.6421" y="98.4956" width="6.4287" height="8.3037"/>
          <rect class="cls-1" x="113.7602" y="97.0515" width="4.1926" height="2.5272"/>
          <rect class="cls-1" x="113.7602" y="105.7162" width="4.1926" height="2.5272"/>
          <rect class="cls-1" x="116.5028" y="101.6692" width="5.4155" height="1.9566" transform="translate(221.858 -16.5631) rotate(90)"/>
          <rect class="cls-1" x="109.7947" y="101.6692" width="5.4155" height="1.9566" transform="translate(215.1499 -9.8549) rotate(90)"/>
        </g>
        <g>
          <rect class="cls-1" x="127.4444" y="95.9684" width="6.4287" height="8.3037"/>
          <rect class="cls-1" x="128.5624" y="94.5243" width="4.1926" height="2.5272"/>
          <rect class="cls-1" x="128.5624" y="103.189" width="4.1926" height="2.5272"/>
          <rect class="cls-1" x="131.3051" y="99.142" width="5.4155" height="1.9566" transform="translate(234.1331 -33.8925) rotate(90)"/>
          <rect class="cls-1" x="124.5969" y="99.142" width="5.4155" height="1.9566" transform="translate(227.4249 -27.1844) rotate(90)"/>
        </g>
      </g>
    </g>
  </g>
</svg>