<?xml version="1.0" encoding="UTF-8"?>
<svg id="_레이어_2" data-name="레이어 2" xmlns="http://www.w3.org/2000/svg" viewBox="0 0 156.6562 210.8711">
  <defs>
    <style>
      .cls-1, .cls-2 {
        stroke-width: 0px;
      }

      .cls-2 {
        fill: #fff;
      }
    </style>
  </defs>
  <g id="_레이어_1-2" data-name="레이어 1">
    <g>
      <g>
        <path class="cls-1" d="m7.8301,161.3574h-1.9141v1.9141h-3.915v7.7139H0v-19.4014h5.916v1.9434h1.9141v7.8301Zm-5.8291-7.7725v7.6855h3.8281v-7.6855h-3.8281Z"/>
        <path class="cls-1" d="m13.5137,157.3838h4.002v1.9434h1.9141v11.6582h-5.916v-1.9141h-1.9141v-5.8877h1.9141v-1.9131h3.915v-1.8857h-3.915v-2.001Zm3.915,5.8877h-3.8281v5.7129h3.8281v-5.7129Z"/>
        <path class="cls-1" d="m29.0869,157.3838v2.001h-1.9434v1.9434h-1.9424v9.6572h-2.002v-13.6016h2.002v1.9434h1.8848v-1.9434h2.001Z"/>
        <path class="cls-1" d="m30.9424,157.3838h1.9434v-3.8564h2.001v3.8564h1.9424v2.001h-1.9424v11.6006h-2.001v-11.6006h-1.9434v-2.001Z"/>
        <path class="cls-1" d="m42.6006,155.5283h-2.001v-2.001h2.001v2.001Zm0,15.457h-2.001v-13.6016h2.001v13.6016Z"/>
        <path class="cls-1" d="m48.4004,168.9844h3.8281v-1.9141h2.001v2.001h-1.9141v1.9141h-4.002v-1.9141h-1.9141v-9.7441h1.9141v-1.9434h4.002v1.9434h1.9141v2.001h-2.001v-1.9434h-3.8281v9.5996Z"/>
        <path class="cls-1" d="m60,170.9854h-2.001v-19.4014h2.001v19.4014Z"/>
        <path class="cls-1" d="m69.7148,157.3838v1.9434h1.9141v5.8574h-5.8291v3.7998h3.8281v-1.9141h2.001v2.001h-1.9141v1.9141h-4.002v-1.9141h-1.9141v-9.7441h1.9141v-1.9434h4.002Zm-3.915,5.7998h3.8281v-3.7988h-3.8281v3.7988Z"/>
        <path class="cls-1" d="m77.4004,163.1836h3.9141v1.9434h1.9141v3.9443h-1.9141v1.9141h-4.002v-1.9141h-1.9141v-2.001h2.002v1.9141h3.8271v-3.7998h-3.915v-1.9131h-1.9141v-3.9443h1.9141v-1.9434h4.002v1.9434h1.9141v2.001h-2.001v-1.9434h-3.8271v3.7988Z"/>
        <path class="cls-1" d="m100.6289,157.3838v2.001h-1.9141v1.9434h-1.9717v1.9434h-1.9434v1.8555h1.9434v1.9141h1.9717v1.9434h1.9141v2.001h-2.001v-1.9141h-1.9434v-1.9434h-1.9717v-1.9434h-1.9141v-2.001h1.9141v-1.9424h1.9717v-1.9141h1.9434v-1.9434h2.001Z"/>
        <path class="cls-1" d="m110.1982,153.5273h1.9434v-1.9434h2.001v19.4014h-2.001v-15.457h-1.9434v-2.001Z"/>
        <path class="cls-1" d="m125.7715,151.584v1.9434h1.9141v15.5439h-1.9141v1.9141h-4.002v-1.9141h-1.9141v-15.5439h1.9141v-1.9434h4.002Zm-3.915,17.4004h3.8281v-15.3994h-3.8281v15.3994Z"/>
        <path class="cls-1" d="m133.4561,168.9844h3.8281v-11.6006h2.001v13.6016h-5.8291v3.8857h-2.001v-17.4873h2.001v11.6006Z"/>
        <path class="cls-1" d="m154.7422,157.3838v1.9434h1.9141v11.6582h-2.001v-11.6006h-3.7998v11.6006h-2.001v-11.6006h-3.7988v11.6006h-2.001v-13.6016h5.8877v1.9434h1.8262v-1.9434h3.9736Z"/>
        <path class="cls-1" d="m55.1719,185.6699v2.001h-1.9434v1.917h-1.9424v17.3652h1.9424v1.917h1.9434v2.001h-2.001v-1.9141h-1.9727v-1.9453h-1.9141v-17.4824h1.9141v-1.9453h1.9727v-1.9141h2.001Z"/>
        <path class="cls-1" d="m64.8574,197.3574h-1.9141v1.9141h-3.9141v7.7139h-2.002v-19.4014h5.916v1.9434h1.9141v7.8301Zm-5.8281-7.7725v7.6855h3.8271v-7.6855h-3.8271Z"/>
        <path class="cls-1" d="m76.3701,191.4414v-3.8574h2.001v19.4014h-2.001v-11.6006h-1.8555v5.7998h-2.001v-5.7998h-1.8848v11.6006h-2.002v-19.4014h2.002v3.8574h1.9424v3.8857h1.8564v-3.8857h1.9424Z"/>
        <path class="cls-1" d="m82.1699,189.5273h1.9434v-1.9434h2.001v19.4014h-2.001v-15.457h-1.9434v-2.001Z"/>
        <path class="cls-1" d="m97.7432,187.584v1.9434h1.9141v15.5439h-1.9141v1.9141h-4.002v-1.9141h-1.9141v-15.5439h1.9141v-1.9434h4.002Zm-3.915,17.4004h3.8281v-15.3994h-3.8281v15.3994Z"/>
        <path class="cls-1" d="m101.5127,185.6699h2.001v1.9141h1.9141v1.9434h1.9141v17.458h-1.9141v1.9424h-1.9141v1.9434h-2.001v-2.0303h1.9141v-1.9141h1.9141v-17.3418h-1.9141v-1.9141h-1.9141v-2.001Z"/>
      </g>
      <g>
        <g>
          <rect class="cls-1" x="37.2237" y="13.2391" width="71.0732" height="71.0732"/>
          <rect class="cls-1" x="47.6757" y="6.2712" width="49.4726" height="12.5423"/>
          <rect class="cls-1" x="53.9468" width="36.2334" height="12.5423"/>
          <rect class="cls-1" x="53.9468" y="82.9188" width="36.2334" height="12.5423"/>
          <rect class="cls-1" x="95.7546" y="41.8078" width="36.2334" height="12.5423" transform="translate(161.9503 -65.7924) rotate(90)"/>
          <rect class="cls-1" x="12.8358" y="41.8078" width="36.2334" height="12.5423" transform="translate(79.0315 17.1264) rotate(90)"/>
          <rect class="cls-1" x="47.6757" y="78.0412" width="49.4726" height="12.5423"/>
          <rect class="cls-1" x="11.0938" y="42.853" width="49.4726" height="12.5423" transform="translate(84.9543 13.294) rotate(90)"/>
          <rect class="cls-1" x="84.9543" y="42.853" width="49.4726" height="12.5423" transform="translate(158.8147 -60.5664) rotate(90)"/>
        </g>
        <g>
          <rect class="cls-2" x="56.0372" y="34.0981" width="16.0263" height="23.781"/>
          <rect class="cls-2" x="58.8244" y="29.9623" width="10.4519" height="7.2377"/>
          <rect class="cls-2" x="58.8244" y="54.7772" width="10.4519" height="7.2377"/>
          <rect class="cls-2" x="64.6573" y="43.5498" width="15.5093" height="4.8776" transform="translate(118.4005 -26.4234) rotate(90)"/>
          <rect class="cls-2" x="47.9342" y="43.5498" width="15.5093" height="4.8776" transform="translate(101.6774 -9.7002) rotate(90)"/>
        </g>
        <g>
          <rect class="cls-2" x="83.2123" y="32.0526" width="16.0263" height="16.0263"/>
          <rect class="cls-2" x="85.9995" y="29.2655" width="10.4519" height="4.8776"/>
          <rect class="cls-2" x="85.9995" y="45.9886" width="10.4519" height="4.8776"/>
          <rect class="cls-2" x="94.361" y="37.627" width="10.4519" height="4.8776" transform="translate(139.6528 -59.5212) rotate(90)"/>
          <rect class="cls-2" x="77.6379" y="37.627" width="10.4519" height="4.8776" transform="translate(122.9297 -42.7981) rotate(90)"/>
        </g>
        <g>
          <rect class="cls-1" x="63.7694" y="37.627" width="12.4075" height="16.0263"/>
          <rect class="cls-1" x="65.9272" y="34.8398" width="8.0918" height="4.8776"/>
          <rect class="cls-1" x="65.9272" y="51.5629" width="8.0918" height="4.8776"/>
          <rect class="cls-1" x="71.2206" y="43.7521" width="10.4519" height="3.7762" transform="translate(122.0868 -30.8064) rotate(90)"/>
          <rect class="cls-1" x="58.2737" y="43.7521" width="10.4519" height="3.7762" transform="translate(109.1399 -17.8595) rotate(90)"/>
        </g>
        <g>
          <rect class="cls-1" x="92.3381" y="32.7494" width="12.4075" height="16.0263"/>
          <rect class="cls-1" x="94.4959" y="29.9623" width="8.0918" height="4.8776"/>
          <rect class="cls-1" x="94.4959" y="46.6854" width="8.0918" height="4.8776"/>
          <rect class="cls-1" x="99.7893" y="38.8745" width="10.4519" height="3.7762" transform="translate(145.7779 -64.2527) rotate(90)"/>
          <rect class="cls-1" x="86.8424" y="38.8745" width="10.4519" height="3.7762" transform="translate(132.8309 -51.3057) rotate(90)"/>
        </g>
      </g>
    </g>
  </g>
</svg>