<?xml version="1.0" encoding="UTF-8"?>
<svg id="_레이어_2" data-name="레이어 2" xmlns="http://www.w3.org/2000/svg" viewBox="0 0 242 296">
  <defs>
    <style>
      .cls-1, .cls-2 {
        stroke-width: 0px;
      }

      .cls-2 {
        fill: #fff;
      }
    </style>
  </defs>
  <g id="_레이어_1-2" data-name="레이어 1">
    <g>
      <rect class="cls-2" width="242" height="296"/>
      <g>
        <path class="cls-1" d="m50.4872,220.3574h-1.9141v1.9141h-3.9141v7.7139h-2.002v-19.4014h5.916v1.9434h1.9141v7.8301Zm-5.8281-7.7725v7.6855h3.8271v-7.6855h-3.8271Z"/>
        <path class="cls-1" d="m56.1708,216.3838h4.002v1.9434h1.9141v11.6582h-5.916v-1.9141h-1.9141v-5.8877h1.9141v-1.9131h3.915v-1.8857h-3.915v-2.001Zm3.915,5.8877h-3.8271v5.7129h3.8271v-5.7129Z"/>
        <path class="cls-1" d="m71.744,216.3838v2.001h-1.9424v1.9434h-1.9434v9.6572h-2.001v-13.6016h2.001v1.9434h1.8848v-1.9434h2.001Z"/>
        <path class="cls-1" d="m73.5995,216.3838h1.9434v-3.8564h2.001v3.8564h1.9434v2.001h-1.9434v11.6006h-2.001v-11.6006h-1.9434v-2.001Z"/>
        <path class="cls-1" d="m85.2587,214.5283h-2.002v-2.001h2.002v2.001Zm0,15.457h-2.002v-13.6016h2.002v13.6016Z"/>
        <path class="cls-1" d="m91.0585,227.9844h3.8271v-1.9141h2.001v2.001h-1.9141v1.9141h-4.002v-1.9141h-1.9141v-9.7441h1.9141v-1.9434h4.002v1.9434h1.9141v2.001h-2.001v-1.9434h-3.8271v9.5996Z"/>
        <path class="cls-1" d="m102.6581,229.9854h-2.002v-19.4014h2.002v19.4014Z"/>
        <path class="cls-1" d="m112.372,216.3838v1.9434h1.9141v5.8574h-5.8281v3.7998h3.8271v-1.9141h2.001v2.001h-1.9141v1.9141h-4.002v-1.9141h-1.9141v-9.7441h1.9141v-1.9434h4.002Zm-3.9141,5.7998h3.8271v-3.7988h-3.8271v3.7988Z"/>
        <path class="cls-1" d="m120.0575,222.1836h3.915v1.9434h1.9141v3.9443h-1.9141v1.9141h-4.002v-1.9141h-1.9141v-2.001h2.001v1.9141h3.8281v-3.7998h-3.915v-1.9131h-1.9141v-3.9443h1.9141v-1.9434h4.002v1.9434h1.9141v2.001h-2.001v-1.9434h-3.8281v3.7988Z"/>
        <path class="cls-1" d="m143.286,216.3838v2.001h-1.9141v1.9434h-1.9717v1.9434h-1.9424v1.8555h1.9424v1.9141h1.9717v1.9434h1.9141v2.001h-2.001v-1.9141h-1.9424v-1.9434h-1.9727v-1.9434h-1.9141v-2.001h1.9141v-1.9424h1.9727v-1.9141h1.9424v-1.9434h2.001Z"/>
        <path class="cls-1" d="m152.8554,212.5273h1.9434v-1.9434h2.001v19.4014h-2.001v-15.457h-1.9434v-2.001Z"/>
        <path class="cls-1" d="m168.4286,210.584v1.9434h1.9141v15.5439h-1.9141v1.9141h-4.002v-1.9141h-1.9141v-15.5439h1.9141v-1.9434h4.002Zm-3.915,17.4004h3.8281v-15.3994h-3.8281v15.3994Z"/>
        <path class="cls-1" d="m176.1132,227.9844h3.8281v-11.6006h2.001v13.6016h-5.8291v3.8857h-2.001v-17.4873h2.001v11.6006Z"/>
        <path class="cls-1" d="m197.3993,216.3838v1.9434h1.9141v11.6582h-2.001v-11.6006h-3.7998v11.6006h-2.001v-11.6006h-3.7988v11.6006h-2.001v-13.6016h5.8877v1.9434h1.8262v-1.9434h3.9736Z"/>
        <path class="cls-1" d="m97.829,244.6699v2.001h-1.9424v1.917h-1.9434v17.3652h1.9434v1.917h1.9424v2.001h-2.001v-1.9141h-1.9717v-1.9453h-1.9141v-17.4824h1.9141v-1.9453h1.9717v-1.9141h2.001Z"/>
        <path class="cls-1" d="m107.5155,256.3574h-1.9141v1.9141h-3.915v7.7139h-2.001v-19.4014h5.916v1.9434h1.9141v7.8301Zm-5.8291-7.7725v7.6855h3.8281v-7.6855h-3.8281Z"/>
        <path class="cls-1" d="m119.0282,250.4414v-3.8574h2.001v19.4014h-2.001v-11.6006h-1.8564v5.7998h-2.001v-5.7998h-1.8848v11.6006h-2.001v-19.4014h2.001v3.8574h1.9434v3.8857h1.8555v-3.8857h1.9434Z"/>
        <path class="cls-1" d="m124.828,248.5273h1.9434v-1.9434h2.001v19.4014h-2.001v-15.457h-1.9434v-2.001Z"/>
        <path class="cls-1" d="m140.4003,246.584v1.9434h1.9141v15.5439h-1.9141v1.9141h-4.002v-1.9141h-1.9141v-15.5439h1.9141v-1.9434h4.002Zm-3.9141,17.4004h3.8271v-15.3994h-3.8271v15.3994Z"/>
        <path class="cls-1" d="m144.1698,244.6699h2.001v1.9141h1.9141v1.9434h1.9141v17.458h-1.9141v1.9424h-1.9141v1.9434h-2.001v-2.0303h1.9141v-1.9141h1.9141v-17.3418h-1.9141v-1.9141h-1.9141v-2.001Z"/>
      </g>
      <g>
        <g>
          <rect class="cls-1" x="85.8118" y="72.2391" width="71.0732" height="71.0732"/>
          <rect class="cls-1" x="96.2637" y="65.2712" width="49.4726" height="12.5423"/>
          <rect class="cls-1" x="102.5349" y="59" width="36.2334" height="12.5423"/>
          <rect class="cls-1" x="102.5349" y="141.9188" width="36.2334" height="12.5423"/>
          <rect class="cls-1" x="144.3427" y="100.8078" width="36.2334" height="12.5423" transform="translate(269.5384 -55.3804) rotate(90)"/>
          <rect class="cls-1" x="61.4239" y="100.8078" width="36.2334" height="12.5423" transform="translate(186.6196 27.5384) rotate(90)"/>
          <rect class="cls-1" x="96.2637" y="137.0412" width="49.4726" height="12.5423"/>
          <rect class="cls-1" x="59.6819" y="101.853" width="49.4726" height="12.5423" transform="translate(192.5423 23.706) rotate(90)"/>
          <rect class="cls-1" x="133.5423" y="101.853" width="49.4726" height="12.5423" transform="translate(266.4028 -50.1545) rotate(90)"/>
        </g>
        <g>
          <rect class="cls-2" x="104.6253" y="93.0981" width="16.0263" height="23.781"/>
          <rect class="cls-2" x="107.4125" y="88.9623" width="10.4519" height="7.2377"/>
          <rect class="cls-2" x="107.4125" y="113.7772" width="10.4519" height="7.2377"/>
          <rect class="cls-2" x="113.2453" y="102.5498" width="15.5093" height="4.8776" transform="translate(225.9886 -16.0114) rotate(90)"/>
          <rect class="cls-2" x="96.5222" y="102.5498" width="15.5093" height="4.8776" transform="translate(209.2655 .7117) rotate(90)"/>
        </g>
        <g>
          <rect class="cls-2" x="131.8003" y="91.0526" width="16.0263" height="16.0263"/>
          <rect class="cls-2" x="134.5875" y="88.2655" width="10.4519" height="4.8776"/>
          <rect class="cls-2" x="134.5875" y="104.9886" width="10.4519" height="4.8776"/>
          <rect class="cls-2" x="142.9491" y="96.627" width="10.4519" height="4.8776" transform="translate(247.2409 -49.1093) rotate(90)"/>
          <rect class="cls-2" x="126.226" y="96.627" width="10.4519" height="4.8776" transform="translate(230.5178 -32.3861) rotate(90)"/>
        </g>
        <g>
          <rect class="cls-1" x="112.3575" y="96.627" width="12.4075" height="16.0263"/>
          <rect class="cls-1" x="114.5153" y="93.8398" width="8.0918" height="4.8776"/>
          <rect class="cls-1" x="114.5153" y="110.5629" width="8.0918" height="4.8776"/>
          <rect class="cls-1" x="119.8087" y="102.7521" width="10.4519" height="3.7762" transform="translate(229.6749 -20.3945) rotate(90)"/>
          <rect class="cls-1" x="106.8618" y="102.7521" width="10.4519" height="3.7762" transform="translate(216.7279 -7.4476) rotate(90)"/>
        </g>
        <g>
          <rect class="cls-1" x="140.9261" y="91.7494" width="12.4075" height="16.0263"/>
          <rect class="cls-1" x="143.084" y="88.9623" width="8.0918" height="4.8776"/>
          <rect class="cls-1" x="143.084" y="105.6854" width="8.0918" height="4.8776"/>
          <rect class="cls-1" x="148.3774" y="97.8745" width="10.4519" height="3.7762" transform="translate(253.3659 -53.8407) rotate(90)"/>
          <rect class="cls-1" x="135.4304" y="97.8745" width="10.4519" height="3.7762" transform="translate(240.419 -40.8938) rotate(90)"/>
        </g>
      </g>
    </g>
  </g>
</svg>