<?xml version="1.0" encoding="UTF-8"?>
<svg id="_레이어_2" data-name="레이어 2" xmlns="http://www.w3.org/2000/svg" viewBox="0 0 242 296">
  <defs>
    <style>
      .cls-1, .cls-2 {
        stroke-width: 0px;
      }

      .cls-2 {
        fill: #fff;
      }
    </style>
  </defs>
  <g id="_레이어_1-2" data-name="레이어 1">
    <g>
      <rect class="cls-2" width="242" height="296"/>
      <g>
        <path class="cls-1" d="m100.7725,207.584v1.9434h1.9141v15.5439h-1.9141v1.9141h-4.002v-1.9141h-1.9141v-15.5439h1.9141v-1.9434h4.002Zm-3.915,17.4004h3.8281v-15.3994h-3.8281v15.3994Z"/>
        <path class="cls-1" d="m106.4561,215.3848v-2.001h5.8877v5.8877h-1.9434v1.9131h-1.9141v3.7998h3.8574v2.001h-5.8877v-5.8584h1.9434v-1.9434h1.9424v-3.7988h-3.8857Z"/>
        <path class="cls-1" d="m122.0293,213.3838v1.9434h1.9141v9.7441h-1.9141v1.9141h-4.002v-1.9141h-1.9141v-9.7441h1.9141v-1.9434h4.002Zm-3.9141,11.6006h3.8271v-9.5996h-3.8271v9.5996Z"/>
        <path class="cls-1" d="m129.7148,226.9854h-2.002v-13.6016h5.916v1.9434h1.9141v11.6582h-2.001v-11.6006h-3.8271v11.6006Z"/>
        <path class="cls-1" d="m145.2285,213.3838v1.9434h1.9141v5.8574h-5.8281v3.7998h3.8271v-1.9141h2.001v2.001h-1.9141v1.9141h-4.002v-1.9141h-1.9141v-9.7441h1.9141v-1.9434h4.002Zm-3.9141,5.7998h3.8271v-3.7988h-3.8271v3.7988Z"/>
      </g>
      <g>
        <g>
          <rect class="cls-1" x="72.5417" y="56.2318" width="97.8762" height="97.8762"/>
          <rect class="cls-1" x="86.9353" y="46.6361" width="68.1295" height="17.2723"/>
          <rect class="cls-1" x="95.5714" y="38" width="49.8977" height="17.2723"/>
          <rect class="cls-1" x="95.5714" y="152.1889" width="49.8977" height="17.2723"/>
          <rect class="cls-1" x="153.1456" y="95.5742" width="49.8977" height="17.2723" transform="translate(282.3048 -73.8841) rotate(90)"/>
          <rect class="cls-1" x="38.9567" y="95.5742" width="49.8977" height="17.2723" transform="translate(168.1159 40.3048) rotate(90)"/>
          <rect class="cls-1" x="86.9353" y="145.4719" width="68.1295" height="17.2723"/>
          <rect class="cls-1" x="36.5578" y="97.0136" width="68.1295" height="17.2723" transform="translate(176.2723 35.0271) rotate(90)"/>
          <rect class="cls-1" x="138.2723" y="97.0136" width="68.1295" height="17.2723" transform="translate(277.9867 -66.6873) rotate(90)"/>
        </g>
        <g>
          <rect class="cls-2" x="98.4501" y="84.957" width="22.0701" height="32.7492"/>
          <rect class="cls-2" x="102.2884" y="79.2615" width="14.3936" height="9.9671"/>
          <rect class="cls-2" x="102.2884" y="113.4346" width="14.3936" height="9.9671"/>
          <rect class="cls-2" x="110.3209" y="97.9731" width="21.3582" height="6.717" transform="translate(222.3316 -19.6684) rotate(90)"/>
          <rect class="cls-2" x="87.2912" y="97.9731" width="21.3582" height="6.717" transform="translate(199.302 3.3613) rotate(90)"/>
        </g>
        <g>
          <rect class="cls-2" x="135.8733" y="82.1402" width="22.0701" height="22.0701"/>
          <rect class="cls-2" x="139.7116" y="78.302" width="14.3936" height="6.717"/>
          <rect class="cls-2" x="139.7116" y="101.3316" width="14.3936" height="6.717"/>
          <rect class="cls-2" x="151.2265" y="89.8168" width="14.3936" height="6.717" transform="translate(251.5985 -65.2479) rotate(90)"/>
          <rect class="cls-2" x="128.1968" y="89.8168" width="14.3936" height="6.717" transform="translate(228.5688 -42.2183) rotate(90)"/>
        </g>
        <g>
          <rect class="cls-1" x="93.0982" y="89.8168" width="17.0865" height="22.0701"/>
          <rect class="cls-1" x="96.0698" y="85.9785" width="11.1434" height="6.717"/>
          <rect class="cls-1" x="96.0698" y="109.0082" width="11.1434" height="6.717"/>
          <rect class="cls-1" x="103.3594" y="98.2517" width="14.3936" height="5.2003" transform="translate(211.4081 -9.7044) rotate(90)"/>
          <rect class="cls-1" x="85.53" y="98.2517" width="14.3936" height="5.2003" transform="translate(193.5786 8.1251) rotate(90)"/>
        </g>
        <g>
          <rect class="cls-1" x="131.668" y="85.1316" width="16.6317" height="18.0066"/>
          <rect class="cls-1" x="134.5605" y="82" width="10.8468" height="5.4803"/>
          <rect class="cls-1" x="134.5605" y="100.7895" width="10.8468" height="5.4803"/>
          <rect class="cls-1" x="142.7896" y="91.604" width="11.7434" height="5.0618" transform="translate(242.7962 -54.5264) rotate(90)"/>
          <rect class="cls-1" x="125.4348" y="91.604" width="11.7434" height="5.0618" transform="translate(225.4413 -37.1716) rotate(90)"/>
        </g>
      </g>
    </g>
  </g>
</svg>