<?xml version="1.0" encoding="UTF-8"?>
<svg id="_레이어_2" data-name="레이어 2" xmlns="http://www.w3.org/2000/svg" viewBox="0 0 182 400.4611">
  <defs>
    <style>
      .cls-1, .cls-2 {
        stroke-width: 0px;
      }

      .cls-2 {
        fill: #fff;
      }
    </style>
  </defs>
  <g id="_레이어_1-2" data-name="레이어 1">
    <rect class="cls-1" x="10" y="103" width="37" height="37"/>
    <rect class="cls-1" x="135" y="255" width="37" height="37"/>
    <rect class="cls-1" x="74" y="168" width="20" height="20"/>
    <rect class="cls-1" x="162" y="17" width="20" height="20"/>
    <rect class="cls-1" width="20" height="20"/>
    <g>
      <g>
        <rect class="cls-1" x="26.6752" y="342.3559" width="50.2265" height="50.2265"/>
        <rect class="cls-1" x="34.0615" y="337.4318" width="34.9616" height="8.8635"/>
        <rect class="cls-1" x="38.4933" y="333" width="25.6057" height="8.8635"/>
        <rect class="cls-1" x="38.4933" y="391.5976" width="25.6057" height="8.8635"/>
        <rect class="cls-1" x="68.0383" y="362.545" width="25.6057" height="8.8635" transform="translate(447.8179 286.1357) rotate(90)"/>
        <rect class="cls-1" x="9.4407" y="362.545" width="25.6057" height="8.8635" transform="translate(389.2203 344.7333) rotate(90)"/>
        <rect class="cls-1" x="34.0615" y="388.1507" width="34.9616" height="8.8635"/>
        <rect class="cls-1" x="8.2096" y="363.2836" width="34.9616" height="8.8635" transform="translate(393.4058 342.025) rotate(90)"/>
        <rect class="cls-1" x="60.4058" y="363.2836" width="34.9616" height="8.8635" transform="translate(445.602 289.8288) rotate(90)"/>
      </g>
      <g>
        <rect class="cls-2" x="39.9705" y="357.0967" width="11.3256" height="16.8057"/>
        <rect class="cls-2" x="41.9402" y="354.1739" width="7.3863" height="5.1148"/>
        <rect class="cls-2" x="41.9402" y="371.7103" width="7.3863" height="5.1148"/>
        <rect class="cls-2" x="46.0622" y="363.7761" width="10.9602" height="3.4469" transform="translate(417.0418 313.9572) rotate(90)"/>
        <rect class="cls-2" x="34.2442" y="363.7761" width="10.9602" height="3.4469" transform="translate(405.2238 325.7752) rotate(90)"/>
      </g>
      <g>
        <rect class="cls-2" x="59.1748" y="355.6512" width="11.3256" height="11.3256"/>
        <rect class="cls-2" x="61.1444" y="353.6815" width="7.3863" height="3.4469"/>
        <rect class="cls-2" x="61.1444" y="365.4995" width="7.3863" height="3.4469"/>
        <rect class="cls-2" x="67.0534" y="359.5905" width="7.3863" height="3.4469" transform="translate(432.0605 290.5674) rotate(90)"/>
        <rect class="cls-2" x="55.2354" y="359.5905" width="7.3863" height="3.4469" transform="translate(420.2425 302.3854) rotate(90)"/>
      </g>
      <g>
        <rect class="cls-1" x="45.4347" y="359.5905" width="8.7682" height="11.3256"/>
        <rect class="cls-1" x="46.9597" y="357.6208" width="5.7184" height="3.4469"/>
        <rect class="cls-1" x="46.9597" y="369.4389" width="5.7184" height="3.4469"/>
        <rect class="cls-1" x="50.7004" y="363.919" width="7.3863" height="2.6686" transform="translate(419.6469 310.8598) rotate(90)"/>
        <rect class="cls-1" x="41.551" y="363.919" width="7.3863" height="2.6686" transform="translate(410.4974 320.0092) rotate(90)"/>
      </g>
      <g>
        <rect class="cls-1" x="65.6238" y="356.1436" width="8.7682" height="11.3256"/>
        <rect class="cls-1" x="67.1487" y="354.1739" width="5.7184" height="3.4469"/>
        <rect class="cls-1" x="67.1487" y="365.9919" width="5.7184" height="3.4469"/>
        <rect class="cls-1" x="70.8895" y="360.4721" width="7.3863" height="2.6686" transform="translate(436.3891 287.2237) rotate(90)"/>
        <rect class="cls-1" x="61.7401" y="360.4721" width="7.3863" height="2.6686" transform="translate(427.2396 296.3732) rotate(90)"/>
      </g>
    </g>
  </g>
</svg>