<?xml version="1.0" encoding="UTF-8"?>
<svg id="_레이어_2" data-name="레이어 2" xmlns="http://www.w3.org/2000/svg" viewBox="0 0 535 150.3064">
  <defs>
    <style>
      .cls-1, .cls-2 {
        stroke-width: 0px;
      }

      .cls-2 {
        fill: #fff;
      }
    </style>
  </defs>
  <g id="_레이어_1-2" data-name="레이어 1">
    <polygon class="cls-1" points="535 102.1215 0 100.1215 0 20.1495 535 22.1495 535 102.1215"/>
    <polygon class="cls-1" points="526.5192 112.1963 9.4231 110.1963 9.4231 30.2243 526.5192 32.2243 526.5192 112.1963"/>
    <polygon class="cls-1" points="526.5192 92.9626 9.4231 90.9626 9.4231 10.9907 526.5192 12.9907 526.5192 92.9626"/>
    <polygon class="cls-1" points="517.0962 81.972 18.8462 79.972 18.8462 0 517.0962 2 517.0962 81.972"/>
    <polygon class="cls-1" points="517.0962 120.4393 18.8462 118.4393 18.8462 38.4673 517.0962 40.4673 517.0962 120.4393"/>
    <rect class="cls-1" x="388.0289" y="118.3064" width="23" height="12"/>
    <rect class="cls-1" x="375.0289" y="130.3064" width="20" height="11"/>
    <rect class="cls-1" x="367.0289" y="141.3064" width="9" height="9"/>
    <g>
      <path class="cls-2" d="m104.2345,49.5301h4.7881v2.4844h-7.2725v-24.084h2.4844v21.5996Z"/>
      <path class="cls-2" d="m118.7062,35.1297v2.4121h2.376v7.2725h-7.2354v4.7158h4.752v-2.376h2.4834v2.4844h-2.376v2.376h-4.9678v-2.376h-2.376v-12.0967h2.376v-2.4121h4.9678Zm-4.8594,7.2002h4.752v-4.7158h-4.752v4.7158Z"/>
      <path class="cls-2" d="m125.7618,35.1297h2.4121v-4.7881h2.4844v4.7881h2.4121v2.4844h-2.4121v14.4004h-2.4844v-14.4004h-2.4121v-2.4844Z"/>
      <path class="cls-2" d="m159.4572,35.1297v2.4121h2.376v14.4727h-2.4834v-14.4004h-4.7158v14.4004h-2.4844v-14.4004h-4.7158v14.4004h-2.4844v-16.8848h7.3086v2.4121h2.2676v-2.4121h4.9316Z"/>
      <path class="cls-2" d="m173.8927,35.1297v2.4121h2.376v7.2725h-7.2354v4.7158h4.752v-2.376h2.4834v2.4844h-2.376v2.376h-4.9678v-2.376h-2.376v-12.0967h2.376v-2.4121h4.9678Zm-4.8594,7.2002h4.752v-4.7158h-4.752v4.7158Z"/>
      <path class="cls-2" d="m195.4923,35.1297v2.4121h2.376v7.2725h-7.2354v4.7158h4.752v-2.376h2.4834v2.4844h-2.376v2.376h-4.9678v-2.376h-2.376v-12.0967h2.376v-2.4121h4.9678Zm-4.8594,7.2002h4.752v-4.7158h-4.752v4.7158Z"/>
      <path class="cls-2" d="m212.2687,35.1297v4.8965h-2.376v4.7158h2.376v7.2725h-2.4834v-7.2002h-4.752v7.2002h-2.4844v-7.2725h2.376v-4.7158h-2.376v-4.8965h2.4844v4.7881h4.752v-4.7881h2.4834Z"/>
      <path class="cls-2" d="m226.6681,49.6385h-2.376v2.376h-4.8594v4.8232h-2.4844v-21.708h7.3438v2.4121h2.376v12.0967Zm-7.2354-12.0244v11.916h4.752v-11.916h-4.752Z"/>
      <path class="cls-2" d="m233.8322,52.0144h-2.4844v-24.084h2.4844v24.084Z"/>
      <path class="cls-2" d="m240.924,35.1297h4.9683v2.4121h2.375v14.4727h-7.3433v-2.376h-2.376v-7.3086h2.376v-2.376h4.8608v-2.3398h-4.8608v-2.4844Zm4.8608,7.3086h-4.7524v7.0918h4.7524v-7.0918Z"/>
      <path class="cls-2" d="m255.4313,32.826h-2.4844v-2.4844h2.4844v2.4844Zm0,19.1885h-2.4844v-16.8848h2.4844v16.8848Z"/>
      <path class="cls-2" d="m262.6324,52.0144h-2.4844v-16.8848h7.3438v2.4121h2.375v14.4727h-2.4824v-14.4004h-4.752v14.4004Z"/>
      <path class="cls-2" d="m284.2321,52.0144h-2.4844v-24.084h2.4844v7.1992h4.8594v2.4121h2.375v14.4727h-2.4824v-14.4004h-4.752v14.4004Z"/>
      <path class="cls-2" d="m303.4918,35.1297v2.4121h2.375v12.0967h-2.375v2.376h-4.9688v-2.376h-2.375v-12.0967h2.375v-2.4121h4.9688Zm-4.8594,14.4004h4.752v-11.916h-4.752v11.916Z"/>
      <path class="cls-2" d="m329.8063,35.1297v4.8965h-2.375v7.2002h-2.377v4.7881h-2.4824v-4.7881h-4.7168v4.7881h-2.502v-4.7881h-2.4297v-7.2002h-2.377v-4.8965h2.4844v4.7881h2.3945v7.2002h2.3223v-2.376h2.4121v-4.7158h-2.4121v-4.8965h2.4844v4.7881h2.3926v7.2002h2.3223v-7.2002h2.377v-4.7881h2.4824Z"/>
      <path class="cls-2" d="m356.2672,35.1297v2.4121h2.375v14.4727h-2.4824v-14.4004h-4.7168v14.4004h-2.4844v-14.4004h-4.7148v14.4004h-2.4844v-16.8848h7.3086v2.4121h2.2676v-2.4121h4.9316Z"/>
      <path class="cls-2" d="m365.734,35.1297h4.9688v2.4121h2.375v14.4727h-7.3438v-2.376h-2.375v-7.3086h2.375v-2.376h4.8613v-2.3398h-4.8613v-2.4844Zm4.8613,7.3086h-4.752v7.0918h4.752v-7.0918Z"/>
      <path class="cls-2" d="m380.2418,52.0144h-2.4844v-16.8848h7.3438v2.4121h2.377v14.4727h-2.4844v-14.4004h-4.752v14.4004Z"/>
      <path class="cls-2" d="m404.2535,35.1297v4.8965h-2.377v7.2002h-2.375v4.7881h-2.4473v4.8232h-2.5215v-4.8955h2.4121v-4.7158h-2.4121v-7.2002h-2.375v-4.8965h2.4844v4.7881h2.4121v7.2002h2.3398v-7.2002h2.375v-4.7881h2.4844Z"/>
      <path class="cls-2" d="m423.5133,35.1297v2.4121h2.375v12.0967h-2.375v2.376h-4.9688v-2.376h-2.375v-12.0967h2.375v-2.4121h4.9688Zm-4.8594,14.4004h4.752v-11.916h-4.752v11.916Z"/>
      <path class="cls-2" d="m437.8414,27.9304v2.4834h-4.7871v4.7158h2.375v2.4844h-2.375v14.4004h-2.4844v-14.4004h-2.377v-2.4844h2.377v-4.7881h2.375v-2.4111h4.8965Z"/>
      <path class="cls-2" d="m127.0402,71.1297v2.4121h2.376v14.4727h-2.4834v-14.4004h-4.7158v14.4004h-2.4844v-14.4004h-4.7158v14.4004h-2.4844v-16.8848h7.3086v2.4121h2.2676v-2.4121h4.9316Z"/>
      <path class="cls-2" d="m146.2277,71.1297v4.8965h-2.376v7.2002h-2.376v4.7881h-2.4473v4.8232h-2.5205v-4.8955h2.4121v-4.7158h-2.4121v-7.2002h-2.376v-4.8965h2.4844v4.7881h2.4121v7.2002h2.3398v-7.2002h2.376v-4.7881h2.4834Z"/>
      <path class="cls-2" d="m165.4161,63.9304v2.4834h-4.7881v4.7158h2.376v2.4844h-2.376v14.4004h-2.4844v-14.4004h-2.376v-2.4844h2.376v-4.7881h2.376v-2.4111h4.8965Z"/>
      <path class="cls-2" d="m175.0646,71.1297v2.4844h-2.4121v2.4121h-2.4121v11.9883h-2.4844v-16.8848h2.4844v2.4121h2.3398v-2.4121h2.4844Z"/>
      <path class="cls-2" d="m179.8517,68.826h-2.4844v-2.4844h2.4844v2.4844Zm0,19.1885h-2.4844v-16.8848h2.4844v16.8848Z"/>
      <path class="cls-2" d="m191.9113,71.1297v2.4121h2.376v7.2725h-7.2354v4.7158h4.752v-2.376h2.4834v2.4844h-2.376v2.376h-4.9678v-2.376h-2.376v-12.0967h2.376v-2.4121h4.9678Zm-4.8594,7.2002h4.752v-4.7158h-4.752v4.7158Z"/>
      <path class="cls-2" d="m201.4513,88.0144h-2.4844v-16.8848h7.3438v2.4121h2.376v14.4727h-2.4834v-14.4004h-4.752v14.4004Z"/>
      <path class="cls-2" d="m220.6036,71.1297v-7.1992h2.4834v24.084h-7.3438v-2.376h-2.376v-12.0967h2.376v-2.4121h4.8604Zm0,2.4844h-4.752v11.916h4.752v-11.916Z"/>
      <path class="cls-2" d="m230.2511,78.3299h4.8594v2.4121h2.376v4.8965h-2.376v2.376h-4.9678v-2.376h-2.376v-2.4844h2.4844v2.376h4.752v-4.7158h-4.8604v-2.376h-2.376v-4.8965h2.376v-2.4121h4.9678v2.4121h2.376v2.4844h-2.4834v-2.4121h-4.752v4.7158Z"/>
      <path class="cls-2" d="m251.7418,71.1297h4.9688v2.4121h2.375v14.4727h-7.3438v-2.376h-2.375v-7.3086h2.375v-2.376h4.8613v-2.3398h-4.8613v-2.4844Zm4.8613,7.3086h-4.752v7.0918h4.752v-7.0918Z"/>
      <path class="cls-2" d="m271.0758,71.1297v2.4844h-2.4121v2.4121h-2.4121v11.9883h-2.4844v-16.8848h2.4844v2.4121h2.3398v-2.4121h2.4844Z"/>
      <path class="cls-2" d="m280.7223,71.1297v2.4121h2.375v7.2725h-7.2344v4.7158h4.752v-2.376h2.4824v2.4844h-2.375v2.376h-4.9688v-2.376h-2.375v-12.0967h2.375v-2.4121h4.9688Zm-4.8594,7.2002h4.752v-4.7158h-4.752v4.7158Z"/>
      <path class="cls-2" d="m297.3532,71.1297h4.9688v2.4121h2.375v14.4727h-7.3438v-2.376h-2.375v-7.3086h2.375v-2.376h4.8613v-2.3398h-4.8613v-2.4844Zm4.8613,7.3086h-4.752v7.0918h4.752v-7.0918Z"/>
      <path class="cls-2" d="m316.6871,71.1297v2.4844h-2.4121v2.4121h-2.4121v11.9883h-2.4844v-16.8848h2.4844v2.4121h2.3398v-2.4121h2.4844Z"/>
      <path class="cls-2" d="m326.3336,71.1297v2.4121h2.375v12.0967h-2.375v2.376h-4.9688v-2.376h-2.375v-12.0967h2.375v-2.4121h4.9688Zm-4.8594,14.4004h4.752v-11.916h-4.752v11.916Z"/>
      <path class="cls-2" d="m333.3903,71.1297h2.4844v14.4004h4.752v-14.4004h2.4824v16.8848h-7.3438v-2.376h-2.375v-14.5088Z"/>
      <path class="cls-2" d="m350.2731,88.0144h-2.4844v-16.8848h7.3438v2.4121h2.377v14.4727h-2.4844v-14.4004h-4.752v14.4004Z"/>
      <path class="cls-2" d="m369.4254,71.1297v-7.1992h2.4824v24.084h-7.3438v-2.376h-2.375v-12.0967h2.375v-2.4121h4.8613Zm0,2.4844h-4.752v11.916h4.752v-11.916Z"/>
      <path class="cls-2" d="m395.8844,71.1297v4.8965h-2.377v7.2002h-2.375v4.7881h-2.4473v4.8232h-2.5215v-4.8955h2.4121v-4.7158h-2.4121v-7.2002h-2.375v-4.8965h2.4844v4.7881h2.4121v7.2002h2.3398v-7.2002h2.375v-4.7881h2.4844Z"/>
      <path class="cls-2" d="m407.9449,71.1297v2.4121h2.375v12.0967h-2.375v2.376h-4.9688v-2.376h-2.375v-12.0967h2.375v-2.4121h4.9688Zm-4.8594,14.4004h4.752v-11.916h-4.752v11.916Z"/>
      <path class="cls-2" d="m414.9996,71.1297h2.4844v14.4004h4.752v-14.4004h2.4844v16.8848h-7.3438v-2.376h-2.377v-14.5088Z"/>
    </g>
  </g>
</svg>