<?xml version="1.0" encoding="UTF-8"?>
<svg id="_레이어_2" data-name="레이어 2" xmlns="http://www.w3.org/2000/svg" viewBox="0 0 1386 600">
  <defs>
    <style>
      .cls-1 {
        font-family: Handjet-SemiBold, Handjet;
        font-size: 48px;
        font-weight: 600;
        opacity: .99;
      }

      .cls-1, .cls-2 {
        fill: #fff;
      }

      .cls-3, .cls-2 {
        stroke-width: 0px;
      }
    </style>
  </defs>
  <g id="_레이어_1-2" data-name="레이어 1">
    <g>
      <g>
        <polygon class="cls-3" points="1158 297.0186 583.1829 295.3065 583.1829 17.25 1158 18.9622 1158 297.0186"/>
        <polygon class="cls-3" points="1150.7396 305.6436 591.25 303.9314 591.25 25.8749 1150.7396 27.5871 1150.7396 305.6436"/>
        <polygon class="cls-3" points="1150.7396 289.1778 591.25 287.4656 591.25 9.4091 1150.7396 11.1213 1150.7396 289.1778"/>
        <polygon class="cls-3" points="1142.6726 279.7687 599.3171 278.0565 599.3171 0 1142.6726 1.7122 1142.6726 279.7687"/>
        <polygon class="cls-3" points="1142.6726 312.7004 599.3171 310.9882 599.3171 32.9318 1142.6726 34.6439 1142.6726 312.7004"/>
        <rect class="cls-3" x="605.4415" y="310.6122" width="19.6902" height="10.2732"/>
        <rect class="cls-3" x="594.3122" y="320.8854" width="17.122" height="9.4171"/>
        <rect class="cls-3" x="587.4634" y="330.3024" width="7.7049" height="7.7049"/>
        <text class="cls-1" transform="translate(617.6804 77.5298)"><tspan x="0" y="0">Are you wondering how harmful </tspan><tspan x="0" y="60">this is for you? I&apos;ll compare it to </tspan><tspan x="0" y="120">cigarettes to make it easier for </tspan><tspan x="0" y="180">you to understand ...</tspan></text>
      </g>
      <g>
        <g>
          <rect class="cls-3" x="253.446" y="216.5523" width="223.404" height="223.404"/>
          <rect class="cls-3" x="286.2995" y="194.6499" width="155.5067" height="39.4242"/>
          <rect class="cls-3" x="306.0116" y="174.9378" width="113.8922" height="39.4242"/>
          <rect class="cls-3" x="306.0116" y="435.5758" width="113.8922" height="39.4242"/>
          <rect class="cls-3" x="437.4257" y="306.3519" width="113.8922" height="39.4242" transform="translate(820.4359 -168.3078) rotate(90)"/>
          <rect class="cls-3" x="176.7878" y="306.3519" width="113.8922" height="39.4242" transform="translate(559.7979 92.3301) rotate(90)"/>
          <rect class="cls-3" x="286.2995" y="420.2441" width="155.5067" height="39.4242"/>
          <rect class="cls-3" x="171.3122" y="309.6373" width="155.5067" height="39.4242" transform="translate(578.4149 80.2839) rotate(90)"/>
          <rect class="cls-3" x="403.4771" y="309.6373" width="155.5067" height="39.4242" transform="translate(810.5798 -151.8811) rotate(90)"/>
        </g>
        <g>
          <rect class="cls-2" x="312.5823" y="282.118" width="50.3754" height="74.7506"/>
          <rect class="cls-2" x="321.3433" y="269.1179" width="32.8535" height="22.7502"/>
          <rect class="cls-2" x="321.3433" y="347.1185" width="32.8535" height="22.7502"/>
          <rect class="cls-2" x="339.6777" y="311.8275" width="48.7504" height="15.3316" transform="translate(683.5462 -44.5595) rotate(90)"/>
          <rect class="cls-2" x="287.112" y="311.8275" width="48.7504" height="15.3316" transform="translate(630.9805 8.0061) rotate(90)"/>
        </g>
        <g>
          <rect class="cls-2" x="398.0015" y="275.6886" width="50.3754" height="50.3754"/>
          <rect class="cls-2" x="406.7624" y="266.9277" width="32.8535" height="15.3316"/>
          <rect class="cls-2" x="406.7624" y="319.4933" width="32.8535" height="15.3316"/>
          <rect class="cls-2" x="433.0453" y="293.2105" width="32.8535" height="15.3316" transform="translate(750.3483 -148.5957) rotate(90)"/>
          <rect class="cls-2" x="380.4796" y="293.2105" width="32.8535" height="15.3316" transform="translate(697.7827 -96.0301) rotate(90)"/>
        </g>
        <g>
          <rect class="cls-3" x="336.8869" y="293.2105" width="39.0003" height="50.3754"/>
          <rect class="cls-3" x="343.6695" y="284.4496" width="25.435" height="15.3316"/>
          <rect class="cls-3" x="343.6695" y="337.0152" width="25.435" height="15.3316"/>
          <rect class="cls-3" x="360.3083" y="312.4634" width="32.8535" height="11.8697" transform="translate(695.1332 -58.3368) rotate(90)"/>
          <rect class="cls-3" x="319.6123" y="312.4634" width="32.8535" height="11.8697" transform="translate(654.4372 -17.6408) rotate(90)"/>
        </g>
        <g>
          <rect class="cls-3" x="426.6865" y="277.8788" width="39.0003" height="50.3754"/>
          <rect class="cls-3" x="433.4692" y="269.1179" width="25.435" height="15.3316"/>
          <rect class="cls-3" x="433.4692" y="321.6835" width="25.435" height="15.3316"/>
          <rect class="cls-3" x="450.1079" y="297.1317" width="32.8535" height="11.8697" transform="translate(769.6012 -163.4681) rotate(90)"/>
          <rect class="cls-3" x="409.4119" y="297.1317" width="32.8535" height="11.8697" transform="translate(728.9052 -122.7721) rotate(90)"/>
        </g>
      </g>
      <g>
        <g>
          <rect class="cls-3" x="73.8174" y="382.562" width="78.1752" height="78.1752"/>
          <rect class="cls-3" x="85.3137" y="374.8978" width="54.4161" height="13.7956"/>
          <rect class="cls-3" x="92.2115" y="368" width="39.854" height="13.7956"/>
          <rect class="cls-3" x="92.2115" y="459.2044" width="39.854" height="13.7956"/>
          <rect class="cls-3" x="138.1969" y="413.9854" width="39.854" height="13.7956" transform="translate(579.0072 262.7593) rotate(90)"/>
          <rect class="cls-3" x="46.9926" y="413.9854" width="39.854" height="13.7956" transform="translate(487.8028 353.9636) rotate(90)"/>
          <rect class="cls-3" x="85.3137" y="453.8394" width="54.4161" height="13.7956"/>
          <rect class="cls-3" x="45.0765" y="415.135" width="54.4161" height="13.7956" transform="translate(494.3174 349.7483) rotate(90)"/>
          <rect class="cls-3" x="126.3174" y="415.135" width="54.4161" height="13.7956" transform="translate(575.5583 268.5074) rotate(90)"/>
        </g>
        <g>
          <rect class="cls-2" x="94.5108" y="405.5053" width="17.6277" height="26.1573"/>
          <rect class="cls-2" x="97.5765" y="400.9562" width="11.4964" height="7.9609"/>
          <rect class="cls-2" x="97.5765" y="428.2508" width="11.4964" height="7.9609"/>
          <rect class="cls-2" x="103.9922" y="415.9015" width="17.0591" height="5.365" transform="translate(531.1057 306.0622) rotate(90)"/>
          <rect class="cls-2" x="85.598" y="415.9015" width="17.0591" height="5.365" transform="translate(512.7115 324.4563) rotate(90)"/>
        </g>
        <g>
          <rect class="cls-2" x="124.4013" y="403.2555" width="17.6277" height="17.6277"/>
          <rect class="cls-2" x="127.467" y="400.1898" width="11.4964" height="5.365"/>
          <rect class="cls-2" x="127.467" y="418.5839" width="11.4964" height="5.365"/>
          <rect class="cls-2" x="136.6641" y="409.3869" width="11.4964" height="5.365" transform="translate(554.4816 269.6571) rotate(90)"/>
          <rect class="cls-2" x="118.2699" y="409.3869" width="11.4964" height="5.365" transform="translate(536.0875 288.0512) rotate(90)"/>
        </g>
        <g>
          <rect class="cls-3" x="103.0156" y="409.3869" width="13.6473" height="17.6277"/>
          <rect class="cls-3" x="105.3891" y="406.3212" width="8.9004" height="5.365"/>
          <rect class="cls-3" x="105.3891" y="424.7153" width="8.9004" height="5.365"/>
          <rect class="cls-3" x="111.2114" y="416.124" width="11.4964" height="4.1535" transform="translate(535.1603 301.2411) rotate(90)"/>
          <rect class="cls-3" x="96.9708" y="416.124" width="11.4964" height="4.1535" transform="translate(520.9197 315.4818) rotate(90)"/>
        </g>
        <g>
          <rect class="cls-3" x="134.439" y="404.0219" width="13.6473" height="17.6277"/>
          <rect class="cls-3" x="136.8124" y="400.9562" width="8.9004" height="5.365"/>
          <rect class="cls-3" x="136.8124" y="419.3504" width="8.9004" height="5.365"/>
          <rect class="cls-3" x="142.6348" y="410.759" width="11.4964" height="4.1535" transform="translate(561.2187 264.4528) rotate(90)"/>
          <rect class="cls-3" x="128.3941" y="410.759" width="11.4964" height="4.1535" transform="translate(546.9781 278.6935) rotate(90)"/>
        </g>
      </g>
      <g>
        <g>
          <rect class="cls-3" x="1237.051" y="383.562" width="78.1752" height="78.1752" transform="translate(2552.2771 845.2993) rotate(180)"/>
          <rect class="cls-3" x="1249.3137" y="375.8978" width="54.4161" height="13.7956" transform="translate(2553.0435 765.5912) rotate(180)"/>
          <rect class="cls-3" x="1256.978" y="369" width="39.854" height="13.7956" transform="translate(2553.8099 751.7956) rotate(180)"/>
          <rect class="cls-3" x="1256.978" y="460.2044" width="39.854" height="13.7956" transform="translate(2553.8099 934.2044) rotate(180)"/>
          <rect class="cls-3" x="1210.9926" y="414.9854" width="39.854" height="13.7956" transform="translate(1652.8028 -809.0364) rotate(90)"/>
          <rect class="cls-3" x="1302.1969" y="414.9854" width="39.854" height="13.7956" transform="translate(1744.0072 -900.2407) rotate(90)"/>
          <rect class="cls-3" x="1249.3137" y="454.8394" width="54.4161" height="13.7956" transform="translate(2553.0435 923.4745) rotate(180)"/>
          <rect class="cls-3" x="1289.551" y="416.135" width="54.4161" height="13.7956" transform="translate(1739.7918 -893.7261) rotate(90)"/>
          <rect class="cls-3" x="1208.3101" y="416.135" width="54.4161" height="13.7956" transform="translate(1658.551 -812.4853) rotate(90)"/>
        </g>
        <g>
          <rect class="cls-2" x="1276.905" y="406.5053" width="17.6277" height="26.1573" transform="translate(2571.4377 839.1679) rotate(180)"/>
          <rect class="cls-2" x="1279.9707" y="401.9562" width="11.4964" height="7.9609" transform="translate(2571.4377 811.8733) rotate(180)"/>
          <rect class="cls-2" x="1279.9707" y="429.2508" width="11.4964" height="7.9609" transform="translate(2571.4377 866.4624) rotate(180)"/>
          <rect class="cls-2" x="1267.9922" y="416.9015" width="17.0591" height="5.365" transform="translate(1696.1057 -856.9378) rotate(90)"/>
          <rect class="cls-2" x="1286.3864" y="416.9015" width="17.0591" height="5.365" transform="translate(1714.4999 -875.332) rotate(90)"/>
        </g>
        <g>
          <rect class="cls-2" x="1247.0145" y="406.4556" width="17.6277" height="30.2785" transform="translate(2511.6567 843.1898) rotate(180)"/>
          <rect class="cls-2" x="1250.0802" y="401.1898" width="11.4964" height="9.2152" transform="translate(2511.6567 811.5948) rotate(180)"/>
          <rect class="cls-2" x="1250.0802" y="432.7848" width="11.4964" height="9.2152" transform="translate(2511.6567 874.7848) rotate(180)"/>
          <rect class="cls-2" x="1236.7578" y="418.9124" width="19.7469" height="5.365" transform="translate(1668.2261 -825.0364) rotate(90)"/>
          <rect class="cls-2" x="1255.152" y="418.9124" width="19.7469" height="5.365" transform="translate(1686.6203 -843.4305) rotate(90)"/>
        </g>
        <g>
          <rect class="cls-3" x="1272.3806" y="410.3869" width="13.6473" height="17.6277" transform="translate(2558.4085 838.4015) rotate(180)"/>
          <rect class="cls-3" x="1274.754" y="407.3212" width="8.9004" height="5.365" transform="translate(2558.4085 820.0073) rotate(180)"/>
          <rect class="cls-3" x="1274.754" y="425.7153" width="8.9004" height="5.365" transform="translate(2558.4085 856.7956) rotate(180)"/>
          <rect class="cls-3" x="1266.3357" y="417.124" width="11.4964" height="4.1535" transform="translate(1691.2847 -852.8832) rotate(90)"/>
          <rect class="cls-3" x="1280.5764" y="417.124" width="11.4964" height="4.1535" transform="translate(1705.5253 -867.1238) rotate(90)"/>
        </g>
        <g>
          <rect class="cls-3" x="1240.9572" y="410.0219" width="13.6473" height="17.6277" transform="translate(2495.5618 837.6715) rotate(180)"/>
          <rect class="cls-3" x="1243.3307" y="406.9562" width="8.9004" height="5.365" transform="translate(2495.5618 819.2774) rotate(180)"/>
          <rect class="cls-3" x="1243.3307" y="425.3504" width="8.9004" height="5.365" transform="translate(2495.5618 856.0657) rotate(180)"/>
          <rect class="cls-3" x="1234.9124" y="416.759" width="11.4964" height="4.1535" transform="translate(1659.4963 -821.8248) rotate(90)"/>
          <rect class="cls-3" x="1249.153" y="416.759" width="11.4964" height="4.1535" transform="translate(1673.737 -836.0654) rotate(90)"/>
        </g>
      </g>
      <rect class="cls-3" y="475" width="1386" height="125"/>
    </g>
  </g>
</svg>