<?xml version="1.0" encoding="UTF-8"?>
<svg id="_레이어_2" data-name="레이어 2" xmlns="http://www.w3.org/2000/svg" viewBox="0 0 1243 156.7271">
  <defs>
    <style>
      .cls-1, .cls-2 {
        stroke-width: 0px;
      }

      .cls-2 {
        fill: #fff;
      }
    </style>
  </defs>
  <g id="_레이어_1-2" data-name="레이어 1">
    <rect class="cls-1" y="86.7271" width="51" height="51"/>
    <rect class="cls-1" x="1018" y="47.7271" width="51" height="51"/>
    <rect class="cls-1" x="776" y="7.7271" width="37" height="37"/>
    <rect class="cls-1" x="478" y="108.7271" width="37" height="37"/>
    <rect class="cls-1" x="1142" y="136.7271" width="20" height="20"/>
    <rect class="cls-1" x="316" y="56.7271" width="20" height="20"/>
    <rect class="cls-1" x="406" y="3.7271" width="20" height="20"/>
    <rect class="cls-1" x="682" y="70.7271" width="20" height="20"/>
    <rect class="cls-1" x="25" y="7.7271" width="20" height="20"/>
    <g>
      <g>
        <rect class="cls-1" x="137.6752" y="13.0831" width="50.2265" height="50.2265"/>
        <rect class="cls-1" x="145.0615" y="8.1589" width="34.9616" height="8.8635"/>
        <rect class="cls-1" x="149.4933" y="3.7271" width="25.6057" height="8.8635"/>
        <rect class="cls-1" x="149.4933" y="62.3248" width="25.6057" height="8.8635"/>
        <rect class="cls-1" x="179.0383" y="33.2721" width="25.6057" height="8.8635" transform="translate(229.545 -154.1372) rotate(90)"/>
        <rect class="cls-1" x="120.4407" y="33.2721" width="25.6057" height="8.8635" transform="translate(170.9474 -95.5396) rotate(90)"/>
        <rect class="cls-1" x="145.0615" y="58.8778" width="34.9616" height="8.8635"/>
        <rect class="cls-1" x="119.2096" y="34.0108" width="34.9616" height="8.8635" transform="translate(175.1329 -98.2479) rotate(90)"/>
        <rect class="cls-1" x="171.4058" y="34.0108" width="34.9616" height="8.8635" transform="translate(227.3291 -150.4441) rotate(90)"/>
      </g>
      <g>
        <rect class="cls-2" x="150.9705" y="27.8238" width="11.3256" height="16.8057"/>
        <rect class="cls-2" x="152.9402" y="24.9011" width="7.3863" height="5.1148"/>
        <rect class="cls-2" x="152.9402" y="42.4375" width="7.3863" height="5.1148"/>
        <rect class="cls-2" x="157.0622" y="34.5032" width="10.9602" height="3.4469" transform="translate(198.769 -126.3157) rotate(90)"/>
        <rect class="cls-2" x="145.2442" y="34.5032" width="10.9602" height="3.4469" transform="translate(186.9509 -114.4976) rotate(90)"/>
      </g>
      <g>
        <rect class="cls-2" x="170.1748" y="26.3783" width="11.3256" height="11.3256"/>
        <rect class="cls-2" x="172.1444" y="24.4086" width="7.3863" height="3.4469"/>
        <rect class="cls-2" x="172.1444" y="36.2267" width="7.3863" height="3.4469"/>
        <rect class="cls-2" x="178.0534" y="30.3176" width="7.3863" height="3.4469" transform="translate(213.7877 -149.7055) rotate(90)"/>
        <rect class="cls-2" x="166.2354" y="30.3176" width="7.3863" height="3.4469" transform="translate(201.9697 -137.8875) rotate(90)"/>
      </g>
      <g>
        <rect class="cls-1" x="156.4347" y="30.3176" width="8.7682" height="11.3256"/>
        <rect class="cls-1" x="157.9597" y="28.348" width="5.7184" height="3.4469"/>
        <rect class="cls-1" x="157.9597" y="40.166" width="5.7184" height="3.4469"/>
        <rect class="cls-1" x="161.7004" y="34.6462" width="7.3863" height="2.6686" transform="translate(201.374 -129.4131) rotate(90)"/>
        <rect class="cls-1" x="152.551" y="34.6462" width="7.3863" height="2.6686" transform="translate(192.2246 -120.2637) rotate(90)"/>
      </g>
      <g>
        <rect class="cls-1" x="176.6238" y="26.8707" width="8.7682" height="11.3256"/>
        <rect class="cls-1" x="178.1487" y="24.9011" width="5.7184" height="3.4469"/>
        <rect class="cls-1" x="178.1487" y="36.7191" width="5.7184" height="3.4469"/>
        <rect class="cls-1" x="181.8895" y="31.1992" width="7.3863" height="2.6686" transform="translate(218.1162 -153.0491) rotate(90)"/>
        <rect class="cls-1" x="172.7401" y="31.1992" width="7.3863" height="2.6686" transform="translate(208.9668 -143.8997) rotate(90)"/>
      </g>
    </g>
    <g>
      <g>
        <rect class="cls-1" x="557.2081" y="22.3677" width="24.9127" height="24.9127"/>
        <rect class="cls-1" x="560.8717" y="19.9253" width="17.3412" height="4.3964"/>
        <rect class="cls-1" x="563.0699" y="17.7271" width="12.7006" height="4.3964"/>
        <rect class="cls-1" x="563.0699" y="46.7919" width="12.7006" height="4.3964"/>
        <rect class="cls-1" x="577.7244" y="32.3816" width="12.7006" height="4.3964" transform="translate(618.6545 -549.4949) rotate(90)"/>
        <rect class="cls-1" x="548.6596" y="32.3816" width="12.7006" height="4.3964" transform="translate(589.5897 -520.4301) rotate(90)"/>
        <rect class="cls-1" x="560.8717" y="45.0822" width="17.3412" height="4.3964"/>
        <rect class="cls-1" x="548.049" y="32.748" width="17.3412" height="4.3964" transform="translate(591.6658 -521.7734) rotate(90)"/>
        <rect class="cls-1" x="573.9387" y="32.748" width="17.3412" height="4.3964" transform="translate(617.5554 -547.6631) rotate(90)"/>
      </g>
      <g>
        <rect class="cls-2" x="563.8026" y="29.6792" width="5.6176" height="8.3357"/>
        <rect class="cls-2" x="564.7796" y="28.2295" width="3.6636" height="2.537"/>
        <rect class="cls-2" x="564.7796" y="36.9277" width="3.6636" height="2.537"/>
        <rect class="cls-2" x="566.8241" y="32.9922" width="5.4364" height="1.7097" transform="translate(603.3894 -535.6952) rotate(90)"/>
        <rect class="cls-2" x="560.9623" y="32.9922" width="5.4364" height="1.7097" transform="translate(597.5276 -529.8334) rotate(90)"/>
      </g>
      <g>
        <rect class="cls-2" x="573.3281" y="28.9623" width="5.6176" height="5.6176"/>
        <rect class="cls-2" x="574.305" y="27.9853" width="3.6636" height="1.7097"/>
        <rect class="cls-2" x="574.305" y="33.8471" width="3.6636" height="1.7097"/>
        <rect class="cls-2" x="577.2359" y="30.9162" width="3.6636" height="1.7097" transform="translate(610.8388 -547.2967) rotate(90)"/>
        <rect class="cls-2" x="571.3741" y="30.9162" width="3.6636" height="1.7097" transform="translate(604.977 -541.4349) rotate(90)"/>
      </g>
      <g>
        <rect class="cls-1" x="566.5129" y="30.9162" width="4.3491" height="5.6176"/>
        <rect class="cls-1" x="567.2693" y="29.9392" width="2.8364" height="1.7097"/>
        <rect class="cls-1" x="567.2693" y="35.801" width="2.8364" height="1.7097"/>
        <rect class="cls-1" x="569.1247" y="33.0632" width="3.6636" height="1.3236" transform="translate(604.6815 -537.2316) rotate(90)"/>
        <rect class="cls-1" x="564.5866" y="33.0632" width="3.6636" height="1.3236" transform="translate(600.1433 -532.6934) rotate(90)"/>
      </g>
      <g>
        <rect class="cls-1" x="576.5268" y="29.2065" width="4.3491" height="5.6176"/>
        <rect class="cls-1" x="577.2832" y="28.2295" width="2.8364" height="1.7097"/>
        <rect class="cls-1" x="577.2832" y="34.0913" width="2.8364" height="1.7097"/>
        <rect class="cls-1" x="579.1386" y="31.3535" width="3.6636" height="1.3236" transform="translate(612.9857 -548.9552) rotate(90)"/>
        <rect class="cls-1" x="574.6005" y="31.3535" width="3.6636" height="1.3236" transform="translate(608.4476 -544.417) rotate(90)"/>
      </g>
    </g>
    <g>
      <g>
        <rect class="cls-1" x="1211.5664" y="5.0188" width="26.9431" height="26.9431"/>
        <rect class="cls-1" x="1215.5286" y="2.3773" width="18.7545" height="4.7547"/>
        <rect class="cls-1" x="1217.906" width="13.7357" height="4.7547"/>
        <rect class="cls-1" x="1217.906" y="31.4336" width="13.7357" height="4.7547"/>
        <rect class="cls-1" x="1233.7548" y="15.8489" width="13.7357" height="4.7547" transform="translate(1258.8489 -1222.3965) rotate(90)"/>
        <rect class="cls-1" x="1202.3212" y="15.8489" width="13.7357" height="4.7547" transform="translate(1227.4153 -1190.9629) rotate(90)"/>
        <rect class="cls-1" x="1215.5286" y="29.5846" width="18.7545" height="4.7547"/>
        <rect class="cls-1" x="1201.6609" y="16.2451" width="18.7545" height="4.7547" transform="translate(1229.6605 -1192.4157) rotate(90)"/>
        <rect class="cls-1" x="1229.6605" y="16.2451" width="18.7545" height="4.7547" transform="translate(1257.6602 -1220.4154) rotate(90)"/>
      </g>
      <g>
        <rect class="cls-2" x="1218.6984" y="12.9262" width="6.0754" height="9.0151"/>
        <rect class="cls-2" x="1219.755" y="11.3584" width="3.9622" height="2.7437"/>
        <rect class="cls-2" x="1219.755" y="20.7654" width="3.9622" height="2.7437"/>
        <rect class="cls-2" x="1221.9662" y="16.5092" width="5.8794" height="1.849" transform="translate(1242.3396 -1207.4721) rotate(90)"/>
        <rect class="cls-2" x="1215.6266" y="16.5092" width="5.8794" height="1.849" transform="translate(1236.0001 -1201.1326) rotate(90)"/>
      </g>
      <g>
        <rect class="cls-2" x="1229.0002" y="12.1508" width="6.0754" height="6.0754"/>
        <rect class="cls-2" x="1230.0568" y="11.0942" width="3.9622" height="1.849"/>
        <rect class="cls-2" x="1230.0568" y="17.4338" width="3.9622" height="1.849"/>
        <rect class="cls-2" x="1233.2265" y="14.264" width="3.9622" height="1.849" transform="translate(1250.3961 -1220.0191) rotate(90)"/>
        <rect class="cls-2" x="1226.887" y="14.264" width="3.9622" height="1.849" transform="translate(1244.0566 -1213.6796) rotate(90)"/>
      </g>
      <g>
        <rect class="cls-1" x="1221.6296" y="14.264" width="4.7035" height="6.0754"/>
        <rect class="cls-1" x="1222.4476" y="13.2074" width="3.0675" height="1.849"/>
        <rect class="cls-1" x="1222.4476" y="19.5469" width="3.0675" height="1.849"/>
        <rect class="cls-1" x="1224.4543" y="16.5859" width="3.9622" height="1.4315" transform="translate(1243.7371 -1209.1337) rotate(90)"/>
        <rect class="cls-1" x="1219.5462" y="16.5859" width="3.9622" height="1.4315" transform="translate(1238.829 -1204.2256) rotate(90)"/>
      </g>
      <g>
        <rect class="cls-1" x="1232.4596" y="12.4149" width="4.7035" height="6.0754"/>
        <rect class="cls-1" x="1233.2777" y="11.3584" width="3.0675" height="1.849"/>
        <rect class="cls-1" x="1233.2777" y="17.6979" width="3.0675" height="1.849"/>
        <rect class="cls-1" x="1235.2843" y="14.7369" width="3.9622" height="1.4315" transform="translate(1252.7181 -1221.8128) rotate(90)"/>
        <rect class="cls-1" x="1230.3763" y="14.7369" width="3.9622" height="1.4315" transform="translate(1247.81 -1216.9047) rotate(90)"/>
      </g>
    </g>
  </g>
</svg>