<?xml version="1.0" encoding="UTF-8"?>
<svg id="_레이어_2" data-name="레이어 2" xmlns="http://www.w3.org/2000/svg" viewBox="0 0 66.7339 66.7339">
  <defs>
    <style>
      .cls-1 {
        fill: #fff;
        stroke: #000;
        stroke-miterlimit: 10;
        stroke-width: 2px;
      }

      .cls-2 {
        stroke-width: 0px;
      }
    </style>
  </defs>
  <g id="_레이어_1-2" data-name="레이어 1">
    <polygon class="cls-1" points="65.7339 21.3179 62.8989 21.3179 62.8989 17.5378 57.7012 17.5378 57.7012 9.9778 50.1411 9.9778 50.1411 5.2524 45.416 5.2524 45.416 1 20.8452 1 20.8452 5.2524 16.5928 5.2524 16.5928 9.9778 9.5049 9.9778 9.5049 17.5378 4.3076 17.5378 4.3076 21.3179 1 21.3179 1 45.8887 4.3076 45.8887 4.3076 51.0862 9.5049 51.0862 9.5049 58.1738 16.5928 58.1738 16.5928 62.4263 20.8452 62.4263 20.8452 65.7339 45.416 65.7339 45.416 62.4263 50.1411 62.4263 50.1411 58.1738 57.7012 58.1738 57.7012 51.0862 62.8989 51.0862 62.8989 45.8887 65.7339 45.8887 65.7339 21.3179"/>
    <path class="cls-2" d="m41.9307,22.5v4.6576h-3.2334v4.5552h-3.2344v4.4863h3.2344v4.5545h3.2334v4.6576h-3.3809v-4.5545h-3.2334v-4.5552h-3.1855v4.5552h-3.2832v4.5545h-3.3809v-4.6576h3.2344v-4.5545h3.2832v-4.4863h-3.2832v-4.5552h-3.2344v-4.6576h3.3809v4.5552h3.2832v4.5886h3.1855v-4.5886h3.2334v-4.5552h3.3809Z"/>
  </g>
</svg>