<?xml version="1.0" encoding="UTF-8"?>
<svg id="_레이어_2" data-name="레이어 2" xmlns="http://www.w3.org/2000/svg" viewBox="0 0 21.9707 80.6199">
  <defs>
    <style>
      .cls-1, .cls-2 {
        stroke-width: 0px;
      }

      .cls-2 {
        fill: #fff;
      }
    </style>
  </defs>
  <g id="_레이어_1-2" data-name="레이어 1">
    <g>
      <rect class="cls-1" x="2.6207" y="61.0823" width="1.2869" height="19.0696"/>
      <rect class="cls-1" x="1.3338" y="39.79" width="1.2869" height="20.3565"/>
      <rect class="cls-1" x="19.1164" y="39.79" width="1.2869" height="20.3565"/>
      <rect class="cls-1" x="17.8295" y="61.0823" width="1.2869" height="19.0696"/>
      <rect class="cls-1" x="10.2251" y="50.9041" width="1.2869" height="19.0696" transform="translate(-49.5704 71.3074) rotate(-90)"/>
      <rect class="cls-1" x="10.2251" y="35.1103" width="1.2869" height="19.0696" transform="translate(-33.7765 55.5136) rotate(-90)"/>
      <rect class="cls-1" x="10.2251" y="32.0685" width="1.2869" height="19.0696" transform="translate(-30.7348 52.4719) rotate(-90)"/>
      <rect class="cls-1" x="10.2251" y="46.8094" width="1.2869" height="19.0696" transform="translate(-45.4757 67.2127) rotate(-90)"/>
      <rect class="cls-1" x="7.9438" y="62.5447" width=".7019" height="9.9443" transform="translate(75.8116 59.2221) rotate(90)"/>
      <rect class="cls-1" x="7.9438" y="69.3302" width=".7019" height="9.9443" transform="translate(82.5971 66.0076) rotate(90)"/>
      <rect class="cls-1" x="15.7822" y="65.1185" width=".7019" height="4.7966" transform="translate(83.65 51.3837) rotate(90)"/>
      <rect class="cls-1" x="15.7822" y="71.904" width=".7019" height="4.7966" transform="translate(90.4354 58.1692) rotate(90)"/>
      <rect class="cls-1" x="3.3226" y="37.8011" width="14.9749" height="3.7437"/>
      <rect class="cls-1" x="4.4925" y="34.4084" width="12.869" height="3.7437"/>
      <rect class="cls-1" x="6.3644" y="30.6646" width="9.2423" height="3.7437"/>
      <rect class="cls-1" x="8.0023" y="23.1772" width="6.0835" height="3.7437"/>
      <rect class="cls-1" x="9.2892" y="19.4335" width="3.7437" height="3.7437"/>
      <rect class="cls-1" x="10.2251" y="15.6898" width="1.8719" height="3.7437"/>
      <g>
        <rect class="cls-1" x="10.2251" y="14.2859" width="1.8719" height=".7019"/>
        <rect class="cls-1" x="10.5761" y="13.0282" width="1.1699" height=".8774"/>
        <rect class="cls-1" x="10.2251" y="14.4029" width="1.8719" height=".7019" transform="translate(25.9149 3.5928) rotate(90)"/>
      </g>
      <g>
        <rect class="cls-1" x="18.8824" y="38.3861" width="1.8719" height=".7019"/>
        <rect class="cls-1" x="19.2334" y="37.1284" width="1.1699" height=".8774"/>
        <rect class="cls-1" x="18.8824" y="38.503" width="1.8719" height=".7019" transform="translate(58.6724 19.0357) rotate(90)"/>
      </g>
      <g>
        <rect class="cls-1" x=".9828" y="38.3861" width="1.8719" height=".7019"/>
        <rect class="cls-1" x="1.3338" y="37.1284" width="1.1699" height=".8774"/>
        <rect class="cls-1" x=".9828" y="38.503" width="1.8719" height=".7019" transform="translate(40.7727 36.9353) rotate(90)"/>
      </g>
      <g>
        <rect class="cls-1" x="3.9076" y="33.0045" width="1.8719" height=".7019"/>
        <rect class="cls-1" x="4.2585" y="31.7468" width="1.1699" height=".8774"/>
        <rect class="cls-1" x="3.9076" y="33.1215" width="1.8719" height=".7019" transform="translate(38.3159 28.6289) rotate(90)"/>
      </g>
      <g>
        <rect class="cls-1" x="16.0746" y="33.0045" width="1.8719" height=".7019"/>
        <rect class="cls-1" x="16.4256" y="31.7468" width="1.1699" height=".8774"/>
        <rect class="cls-1" x="16.0746" y="33.1215" width="1.8719" height=".7019" transform="translate(50.483 16.4619) rotate(90)"/>
      </g>
      <path class="cls-1" d="m15.2275,31.4555H6.9774v-5.3255h8.2502v5.3255Zm-6.6684-1.5817h5.0867v-2.162h-5.0867v2.162Z"/>
      <rect class="cls-1" x="3.3226" y="42.2468" width=".8189" height="1.8719"/>
      <g>
        <rect class="cls-1" x="9.1722" y="28.0908" width=".7373" height="1.5209"/>
        <rect class="cls-1" x="10.2255" y="28.0908" width=".7373" height="1.5209"/>
        <rect class="cls-1" x="11.2788" y="28.0908" width=".7373" height="1.5209"/>
        <rect class="cls-1" x="12.3321" y="28.0908" width=".7373" height="1.5209"/>
      </g>
      <rect class="cls-1" x="4.8435" y="42.2468" width=".8189" height="1.8719"/>
      <rect class="cls-1" x="6.2474" y="42.2468" width=".8189" height="1.8719"/>
      <rect class="cls-1" x="7.6513" y="42.2468" width=".8189" height="1.8719"/>
      <rect class="cls-1" x="9.0552" y="42.2468" width=".8189" height="1.8719"/>
      <rect class="cls-1" x="10.5761" y="42.2468" width=".8189" height="1.8719"/>
      <rect class="cls-1" x="3.3226" y="56.8707" width=".8189" height="2.9248"/>
      <rect class="cls-1" x="4.8435" y="56.8707" width=".8189" height="2.9248"/>
      <rect class="cls-1" x="6.2474" y="56.8707" width=".8189" height="2.9248"/>
      <rect class="cls-1" x="7.6513" y="56.8707" width=".8189" height="2.9248"/>
      <rect class="cls-1" x="9.0552" y="56.8707" width=".8189" height="2.9248"/>
      <rect class="cls-1" x="10.5761" y="56.8707" width=".8189" height="2.9248"/>
      <rect class="cls-1" x="4.8435" y="60.9654" width=".8482" height="19.6545"/>
      <rect class="cls-1" x="6.2975" y="60.9654" width=".8482" height="19.6545"/>
      <rect class="cls-1" x="7.7516" y="60.9654" width=".8482" height="19.6545"/>
      <rect class="cls-1" x="9.2056" y="60.9654" width=".8482" height="19.6545"/>
      <rect class="cls-1" x="10.7808" y="60.9654" width=".8482" height="19.6545"/>
      <rect class="cls-1" x="14.7877" y="42.2468" width=".8189" height="37.9051"/>
      <rect class="cls-1" x="16.3086" y="42.2468" width=".8189" height="37.9051"/>
      <rect class="cls-1" x="17.7125" y="42.2468" width=".8189" height="17.5487"/>
      <rect class="cls-1" x="11.98" y="42.2468" width=".8189" height="1.8719"/>
      <rect class="cls-1" x="2.6207" y="45.2885" width=".585" height=".585"/>
      <rect class="cls-1" x="3.2056" y="45.8735" width=".585" height=".585"/>
      <rect class="cls-1" x="3.7906" y="45.2885" width=".585" height=".585"/>
      <rect class="cls-1" x="8.2362" y="45.2885" width=".585" height=".585"/>
      <rect class="cls-1" x="6.0134" y="45.9905" width="1.2869" height=".585"/>
      <rect class="cls-1" x="7.0663" y="45.2885" width="1.2869" height=".8189"/>
      <rect class="cls-1" x="2.6207" y="49.6172" width=".585" height=".585"/>
      <rect class="cls-1" x="2.9716" y="50.7871" width=".585" height=".585"/>
      <rect class="cls-1" x="3.5566" y="49.6172" width=".585" height=".585"/>
      <rect class="cls-1" x="3.2056" y="47.8623" width=".585" height=".585"/>
      <rect class="cls-1" x="2.6207" y="48.4473" width=".585" height=".8189"/>
      <rect class="cls-1" x="2.3867" y="51.3721" width="1.2869" height="1.7549"/>
      <rect class="cls-1" x="5.0775" y="45.2885" width=".9359" height="1.2869"/>
      <rect class="cls-1" x="9.2892" y="45.2885" width="1.4039" height="1.2869"/>
      <rect class="cls-1" x="2.6207" y="49.1492" width="1.4039" height=".585"/>
      <rect class="cls-1" x="2.5037" y="50.2022" width="1.4039" height=".585"/>
      <rect class="cls-1" x="2.6207" y="51.1381" width="1.4039" height=".585"/>
      <rect class="cls-1" x="11.395" y="49.1492" width="1.4039" height=".585"/>
      <rect class="cls-1" x="11.395" y="50.2022" width="1.4039" height=".585"/>
      <rect class="cls-1" x="11.395" y="51.1381" width="1.4039" height=".585"/>
      <rect class="cls-1" x="3.2056" y="54.5308" width=".585" height=".585"/>
      <rect class="cls-1" x="5.0775" y="54.5308" width=".585" height=".585"/>
      <rect class="cls-1" x="5.6624" y="55.1158" width="1.5209" height=".585"/>
      <rect class="cls-1" x="11.629" y="45.8735" width=".585" height=".585"/>
      <rect class="cls-1" x="11.629" y="46.8094" width="1.1699" height="2.4568"/>
      <rect class="cls-1" x="11.629" y="51.6061" width="1.1699" height="2.4568"/>
      <rect class="cls-1" x="8.0607" y="53.5364" width="1.4039" height="3.1588" transform="translate(-46.3531 63.8785) rotate(-90)"/>
      <rect class="cls-1" x="11.629" y="54.5308" width=".585" height=".585"/>
      <rect class="cls-1" x="4.2819" y="48.3303" width=".624" height=".585"/>
      <rect class="cls-1" x="5.405" y="46.9264" width=".624" height=".585"/>
      <rect class="cls-1" x="4.6563" y="47.8623" width=".624" height=".585"/>
      <rect class="cls-1" x="5.0307" y="47.3944" width=".624" height=".585"/>
      <rect class="cls-1" x="10.3967" y="48.3303" width=".624" height=".585" transform="translate(21.4173 97.2456) rotate(180)"/>
      <rect class="cls-1" x="9.2736" y="46.9264" width=".624" height=".585" transform="translate(19.1711 94.4378) rotate(180)"/>
      <rect class="cls-1" x="10.0223" y="47.8623" width=".624" height=".585" transform="translate(20.6686 96.3096) rotate(180)"/>
      <rect class="cls-1" x="9.6479" y="47.3944" width=".624" height=".585" transform="translate(19.9198 95.3737) rotate(180)"/>
      <rect class="cls-1" x="9.2736" y="53.4169" width=".624" height=".6189"/>
      <rect class="cls-1" x="10.3967" y="51.957" width=".624" height=".585"/>
      <rect class="cls-1" x="9.6479" y="52.9218" width=".624" height=".6189"/>
      <rect class="cls-1" x="10.0223" y="52.4267" width=".624" height=".6189"/>
      <rect class="cls-1" x="5.405" y="53.4169" width=".624" height=".6189" transform="translate(11.4341 107.4526) rotate(180)"/>
      <rect class="cls-1" x="4.2819" y="51.957" width=".624" height=".585" transform="translate(9.1878 104.499) rotate(180)"/>
      <rect class="cls-1" x="5.0307" y="52.9218" width=".624" height=".6189" transform="translate(10.6853 106.4624) rotate(180)"/>
      <rect class="cls-1" x="4.6563" y="52.4267" width=".624" height=".6189" transform="translate(9.9366 105.4723) rotate(180)"/>
      <rect class="cls-1" x="12.2139" y="45.2885" width=".585" height=".585"/>
      <rect class="cls-1" x="2.6207" y="55.1158" width=".585" height=".585"/>
      <rect class="cls-1" x="6.029" y="46.5754" width="3.2446" height=".585"/>
      <rect class="cls-1" x="6.029" y="53.7882" width="3.2446" height=".6189"/>
      <rect class="cls-1" x="9.5621" y="50.1242" width="3.0418" height=".624" transform="translate(61.5192 39.3531) rotate(90)"/>
      <rect class="cls-1" x="2.6987" y="50.1242" width="3.0418" height=".624" transform="translate(54.6557 46.2166) rotate(90)"/>
      <rect class="cls-1" x="5.4401" y="49.0944" width=".4095" height=".3839"/>
      <rect class="cls-1" x="6.1772" y="48.1731" width=".4095" height=".3839"/>
      <rect class="cls-1" x="5.6858" y="48.7873" width=".4095" height=".3839"/>
      <rect class="cls-1" x="5.9315" y="48.4802" width=".4095" height=".3839"/>
      <rect class="cls-1" x="9.4529" y="49.0944" width=".4095" height=".3839" transform="translate(19.3154 98.5727) rotate(180)"/>
      <rect class="cls-1" x="8.7159" y="48.1731" width=".4095" height=".3839" transform="translate(17.8413 96.7301) rotate(180)"/>
      <rect class="cls-1" x="9.2073" y="48.7873" width=".4095" height=".3839" transform="translate(18.824 97.9585) rotate(180)"/>
      <rect class="cls-1" x="8.9616" y="48.4802" width=".4095" height=".3839" transform="translate(18.3326 97.3443) rotate(180)"/>
      <rect class="cls-1" x="8.7159" y="52.3958" width=".4095" height=".4061"/>
      <rect class="cls-1" x="9.4529" y="51.4744" width=".4095" height=".3839"/>
      <rect class="cls-1" x="8.9616" y="52.0886" width=".4095" height=".3839"/>
      <rect class="cls-1" x="9.2073" y="51.7815" width=".4095" height=".3839"/>
      <rect class="cls-1" x="6.1772" y="52.3958" width=".4095" height=".4061" transform="translate(12.7639 105.1976) rotate(180)"/>
      <rect class="cls-1" x="5.4401" y="51.4744" width=".4095" height=".3839" transform="translate(11.2898 103.3328) rotate(180)"/>
      <rect class="cls-1" x="5.9315" y="52.0886" width=".4095" height=".3839" transform="translate(12.2725 104.5612) rotate(180)"/>
      <rect class="cls-1" x="5.6858" y="51.7815" width=".4095" height=".3839" transform="translate(11.7811 103.947) rotate(180)"/>
      <rect class="cls-1" x="6.5867" y="47.9428" width="2.1292" height=".3839"/>
      <rect class="cls-1" x="6.5867" y="52.6394" width="2.1292" height=".4061"/>
      <rect class="cls-1" x="8.9053" y="50.2716" width="1.9962" height=".4095" transform="translate(60.3797 40.573) rotate(90)"/>
      <rect class="cls-1" x="4.4011" y="50.2716" width="1.9962" height=".4095" transform="translate(55.8756 45.0772) rotate(90)"/>
      <rect class="cls-1" x="12.2139" y="55.1158" width=".585" height=".585"/>
      <rect class="cls-1" x="7.1833" y="46.9264" width=".234" height="1.1699"/>
      <rect class="cls-1" x="7.7683" y="46.9264" width=".234" height="1.1699"/>
      <rect class="cls-1" x="7.1833" y="52.9218" width=".234" height="1.2377"/>
      <rect class="cls-1" x="7.7683" y="52.9218" width=".234" height="1.2377"/>
      <rect class="cls-1" x="10.3421" y="50.2022" width=".234" height="1.1699" transform="translate(-40.3281 61.2462) rotate(-90)"/>
      <rect class="cls-1" x="10.3421" y="49.6172" width=".234" height="1.1699" transform="translate(-39.7431 60.6612) rotate(-90)"/>
      <rect class="cls-1" x="4.7265" y="50.2022" width=".234" height="1.1699" transform="translate(-45.9436 55.6306) rotate(-90)"/>
      <rect class="cls-1" x="4.7265" y="49.6172" width=".234" height="1.1699" transform="translate(-45.3587 55.0457) rotate(-90)"/>
      <rect class="cls-1" x="7.4173" y="50.2022" width=".468" height=".468"/>
      <rect class="cls-1" x="5.7794" y="50.3192" width="1.8719" height=".234"/>
      <rect class="cls-1" x="6.7154" y="51.3721" width="1.8719" height=".234" transform="translate(-43.8378 59.1403) rotate(-90)"/>
      <rect class="cls-1" x="3.6736" y="46.4584" width="1.4039" height="1.4039"/>
      <rect class="cls-1" x="10.2251" y="46.4584" width="1.4039" height="1.4039"/>
      <rect class="cls-1" x="3.6736" y="53.0456" width="1.4039" height="1.4853"/>
      <rect class="cls-1" x="10.2251" y="53.0456" width="1.4039" height="1.4853"/>
      <g>
        <path class="cls-1" d="m.7094,6.1687h1.3674v.7094H0V0h.7094v6.1687Z"/>
        <path class="cls-1" d="m4.8425,2.0562v.6888h.6785v3.4545h-.6785v.6785h-1.419v-.6785h-.6785v-3.4545h.6785v-.6888h1.419Zm-1.3881,4.1124h1.3572v-3.4031h-1.3572v3.4031Z"/>
        <path class="cls-1" d="m7.5668,6.878h-.7094V2.0562h2.0974v.6888h.6785v4.133h-.7094V2.7656h-1.3572v4.1124Z"/>
        <path class="cls-1" d="m13.0365,2.0562V0h.7094v6.878h-2.0974v-.6785h-.6785v-3.4545h.6785v-.6888h1.3881Zm0,.7094h-1.3572v3.4031h1.3572v-3.4031Z"/>
        <path class="cls-1" d="m17.1798,2.0562v.6888h.6785v3.4545h-.6785v.6785h-1.419v-.6785h-.6785v-3.4545h.6785v-.6888h1.419Zm-1.3881,4.1124h1.3572v-3.4031h-1.3572v3.4031Z"/>
        <path class="cls-1" d="m19.9042,6.878h-.7094V2.0562h2.0974v.6888h.6785v4.133h-.7094V2.7656h-1.3572v4.1124Z"/>
      </g>
      <rect class="cls-2" x="1.3782" y="43.2517" width="18.9806" height=".7909"/>
      <rect class="cls-2" x="5.3325" y="36.9248" width="11.2698" height=".7909"/>
      <rect class="cls-2" x="6.9142" y="33.7614" width="8.1063" height=".7909"/>
      <rect class="cls-2" x="8.496" y="25.2596" width="4.9429" height=".7909"/>
      <rect class="cls-2" x="4.5417" y="40.0883" width="12.8515" height=".7909"/>
      <rect class="cls-2" x="1.3782" y="59.4644" width="11.4675" height=".7909"/>
      <rect class="cls-2" x="4.1462" y="66.3844" width="14.0378" height=".7909"/>
      <rect class="cls-2" x="1.1805" y="55.1146" width="11.6652" height=".7909"/>
      <rect class="cls-2" x="14.032" y="55.1146" width="6.3269" height=".7909"/>
      <rect class="cls-2" x="14.032" y="59.4644" width="6.3269" height=".7909"/>
      <rect class="cls-2" x="5.1489" y="73.3044" width="13.0351" height=".5931"/>
      <rect class="cls-1" x="12.5649" y="61.0823" width="1.5209" height="19.0696"/>
      <rect class="cls-1" x="12.7989" y="41.2746" width="1.2869" height="18.8718"/>
    </g>
  </g>
</svg>