<?xml version="1.0" encoding="UTF-8"?>
<svg id="_레이어_2" data-name="레이어 2" xmlns="http://www.w3.org/2000/svg" viewBox="0 0 21.7433 40">
  <defs>
    <style>
      .cls-1 {
        stroke-width: 0px;
      }
    </style>
  </defs>
  <g id="_레이어_1-2" data-name="레이어 1">
    <g>
      <g>
        <rect class="cls-1" x="9.6856" y="10.5477" width=".9883" height=".9883" transform="translate(21.2217 .8621) rotate(90)"/>
        <rect class="cls-1" x="4.9417" y="9.9547" width=".7907" height="1.5813"/>
        <rect class="cls-1" x="4.151" y="9.9547" width=".7907" height=".7907"/>
        <rect class="cls-1" x="1.779" y="10.7454" width="2.372" height=".7907"/>
        <g>
          <rect class="cls-1" x=".1977" y="26.5587" width="1.5813" height="13.4413"/>
          <rect class="cls-1" y="17.8614" width="1.779" height="2.372"/>
          <rect class="cls-1" x="1.779" y="17.0707" width="6.3253" height="2.372"/>
          <rect class="cls-1" x="8.1043" y="17.8614" width="3.9533" height="2.372"/>
          <rect class="cls-1" x="2.8662" y="18.1579" width="16.011" height="2.372" transform="translate(30.2155 8.4722) rotate(90)"/>
          <rect class="cls-1" x="10.7728" y="26.8552" width=".9883" height="1.5813" transform="translate(38.9128 16.3789) rotate(90)"/>
          <rect class="cls-1" x="12.0576" y="18.652" width=".7907" height="2.372"/>
          <rect class="cls-1" x="12.8483" y="19.4427" width="7.3137" height="2.372"/>
          <rect class="cls-1" x="20.162" y="18.652" width=".7907" height="2.372"/>
          <rect class="cls-1" x="20.9526" y="17.8614" width=".7907" height="2.372"/>
          <rect class="cls-1" x="20.9526" y="13.9081" width=".7907" height="3.1627"/>
          <rect class="cls-1" x="20.162" y="14.6987" width=".7907" height="3.1627"/>
          <rect class="cls-1" x="19.3713" y="15.4894" width=".7907" height="3.1627"/>
          <rect class="cls-1" x="18.5806" y="16.2801" width=".7907" height="2.372"/>
          <rect class="cls-1" x="17.79" y="17.0707" width=".7907" height="1.5813"/>
          <rect class="cls-1" x="16.5051" y="17.3672" width=".7907" height="1.779" transform="translate(-1.3563 35.1572) rotate(-90)"/>
          <rect class="cls-1" x="8.1043" y="15.4894" width=".7907" height=".7907"/>
          <rect class="cls-1" x="7.3137" y="21.024" width=".7907" height=".7907"/>
          <rect class="cls-1" x="12.8483" y="22.6054" width=".7907" height=".7907"/>
          <rect class="cls-1" x="13.639" y="23.396" width=".7907" height=".7907"/>
          <rect class="cls-1" x="14.4296" y="24.1867" width=".7907" height=".7907"/>
          <rect class="cls-1" x="15.2203" y="24.9774" width=".7907" height=".7907"/>
          <rect class="cls-1" x="16.011" y="25.768" width=".7907" height=".7907"/>
          <rect class="cls-1" x="16.8016" y="26.5587" width=".7907" height=".7907"/>
          <rect class="cls-1" x="20.162" y="26.5587" width=".7907" height=".7907"/>
          <rect class="cls-1" x="20.9526" y="25.768" width=".7907" height=".7907"/>
          <rect class="cls-1" x="20.162" y="21.8147" width="1.5813" height=".7907"/>
          <rect class="cls-1" x="20.9526" y="21.024" width=".7907" height=".7907"/>
          <rect class="cls-1" x="17.5923" y="27.3494" width="2.5697" height=".7907"/>
          <rect class="cls-1" x="6.523" y="21.8147" width=".7907" height=".7907"/>
          <rect class="cls-1" x="5.7323" y="22.6054" width=".7907" height=".7907"/>
          <rect class="cls-1" x="4.9417" y="23.396" width=".7907" height=".7907"/>
          <rect class="cls-1" x="4.151" y="24.1867" width=".7907" height=".7907"/>
          <rect class="cls-1" x="1.779" y="24.9774" width="2.372" height=".7907"/>
          <rect class="cls-1" x=".1977" y="25.768" width="1.5813" height=".7907"/>
          <rect class="cls-1" x="13.639" y="17.8614" width=".7907" height=".7907"/>
          <rect class="cls-1" x="13.639" y="12.3267" width=".7907" height="4.744"/>
          <rect class="cls-1" x="12.8483" y="12.3267" width=".7907" height="5.5347"/>
          <rect class="cls-1" x="8.1043" y="10.5477" width=".7907" height="4.151"/>
          <rect class="cls-1" x="7.3137" y="9.9547" width=".7907" height="3.9533"/>
          <rect class="cls-1" x="6.523" y="9.9547" width=".7907" height="3.1627"/>
          <rect class="cls-1" x="5.7323" y="9.9547" width=".7907" height="2.372"/>
          <rect class="cls-1" x="14.4296" y="17.0707" width="1.5813" height=".7907"/>
          <rect class="cls-1" x="14.4296" y="12.3267" width="1.5813" height="3.9533"/>
          <rect class="cls-1" x="16.011" y="16.2801" width="1.779" height=".7907"/>
          <rect class="cls-1" x="16.011" y="12.3267" width="1.779" height="3.1627"/>
          <rect class="cls-1" x="17.79" y="15.4894" width=".7907" height=".7907"/>
          <rect class="cls-1" x="17.79" y="12.3267" width=".7907" height="2.372"/>
          <rect class="cls-1" x="18.5806" y="14.6987" width=".7907" height=".7907"/>
          <rect class="cls-1" x="18.5806" y="12.3267" width=".7907" height="1.5813"/>
          <rect class="cls-1" x="19.3713" y="13.9081" width=".7907" height=".7907"/>
          <rect class="cls-1" x="19.3713" y="12.3267" width=".7907" height=".7907"/>
          <rect class="cls-1" x="20.162" y="13.1174" width=".7907" height=".7907"/>
          <rect class="cls-1" x="20.9526" y="11.5361" width=".7907" height="1.5813"/>
          <rect class="cls-1" x="7.3137" y="14.6987" width=".7907" height=".7907"/>
          <rect class="cls-1" x="6.523" y="13.9081" width=".7907" height=".7907"/>
          <rect class="cls-1" x="5.7323" y="13.1174" width=".7907" height=".7907"/>
          <rect class="cls-1" x="4.9417" y="12.3267" width=".7907" height=".7907"/>
          <rect class="cls-1" x="4.151" y="11.5361" width=".7907" height=".7907"/>
          <rect class="cls-1" x=".1977" y="11.5361" width="1.5813" height=".7907"/>
          <rect class="cls-1" x="1.779" y="12.3267" width="2.372" height=".7907"/>
          <rect class="cls-1" x=".1977" y="13.1174" width="4.744" height=".7907"/>
          <rect class="cls-1" x=".1977" y="13.9081" width="5.5347" height=".7907"/>
          <rect class="cls-1" x=".1977" y="14.6987" width="6.3253" height=".7907"/>
          <rect class="cls-1" x=".1977" y="15.4894" width="7.116" height=".7907"/>
          <rect class="cls-1" x=".1977" y="16.2801" width="1.5813" height=".7907"/>
          <rect class="cls-1" x=".1977" y="21.024" width="6.3253" height=".7907"/>
          <rect class="cls-1" x=".1977" y="21.8147" width="5.5347" height=".7907"/>
          <rect class="cls-1" x=".1977" y="22.6054" width="4.744" height=".7907"/>
          <rect class="cls-1" x=".1977" y="23.396" width="3.9533" height=".7907"/>
          <rect class="cls-1" x=".1977" y="24.1867" width="1.5813" height=".7907"/>
          <rect class="cls-1" x="1.779" y="20.2334" width="5.5347" height=".7907"/>
          <rect class="cls-1" x="4.151" y="25.768" width="4.744" height=".7907"/>
          <rect class="cls-1" x="4.9417" y="24.9774" width="3.9533" height=".7907"/>
          <rect class="cls-1" x="5.7323" y="24.1867" width="3.1627" height=".7907"/>
          <rect class="cls-1" x="6.523" y="23.396" width="2.372" height=".7907"/>
          <rect class="cls-1" x="7.3137" y="22.6054" width="1.5813" height=".7907"/>
          <rect class="cls-1" x="12.8483" y="24.1867" width=".7907" height=".7907"/>
          <rect class="cls-1" x="12.8483" y="24.9774" width="1.5813" height=".7907"/>
          <rect class="cls-1" x="12.8483" y="25.768" width="2.372" height=".7907"/>
          <rect class="cls-1" x="12.8483" y="26.5587" width="3.1627" height=".7907"/>
          <rect class="cls-1" x="12.8483" y="27.3494" width="3.9533" height=".7907"/>
          <rect class="cls-1" x="17.5923" y="25.768" width="2.5697" height=".7907"/>
          <rect class="cls-1" x="16.8016" y="24.9774" width="4.151" height=".7907"/>
          <rect class="cls-1" x="16.011" y="24.1867" width="5.7323" height=".7907"/>
          <rect class="cls-1" x="15.2203" y="23.396" width="6.523" height=".7907"/>
          <rect class="cls-1" x="14.4296" y="22.6054" width="7.3137" height=".7907"/>
          <rect class="cls-1" x="12.8483" y="28.14" width="4.744" height=".7907"/>
          <rect class="cls-1" x="8.1043" y="21.8147" width=".7907" height=".7907"/>
          <rect class="cls-1" x="8.1043" y="26.5587" width=".7907" height=".7907"/>
        </g>
      </g>
      <g>
        <path class="cls-1" d="m10.5218,0v5.6815h-.6218v.6218h-1.3004v-.6218h-.6218V0h.6501v5.6532h1.2438V0h.6501Z"/>
        <path class="cls-1" d="m14.2812,0v1.2814h-.622v1.2531h-.6312v1.2343h.6312v1.2531h.622v1.2814h-.6501v-1.2531h-.622v-1.2531h-.603v2.5062h-.6595V0h.6595v2.5157h.603v-1.2625h.622V0h.6501Z"/>
      </g>
    </g>
  </g>
</svg>