<?xml version="1.0" encoding="UTF-8"?>
<svg id="_레이어_2" data-name="레이어 2" xmlns="http://www.w3.org/2000/svg" viewBox="0 0 72.0293 145.7235">
  <defs>
    <style>
      .cls-1 {
        stroke-width: 0px;
      }
    </style>
  </defs>
  <g id="_레이어_1-2" data-name="레이어 1">
    <g>
      <rect class="cls-1" x="42.2043" y="10" width="11.9048" height="50" transform="translate(96.3134 70) rotate(180)"/>
      <rect class="cls-1" x="54.2043" width="11.9048" height="72" transform="translate(120.3134 72) rotate(180)"/>
      <rect class="cls-1" x="30.2996" y="20.3333" width="11.9048" height="30.9524" transform="translate(72.5039 71.619) rotate(180)"/>
      <rect class="cls-1" x="18.3948" y="29.0714" width="11.9048" height="14.2857" transform="translate(48.6944 72.4286) rotate(180)"/>
    </g>
    <g>
      <path class="cls-1" d="m13.2305,126.1239h-3.2344v3.1357h3.2344v13.2305h-3.2344v3.2334H0v-32.7812h9.9961v3.2832h3.2344v9.8984Zm-9.8496-9.7998v9.7012h6.4688v-9.7012H3.3809Zm0,26.0186h6.4688v-12.9355H3.3809v12.9355Z"/>
      <path class="cls-1" d="m22.834,122.743h6.7617v3.2822h3.2344v19.6982h-9.9961v-3.2334h-3.2344v-9.9473h3.2344v-3.2344h6.6152v-3.1846h-6.6152v-3.3809Zm6.6152,9.9463h-6.4688v9.6533h6.4688v-9.6533Z"/>
      <path class="cls-1" d="m42.5801,142.3426h6.4688v-3.2344h3.3809v3.3818h-3.2344v3.2334h-6.7617v-3.2334h-3.2344v-16.4648h3.2344v-3.2822h6.7617v3.2822h3.2344v3.3818h-3.3809v-3.2832h-6.4688v16.2188Z"/>
      <path class="cls-1" d="m72.0293,122.743v6.6641h-3.2344v3.2822h-3.2822v3.1367h3.2822v3.2334h3.2344v6.6641h-3.3809v-6.5166h-3.2842v-3.2832h-3.1836v9.7998h-3.3818v-32.7812h3.3818v19.6006h3.1836v-3.2832h3.2842v-6.5166h3.3809Z"/>
    </g>
  </g>
</svg>