<?xml version="1.0" encoding="UTF-8"?><svg id="Layer_2" xmlns="http://www.w3.org/2000/svg" viewBox="0 0 392.546961 98.627441"><defs><style>.cls-1{fill:#93d67b;}.cls-1,.cls-2,.cls-3,.cls-4,.cls-5,.cls-6,.cls-7,.cls-8,.cls-9,.cls-10,.cls-11{stroke-width:0px;}.cls-2{fill:#d30e72;}.cls-3{fill:#f3e101;}.cls-4{fill:#fd347f;}.cls-5{fill:#b6095b;}.cls-6{fill:#000;}.cls-12{fill:none;stroke:#000;stroke-miterlimit:10;}.cls-7{fill:#f01489;}.cls-8{fill:#ccc;}.cls-9{fill:#fa6e55;}.cls-10{fill:#cff203;}.cls-11{fill:#f6a72b;}</style></defs><g id="Layer_1-2"><path class="cls-6" d="M283.065495,92.902832c-.767578,0-1.388672-.137695-1.865234-.413086s-.824219-.665039-1.043945-1.168945c-.21875-.503906-.329102-1.099609-.329102-1.786133v-2.049805h2.329102v1.790039c0,.426758.051758.78418.157227,1.072266.105469.287109.355469.430664.751953.430664.352539,0,.594727-.132812.727539-.398438.133789-.265625.200195-.667969.200195-1.206055v-4.174805c0-.532227-.055664-.959961-.166992-1.285156-.111328-.324219-.359375-.487305-.742188-.487305-.30957,0-.547852.129883-.714844.389648s-.25.65918-.25,1.197266l-2.189453-.185547v-8.238281h6.039062v2.226562h-3.748047v3.311523c.117188-.234375.331055-.421875.640625-.560547.308594-.139648.642578-.208984,1.001953-.208984.655273,0,1.166992.191406,1.535156.575195s.62793.970703.779297,1.762695.227539,1.799805.227539,3.024414v.333984c0,1.026367-.03418,1.919922-.102539,2.680664s-.211914,1.390625-.431641,1.888672c-.21875.49707-.551758.868164-.99707,1.113281-.445312.244141-1.047852.366211-1.808594.366211Z"/><path class="cls-6" d="M291.887761,92.902832c-.766602,0-1.388672-.137695-1.864258-.413086-.476562-.275391-.824219-.665039-1.043945-1.168945s-.329102-1.099609-.329102-1.786133v-2.049805h2.328125v1.790039c0,.426758.052734.78418.158203,1.072266.104492.287109.355469.430664.750977.430664.352539,0,.595703-.132812.728516-.398438s.199219-.667969.199219-1.206055v-4.174805c0-.532227-.055664-.959961-.166992-1.285156-.111328-.324219-.358398-.487305-.742188-.487305-.30957,0-.546875.129883-.713867.389648s-.250977.65918-.250977,1.197266l-2.189453-.185547v-8.238281h6.040039v2.226562h-3.748047v3.311523c.117188-.234375.330078-.421875.639648-.560547.30957-.139648.643555-.208984,1.001953-.208984.655273,0,1.167969.191406,1.536133.575195.367188.383789.626953.970703.779297,1.762695.151367.791992.226562,1.799805.226562,3.024414v.333984c0,1.026367-.03418,1.919922-.101562,2.680664-.068359.760742-.211914,1.390625-.431641,1.888672-.219727.49707-.551758.868164-.99707,1.113281-.445312.244141-1.048828.366211-1.80957.366211Z"/><path class="cls-6" d="M70.645573,92.717285v-2.875977h-4.026367v-1.827148l3.589844-11.625h2.65332v11.448242h1.261719v2.003906h-1.261719v2.875977h-2.216797ZM68.539128,87.837402h2.106445v-8.061523l-2.106445,8.061523Z"/><path class="cls-6" d="M79.254948,92.912598c-.890625,0-1.606445-.182617-2.148438-.547852-.541016-.364258-.933594-.890625-1.177734-1.577148s-.366211-1.511719-.366211-2.476562v-7.802734c0-.939453.125-1.730469.375-2.370117.250977-.640625.648438-1.124023,1.192383-1.452148.543945-.327148,1.25293-.491211,2.125-.491211s1.578125.164062,2.119141.491211c.541992.328125.938477.811523,1.192383,1.452148.253906.639648.380859,1.430664.380859,2.370117v7.802734c0,.723633-.068359,1.370117-.204102,1.938477-.136719.569336-.349609,1.051758-.640625,1.447266-.291016.396484-.670898.697266-1.140625.904297-.470703.208008-1.039062.311523-1.707031.311523ZM79.245183,90.769043c.179688,0,.34375-.029297.492188-.087891s.276367-.171875.384766-.338867.191406-.40918.25-.728516c.05957-.318359.088867-.737305.088867-1.256836v-7.950195c0-.606445-.055664-1.056641-.166992-1.350586-.111328-.292969-.259766-.486328-.445312-.579102s-.386719-.139648-.603516-.139648c-.209961,0-.40625.043945-.588867.129883-.182617.086914-.331055.275391-.445312.566406s-.171875.745117-.171875,1.363281v7.959961c0,.526367.026367.948242.079102,1.266602s.130859.561523.236328.728516.232422.27832.380859.333984.318359.083008.509766.083008Z"/><path class="cls-6" d="M6.648503,92.912598c-.890625,0-1.606445-.182617-2.147949-.547852-.541016-.364258-.933594-.890625-1.177734-1.577148-.244629-.686523-.366699-1.511719-.366699-2.476562v-7.802734c0-.939453.125488-1.730469.375488-2.370117.250977-.640625.647949-1.124023,1.192383-1.452148.543945-.327148,1.252441-.491211,2.124512-.491211s1.578613.164062,2.119629.491211c.541504.328125.938477.811523,1.192383,1.452148.253418.639648.380371,1.430664.380371,2.370117v7.802734c0,.723633-.068359,1.370117-.204102,1.938477-.13623.569336-.349609,1.051758-.640137,1.447266-.291016.396484-.671387.697266-1.141113.904297-.470215.208008-1.039062.311523-1.707031.311523ZM6.639225,90.769043c.179199,0,.343262-.029297.491699-.087891s.276855-.171875.385254-.338867c.10791-.166992.191406-.40918.25-.728516.059082-.318359.088379-.737305.088379-1.256836v-7.950195c0-.606445-.055664-1.056641-.166992-1.350586-.111328-.292969-.259766-.486328-.445312-.579102s-.386719-.139648-.603027-.139648c-.210449,0-.406738.043945-.588867.129883-.182617.086914-.331055.275391-.445312.566406-.114746.291016-.171875.745117-.171875,1.363281v7.959961c0,.526367.026367.948242.079102,1.266602.052246.318359.130859.561523.236328.728516.10498.166992.231934.27832.380371.333984s.318359.083008.510254.083008Z"/><path class="cls-6" d="M332.475651,92.717285v-16.328125h1.948242l3.459961,9.796875-.175781-4.453125v-5.34375h2.235352v16.328125h-1.762695l-3.552734-10.139648.138672,4.286133v5.853516h-2.291016Z"/><path class="cls-6" d="M345.676823,92.885254c-.667969,0-1.227539-.103516-1.678711-.310547-.452148-.208008-.808594-.507812-1.072266-.900391-.262695-.392578-.451172-.873047-.56543-1.4375-.114258-.566406-.171875-1.210938-.171875-1.935547v-5.204102c0-.87207.113281-1.643555.338867-2.31543.225586-.669922.594727-1.195312,1.108398-1.576172s1.193359-.570312,2.041016-.570312c.643555,0,1.186523.107422,1.62793.324219.442383.216797.797852.523438,1.067383.923828.268555.398438.464844.870117.588867,1.414062.124023.544922.185547,1.144531.185547,1.799805v5.204102c0,.711914-.053711,1.349609-.162109,1.912109s-.293945,1.042969-.556641,1.441406c-.262695.400391-.617188.705078-1.0625.914062-.445312.210938-1.007812.316406-1.688477.316406ZM345.676823,90.898926c.27832,0,.488281-.083984.630859-.253906.142578-.170898.238281-.407227.288086-.710938.048828-.302734.074219-.652344.074219-1.047852v-6.225586c0-.419922-.02832-.78125-.083984-1.084961-.055664-.302734-.154297-.538086-.296875-.705078s-.34668-.250977-.612305-.250977c-.27832,0-.490234.083984-.635742.250977-.144531.166992-.244141.402344-.296875.705078-.051758.303711-.078125.665039-.078125,1.084961v6.225586c0,.395508.026367.745117.078125,1.047852.052734.303711.152344.540039.296875.710938.145508.169922.357422.253906.635742.253906Z"/><path class="cls-6" d="M357.153386,92.856934c-.754883,0-1.314453-.202148-1.679688-.608398-.365234-.404297-.602539-.953125-.713867-1.646484-.111328-.691406-.166992-1.46875-.166992-2.328125v-5.667969c0-.748047.088867-1.421875.268555-2.017578.179688-.597656.47168-1.072266.876953-1.424805s.941406-.52832,1.609375-.52832c.395508,0,.751953.09375,1.067383.283203.31543.1875.55957.4375.732422.746094v-3.414062h2.458984v16.466797h-2.458984v-1.289062c-.185547.470703-.445312.826172-.779297,1.066406-.333984.242188-.739258.362305-1.214844.362305ZM358.062565,90.898926c.296875,0,.524414-.087891.681641-.263672.158203-.175781.265625-.449219.325195-.816406.058594-.368164.087891-.833984.087891-1.396484v-5.566406c0-.679688-.066406-1.220703-.199219-1.623047-.133789-.402344-.419922-.603516-.858398-.603516-.420898,0-.697266.196289-.830078.589844-.133789.392578-.200195.947266-.200195,1.664062v5.724609c0,.476562.029297.886719.088867,1.228516.058594.34375.158203.607422.300781.789062.142578.182617.34375.273438.603516.273438Z"/><path class="cls-6" d="M366.319401,92.856934c-.953125,0-1.613281-.34668-1.980469-1.039062-.368164-.692383-.558594-1.610352-.571289-2.754883v-.890625c0-.742188.107422-1.345703.320312-1.80957.213867-.463867.517578-.84082.914062-1.131836.395508-.291016.868164-.543945,1.418945-.760742.550781-.21582,1.163086-.448242,1.836914-.696289v-1.214844c0-.469727-.018555-.845703-.055664-1.126953s-.120117-.487305-.25-.617188-.331055-.195312-.603516-.195312c-.265625,0-.467773.066406-.607422.199219-.138672.133789-.233398.337891-.283203.613281s-.074219.625977-.074219,1.052734v.621094h-2.430664v-.416992c0-.636719.054688-1.206055.163086-1.707031.107422-.500977.291992-.926758.551758-1.276367.259766-.348633.613281-.615234,1.0625-.796875.448242-.182617,1.011719-.273438,1.692383-.273438.599609,0,1.113281.083984,1.540039.253906.426758.170898.773438.423828,1.039062.761719.265625.336914.460938.759766.584961,1.265625.123047.507812.185547,1.098633.185547,1.772461v10.02832h-2.477539v-1.381836c-.074219.266602-.201172.514648-.379883.74707-.179688.232422-.40332.418945-.672852.560547-.268555.142578-.577148.213867-.922852.213867ZM367.172917,90.964355c.308594,0,.556641-.111328.742188-.333984s.299805-.448242.342773-.676758v-4.787109c-.371094.166016-.683594.322266-.936523.46875-.253906.144531-.458008.304688-.612305.476562-.155273.173828-.266602.37793-.333984.613281-.068359.234375-.102539.522461-.102539.862305v1.558594c0,.637695.066406,1.098633.200195,1.387695.132812.287109.366211.430664.700195.430664Z"/><path class="cls-6" d="M375.559636,92.811035c-.59375,0-1.047852-.076172-1.364258-.228516-.314453-.150391-.53125-.390625-.648438-.71875-.118164-.327148-.176758-.750977-.176758-1.270508v-9.722656h-1.131836v-1.78125h1.131836v-2.700195h2.458008v2.700195h1.355469v1.78125h-1.355469v9.295898c0,.216797.03418.380859.102539.492188s.202148.185547.40332.222656.5.054688.895508.054688v1.875h-1.669922Z"/><path class="cls-6" d="M381.23737,92.856934c-.952148,0-1.613281-.34668-1.980469-1.039062-.368164-.692383-.558594-1.610352-.570312-2.754883v-.890625c0-.742188.106445-1.345703.319336-1.80957.213867-.463867.518555-.84082.914062-1.131836s.869141-.543945,1.418945-.760742c.550781-.21582,1.163086-.448242,1.837891-.696289v-1.214844c0-.469727-.019531-.845703-.056641-1.126953s-.120117-.487305-.25-.617188-.331055-.195312-.603516-.195312c-.265625,0-.467773.066406-.607422.199219-.138672.133789-.233398.337891-.283203.613281-.048828.275391-.074219.625977-.074219,1.052734v.621094h-2.429688v-.416992c0-.636719.053711-1.206055.162109-1.707031.107422-.500977.291992-.926758.551758-1.276367.259766-.348633.613281-.615234,1.0625-.796875.448242-.182617,1.012695-.273438,1.692383-.273438.600586,0,1.113281.083984,1.541016.253906.425781.170898.772461.423828,1.039062.761719.265625.336914.459961.759766.583984,1.265625.124023.507812.185547,1.098633.185547,1.772461v10.02832h-2.476562v-1.381836c-.074219.266602-.201172.514648-.380859.74707s-.40332.418945-.672852.560547c-.268555.142578-.576172.213867-.922852.213867ZM382.090886,90.964355c.30957,0,.556641-.111328.742188-.333984s.299805-.448242.34375-.676758v-4.787109c-.371094.166016-.683594.322266-.9375.46875-.253906.144531-.458008.304688-.612305.476562-.154297.173828-.265625.37793-.333984.613281-.068359.234375-.102539.522461-.102539.862305v1.558594c0,.637695.066406,1.098633.200195,1.387695.132812.287109.366211.430664.700195.430664Z"/><path class="cls-6" d="M66.054753,13.015625V.984375h1.585938v10.698242h2.262695v1.333008h-3.848633Z"/><path class="cls-6" d="M73.211979,13.138672c-.500977,0-.908203-.084473-1.219727-.25293-.3125-.168457-.551758-.40918-.717773-.721191-.166992-.312012-.280273-.687012-.341797-1.124512s-.092773-.922852-.092773-1.456055v-3.711914c0-.478516.041016-.916016.123047-1.3125s.21582-.738281.400391-1.025391.433594-.508301.748047-.663086.704102-.232422,1.168945-.232422c.474609,0,.861328.078613,1.162109.23584s.532227.380371.694336.669922c.161133.289551.274414.635742.337891,1.039062.064453.40332.095703.851074.095703,1.343262v2.043945h-3.144531v2.030273c0,.583496.041992,1.036621.126953,1.360352.083984.32373.313477.485352.686523.485352.246094,0,.422852-.076172.530273-.229004.106445-.152832.171875-.366699.194336-.642578.023438-.275879.03418-.595703.03418-.960449v-.861328h1.551758v.485352c0,.537598-.027344,1.022949-.082031,1.456055s-.160156.800781-.317383,1.104004-.390625.535645-.701172.697266c-.30957.161621-.72168.242676-1.237305.242676ZM72.419011,6.972656h1.579102v-1.3125c0-.378418-.014648-.698242-.043945-.960449-.030273-.262207-.094727-.458984-.195312-.591309-.099609-.132324-.261719-.198242-.485352-.198242-.254883,0-.444336.077637-.567383.232422s-.201172.366699-.235352.635742-.051758.578613-.051758.929688v1.264648Z"/><path class="cls-6" d="M79.371159,14.567383c-.509766.013672-.958008-.038574-1.342773-.157227-.385742-.118652-.723633-.293945-1.015625-.526367l.560547-1.039062c.21875.145996.467773.27002.745117.372559.27832.102539.59082.149414.936523.140137.333008-.004395.587891-.124023.765625-.358887s.266602-.545898.266602-.933105v-.90918c-.126953.337402-.30957.566406-.546875.687012-.236328.120605-.512695.181152-.827148.181152-.482422,0-.857422-.134277-1.124023-.40332s-.454102-.636719-.560547-1.104004c-.107422-.467285-.161133-.994629-.161133-1.58252v-3.089844c0-.615234.05957-1.164551.177734-1.647461.119141-.48291.320312-.865723.605469-1.148438.28418-.282715.672852-.419434,1.165039-.410156.314453.004395.582031.084473.803711.239258.220703.154785.376953.389648.467773.704102v-.820312h1.572266v9.166992c0,.341797-.040039.66748-.119141.977539-.080078.310059-.212891.587891-.400391.833984-.186523.246094-.44043.443359-.761719.591309s-.723633.226562-1.207031.23584ZM79.528386,10.800781c.173828,0,.31543-.052246.427734-.157227.111328-.10498.194336-.293945.249023-.567383s.082031-.663086.082031-1.168945v-3.24707c0-.55127-.054688-.977539-.164062-1.27832s-.328125-.451172-.65625-.451172c-.241211,0-.420898.074219-.540039.222168-.118164.147949-.194336.349609-.228516.60498s-.051758.55127-.051758.888672v3.274414c0,.605957.055664,1.070801.167969,1.394531.111328.32373.349609.485352.713867.485352Z"/><path class="cls-6" d="M85.339909,13.111328c-.65625,0-1.121094-.24707-1.394531-.741699s-.413086-1.165527-.416992-2.013184v-.854492c0-.492188.077148-.896484.232422-1.213379.154297-.316895.375977-.577637.663086-.782715s.625977-.388672,1.018555-.550293c.391602-.161621.824219-.333984,1.298828-.516113v-.833984c0-.400879-.013672-.723633-.041016-.967285s-.09375-.422852-.198242-.536621c-.105469-.11377-.271484-.170898-.499023-.170898-.223633,0-.390625.058105-.50293.174316-.111328.116211-.185547.296387-.22168.540039-.037109.243652-.054688.557129-.054688.939941v.40332h-1.56543v-.300781c0-.451172.033203-.86377.098633-1.237305.066406-.373535.18457-.694824.355469-.963867s.413086-.477539.724609-.625488c.3125-.147949.714844-.222168,1.207031-.222168.455078,0,.831055.069336,1.12793.208496.295898.13916.529297.344238.700195.615234s.291992.607422.362305,1.008301c.071289.400879.106445.865723.106445,1.394531v7.150391h-1.585938v-.943359c-.045898.159668-.129883.320312-.25293.481934s-.283203.294922-.478516.399902c-.196289.10498-.423828.157227-.683594.157227ZM85.832097,11.867188c.236328,0,.436523-.07959.597656-.239258.162109-.159668.265625-.321289.311523-.485352v-3.746094c-.319336.145996-.583984.276855-.792969.393066-.209961.116211-.375.240234-.496094.372559-.120117.132324-.206055.290527-.255859.475098-.050781.18457-.075195.413574-.075195.687012v1.039062c0,.528809.049805.911621.150391,1.148438.099609.236816.287109.355469.560547.355469Z"/><path class="cls-6" d="M90.125065,13.015625V.868164h1.56543v12.147461h-1.56543Z"/><path class="cls-6" d="M96.688542,13.015625V.868164h1.56543v12.147461h-1.56543Z"/><path class="cls-6" d="M100.236393,1.818359V.410156h1.579102v1.408203h-1.579102ZM100.243229,13.015625V2.761719h1.572266v10.253906h-1.572266Z"/><path class="cls-6" d="M103.756901,13.015625V2.761719h1.572266v1.086914c.095703-.341797.279297-.629883.550781-.864746.270508-.234863.626953-.352051,1.069336-.352051.341797,0,.639648.081055.891602.242676.253906.161621.448242.427246.584961.796387.168945-.314453.398438-.566406.69043-.755371s.640625-.283691,1.045898-.283691c.592773,0,1.030273.206055,1.3125.618652s.423828,1.003906.423828,1.773926v7.991211h-1.572266V4.990234c0-.378418-.069336-.64502-.208008-.799805-.139648-.154785-.325195-.232422-.557617-.232422-.319336,0-.555664.085449-.710938.256348s-.232422.450195-.232422.837402v7.963867h-1.579102V4.976562c0-.337402-.0625-.591309-.1875-.762207-.125977-.170898-.311523-.256348-.557617-.256348-.328125,0-.570312.112793-.727539.338379s-.236328.511719-.236328.85791v7.861328h-1.572266Z"/><path class="cls-6" d="M113.792058,1.818359V.410156h1.579102v1.408203h-1.579102ZM113.798893,13.015625V2.761719h1.572266v10.253906h-1.572266Z"/><path class="cls-6" d="M119.137761,13.077148c-.4375,0-.768555-.053711-.995117-.160645-.224609-.106934-.378906-.279297-.460938-.516113s-.123047-.546875-.123047-.929688v-7.416992h-.895508v-1.155273h.895508V.984375h1.572266v1.914062h1.066406v1.155273h-1.066406v7.21875c0,.168457.023438.293945.072266.375977.046875.082031.148438.136719.303711.164062s.391602.041016.710938.041016v1.223633h-1.080078Z"/><rect class="cls-8" x="340.569333" y="28.42168" width="32.55237" height="32.55237"/><rect class="cls-3" x="65.10474" y="28.42168" width="32.55237" height="32.55237" transform="translate(36.683059 126.07879) rotate(-90)"/><rect class="cls-11" x="97.65711" y="28.42168" width="32.55237" height="32.55237" transform="translate(69.235429 158.63116) rotate(-90)"/><rect class="cls-1" x="0" y="28.42168" width="32.55237" height="32.55237" transform="translate(-28.42168 60.97405) rotate(-90)"/><rect class="cls-10" x="32.55237" y="28.42168" width="32.55237" height="32.55237" transform="translate(4.13069 93.52642) rotate(-90)"/><rect class="cls-9" x="130.20948" y="28.42168" width="32.55237" height="32.55237" transform="translate(101.787799 191.18353) rotate(-90)"/><rect class="cls-4" x="162.76185" y="28.42168" width="32.55237" height="32.55237" transform="translate(134.340169 223.7359) rotate(-90)"/><rect class="cls-7" x="195.314219" y="28.42168" width="32.55237" height="32.55237" transform="translate(166.892539 256.28827) rotate(-90)"/><rect class="cls-2" x="227.866589" y="28.42168" width="32.55237" height="32.55237" transform="translate(199.444909 288.84064) rotate(-90)"/><rect class="cls-5" x="260.418959" y="28.42168" width="32.55237" height="32.55237" transform="translate(231.997279 321.393009) rotate(-90)"/><line class="cls-12" x1="65.10474" y1="24.921837" x2="65.10474" y2="65.263275"/></g></svg>