<?xml version="1.0" encoding="utf-8"?>
<!-- Generator: Adobe Illustrator 27.9.1, SVG Export Plug-In . SVG Version: 6.00 Build 0)  -->
<svg version="1.1" id="Layer_2" xmlns="http://www.w3.org/2000/svg" xmlns:xlink="http://www.w3.org/1999/xlink" x="0px" y="0px"
	 viewBox="0 0 465.7 97.2" style="enable-background:new 0 0 465.7 97.2;" xml:space="preserve">
<style type="text/css">
	.st0{fill:#FFFFFF;}
	.st1{fill:#CECECE;}
	.st2{fill:#B7B7B7;}
	.st3{fill:#76C178;}
	.st4{fill:#9BDD9F;}
	.st5{fill:#A8A8A8;}
	.st6{fill:#9B9B9B;}
	.st7{fill:#828282;}
	.st8{fill:#4F4F4F;}
</style>
<g id="Layer_1-2">
	<g>
		<rect x="363.7" y="29.5" class="st0" width="32.6" height="32.6"/>
		<path d="M396.7,62.5h-33.6V29h33.6V62.5z M364.2,61.5h31.6V30h-31.6V61.5z"/>
	</g>
	<g>
		<rect x="65.1" y="29.5" class="st1" width="32.6" height="32.6"/>
	</g>
	<g>
		<rect x="97.7" y="29.5" class="st2" width="32.6" height="32.6"/>
	</g>
	<g>
		<rect y="29.5" class="st3" width="32.6" height="32.6"/>
	</g>
	<g>
		<rect x="32.6" y="29.5" class="st4" width="32.6" height="32.6"/>
	</g>
	<g>
		<rect x="130.2" y="29.5" class="st5" width="32.6" height="32.6"/>
	</g>
	<g>
		<rect x="162.8" y="29.5" class="st6" width="32.6" height="32.6"/>
	</g>
	<g>
		<rect x="195.3" y="29.5" class="st7" width="32.6" height="32.6"/>
	</g>
	<g>
		<rect x="227.9" y="29.5" class="st8" width="32.6" height="32.6"/>
	</g>
	<g>
		<rect x="260.4" y="29.5" width="32.6" height="32.6"/>
	</g>
	<g>
		<rect x="64.6" y="26" width="1" height="40.3"/>
	</g>
	<g>
		<path d="M7.1,85v1.1H2.7V85H1.6V70.8h1.1v-1.1h4.4v1.1h1.1V85H7.1z M6,70.8H3.8v14.1H6V70.8z"/>
	</g>
	<g>
		<path d="M75.1,81.7v4.4h-2.2v-4.4h-3.3v-4.4h1.1V74h1.1v3.3h-1.1v3.2h2.1V69.7h2.2v10.9h1.1v1.1H75.1z"/>
		<path d="M83.8,85v1.1h-4.4V85h-1.1V70.8h1.1v-1.1h4.4v1.1h1.1V85H83.8z M82.7,70.8h-2.2v14.1h2.2V70.8z"/>
	</g>
	<g>
		<path d="M283.3,85v1.1h-4.4v-1.2h3.3v-7.6h-3.3v-7.7h5.5v1.1h-3.3v5.4h2.2v1.1h1.1V85H283.3z"/>
		<path d="M290.9,85v1.1h-4.4v-1.2h3.3v-7.6h-3.3v-7.7h5.5v1.1h-3.3v5.4h2.2v1.1h1.1V85H290.9z"/>
	</g>
	<g>
		<path d="M359.4,86.1v-3.3h-1.1v-3.3h-1.1v-3.3h-1v9.8h-1.1V69.7h2.2V73h1.1v3.3h1.1v3.3h1.1v-9.8h1.1v16.4H359.4z"/>
		<path d="M369.3,85v1.1h-4.4V85h-1.1v-9.8h1.1V74h4.4v1.1h1.1V85H369.3z M368.2,75.2H366v9.7h2.2V75.2z"/>
		<path d="M381.3,83.9V85h-1.1v1.1h-4.4V69.7h5.5v1.1h1.1v13.1H381.3z M380.2,70.8H378v14.1h2.2V70.8z"/>
		<path d="M389.9,86.1V85h-1v1.1h-3.3V85h-1.1v-4.4h1.1v-1.1h2.2v-1.1h1.1v-3.2h-3.2V74h4.4v1.1h1.1v9.8h1.1v1.2H389.9z M388.8,79.5
			l-1,0v1.1h-1.1v4.3h2.1V79.5z"/>
		<path d="M395.5,75.2V85h1.1v1.1h-2.2V85h-1.1v-8.8h1.1v-1.1h-2.2V74h1.1V73h1.1v-1.1h1.1V74h2.2v1.1H395.5z"/>
		<path d="M403,86.1V85h-1v1.1h-3.3V85h-1.1v-4.4h1.1v-1.1h2.2v-1.1h1.1v-3.2h-3.2V74h4.4v1.1h1.1v9.8h1.1v1.2H403z M401.9,79.5
			l-1,0v1.1h-1.1v4.3h2.1V79.5z"/>
	</g>
	<g>
		<path d="M66.9,18.8V18h-0.8v-7.6V7.2h1.6v9.4V18h0.8v0.8H66.9z"/>
		<path d="M73.1,18v0.8H70V18h-0.8v-6.9H70v-0.8h3.1v0.8h0.8v3.1h-0.8V15h-1.5v0.8h-0.8V18L73.1,18l0-0.8h0.8V18H73.1z M72.3,11.1
			h-1.5v3.8h0.8v-0.8h0.8V11.1z"/>
		<path d="M79.3,11.1v0.7H80v8.5h-0.8v0.8h-3.1v-0.8h2.3v-1.5h-2.3V18h-0.8v-7h0.8v-0.8h4.7v0.8H79.3z M78.5,11.1h-1.5V18h1.5V11.1z
			"/>
		<path d="M85.4,18.8V18h-0.7v0.8h-2.3V18h-0.8v-3.1h0.8v-0.8h1.5v-0.8h0.8v-2.3h-2.3v-0.8h3.1v0.8h0.8V18H87v0.8H85.4z M84.6,14.2
			l-0.7,0V15h-0.8v3h1.5V14.2z"/>
		<path d="M88.5,18.8V18h-0.8v-7.6V7.2h1.6v9.4V18h0.8v0.8H88.5z"/>
		<path d="M93.9,18.8V18h-0.8v-7.6V7.2h1.6v9.4V18h0.8v0.8H93.9z"/>
		<path d="M96.3,9.6V8h1.6v1.6H96.3z M96.3,18.8v-8.5h1.6v8.5H96.3z"/>
		<path d="M105.5,18.8v-7h-0.7v0.8H104v6.2h-1.6v-7h-0.7v0.8h-0.8v6.2h-1.6v-7.7h-0.8v-0.8h2.3v1.5h0.7v-0.8h0.8v-0.8h1.6v1.5h0.8
			v-0.8h0.8v-0.8h1.6v8.5H105.5z"/>
		<path d="M108.6,9.6V8h1.6v1.6H108.6z M108.6,18.8v-8.5h1.6v8.5H108.6z"/>
		<path d="M113.3,11.1V18h0.8v0.8h-1.6v-0.8h-0.8v-6.2h0.8v-0.7h-1.5v-0.8h0.8V9.5h0.8V8.8h0.8v1.5h1.5v0.8H113.3z"/>
	</g>
</g>
</svg>
