<?xml version="1.0" encoding="UTF-8"?><svg id="Layer_2" xmlns="http://www.w3.org/2000/svg" viewBox="0 0 465.676625 97.180176"><defs><style>.cls-1{fill:#93d67b;}.cls-1,.cls-2,.cls-3,.cls-4,.cls-5,.cls-6,.cls-7,.cls-8,.cls-9,.cls-10,.cls-11{stroke-width:0px;}.cls-2{fill:#d30e72;}.cls-3{fill:#f3e101;}.cls-4{fill:#fd347f;}.cls-5{fill:#b6095b;}.cls-6{fill:#000;}.cls-12{fill:none;stroke:#000;stroke-miterlimit:10;}.cls-7{fill:#f01489;}.cls-8{fill:#ccc;}.cls-9{fill:#fa6e55;}.cls-10{fill:#cff203;}.cls-11{fill:#f6a72b;}</style></defs><g id="Layer_1-2"><path class="cls-6" d="M284.373112,91.29834c-.90332,0-1.708008-.168945-2.416992-.505859-.708008-.336914-1.270508-.802734-1.688477-1.396484-.416992-.59375-.638672-1.273438-.663086-2.041016h2.430664c.037109.563477.280273,1.024414.728516,1.382812s.984375.538086,1.609375.538086c.495117,0,.930664-.113281,1.308594-.338867.376953-.225586.675781-.538086.894531-.936523.219727-.399414.330078-.855469.330078-1.369141,0-.525391-.111328-.991211-.333984-1.395508-.222656-.405273-.529297-.723633-.918945-.956055-.389648-.231445-.837891-.347656-1.344727-.347656-.420898,0-.829102.079102-1.224609.236328-.396484.158203-.711914.363281-.946289.617188l-2.273438-.371094.723633-7.125h8.025391v2.09668h-5.947266l-.398438,3.664062h.074219c.259766-.308594.623047-.560547,1.089844-.755859.466797-.194336.981445-.291992,1.544922-.291992.84082,0,1.587891.196289,2.240234.588867s1.166992.932617,1.544922,1.619141c.376953.686523.56543,1.474609.56543,2.365234,0,.90918-.209961,1.72168-.630859,2.435547-.420898.714844-1.001953,1.274414-1.744141,1.679688-.742188.404297-1.601562.607422-2.579102.607422Z"/><path class="cls-6" d="M295.664128,91.29834c-.90332,0-1.708984-.168945-2.416992-.505859s-1.270508-.802734-1.688477-1.396484c-.416992-.59375-.638672-1.273438-.663086-2.041016h2.430664c.037109.563477.279297,1.024414.728516,1.382812.448242.358398.984375.538086,1.609375.538086.494141,0,.930664-.113281,1.307617-.338867s.675781-.538086.895508-.936523c.219727-.399414.329102-.855469.329102-1.369141,0-.525391-.111328-.991211-.333984-1.395508-.222656-.405273-.52832-.723633-.917969-.956055-.389648-.231445-.838867-.347656-1.345703-.347656-.420898,0-.829102.079102-1.224609.236328-.395508.158203-.710938.363281-.946289.617188l-2.272461-.371094.723633-7.125h8.024414v2.09668h-5.946289l-.399414,3.664062h.074219c.259766-.308594.623047-.560547,1.09082-.755859.466797-.194336.981445-.291992,1.543945-.291992.84082,0,1.587891.196289,2.241211.588867.652344.392578,1.166992.932617,1.543945,1.619141s.566406,1.474609.566406,2.365234c0,.90918-.210938,1.72168-.630859,2.435547-.420898.714844-1.001953,1.274414-1.744141,1.679688-.742188.404297-1.602539.607422-2.579102.607422Z"/><path class="cls-6" d="M66.405339,88.552246v-1.995117l5.873047-9.267578h1.651367v2.838867h-1.011719l-3.952148,6.25293v.111328h8.192383v2.05957h-10.75293ZM72.992253,91.112793v-3.164062l.037109-.899414v-9.759766h2.356445v13.823242h-2.393555Z"/><path class="cls-6" d="M83.708073,91.29834c-1.120117,0-2.077148-.280273-2.87207-.839844-.793945-.55957-1.402344-1.367188-1.822266-2.420898-.420898-1.054688-.630859-2.330078-.630859-3.827148s.209961-2.775391.630859-3.835938c.419922-1.061523,1.02832-1.871094,1.822266-2.430664.794922-.560547,1.749023-.839844,2.862305-.839844,1.119141,0,2.078125.28125,2.875977.84375.797852.563477,1.407227,1.373047,1.828125,2.430664.419922,1.057617.630859,2.334961.630859,3.832031s-.210938,2.772461-.630859,3.827148c-.420898,1.053711-1.027344,1.861328-1.818359,2.420898-.791992.55957-1.750977.839844-2.875977.839844ZM83.708073,89.20166c.599609,0,1.108398-.195312,1.525391-.584961.417969-.389648.736328-.957031.956055-1.702148s.329102-1.646484.329102-2.704102c0-1.063477-.109375-1.969727-.329102-2.71875-.219727-.748047-.538086-1.318359-.956055-1.710938-.416992-.393555-.925781-.589844-1.525391-.589844-.90332,0-1.597656.4375-2.083008,1.313477-.485352.875-.728516,2.110352-.728516,3.706055,0,1.057617.108398,1.958984.325195,2.704102.21582.745117.53418,1.3125.955078,1.702148s.930664.584961,1.53125.584961Z"/><path class="cls-6" d="M7.98444,91.29834c-1.119629,0-2.07666-.280273-2.871582-.839844-.794434-.55957-1.402344-1.367188-1.822754-2.420898-.420898-1.054688-.630859-2.330078-.630859-3.827148s.209961-2.775391.630859-3.835938c.42041-1.061523,1.02832-1.871094,1.822754-2.430664.794922-.560547,1.749023-.839844,2.862305-.839844,1.119141,0,2.078125.28125,2.875977.84375.797852.563477,1.406738,1.373047,1.827637,2.430664.42041,1.057617.630859,2.334961.630859,3.832031s-.210449,2.772461-.630859,3.827148c-.420898,1.053711-1.026855,1.861328-1.818359,2.420898-.791992.55957-1.750488.839844-2.875977.839844ZM7.98444,89.20166c.599609,0,1.108887-.195312,1.525879-.584961.417969-.389648.736328-.957031.956055-1.702148.219238-.745117.329102-1.646484.329102-2.704102,0-1.063477-.109863-1.969727-.329102-2.71875-.219727-.748047-.538086-1.318359-.956055-1.710938-.416992-.393555-.92627-.589844-1.525879-.589844-.90332,0-1.597168.4375-2.08252,1.313477-.48584.875-.728516,2.110352-.728516,3.706055,0,1.057617.10791,1.958984.324707,2.704102.216309.745117.534668,1.3125.955566,1.702148.42041.389648.930664.584961,1.530762.584961Z"/><path class="cls-6" d="M358.35944,77.289551v13.823242h-2.245117l-6.503906-9.416992h-.120117v9.416992h-2.504883v-13.823242h2.245117l6.50293,9.416016h.121094v-9.416016h2.504883Z"/><path class="cls-6" d="M364.779362,91.316895c-1.014648,0-1.892578-.222656-2.634766-.667969s-1.316406-1.070312-1.720703-1.874023c-.405273-.803711-.608398-1.737305-.608398-2.801758,0-1.070312.203125-2.008789.608398-2.81543.404297-.807617.978516-1.433594,1.720703-1.878906s1.620117-.667969,2.634766-.667969c1.013672,0,1.892578.222656,2.634766.667969s1.317383,1.071289,1.725586,1.878906c.408203.806641.612305,1.745117.612305,2.81543,0,1.064453-.204102,1.998047-.612305,2.801758s-.983398,1.428711-1.725586,1.874023-1.621094.667969-2.634766.667969ZM364.779362,89.350098c.5625,0,1.026367-.150391,1.391602-.450195.364258-.299805.638672-.706055.821289-1.219727.181641-.513672.273438-1.082031.273438-1.707031,0-.636719-.091797-1.211914-.273438-1.725586-.182617-.512695-.457031-.919922-.821289-1.219727-.365234-.300781-.829102-.450195-1.391602-.450195-.550781,0-1.011719.149414-1.382812.450195-.371094.299805-.647461.707031-.830078,1.219727-.182617.513672-.273438,1.088867-.273438,1.725586,0,.625.09082,1.193359.273438,1.707031s.458984.919922.830078,1.219727.832031.450195,1.382812.450195Z"/><path class="cls-6" d="M378.926823,91.29834c-.810547,0-1.538086-.208984-2.18457-.625977-.646484-.417969-1.155273-1.025391-1.526367-1.823242s-.556641-1.765625-.556641-2.90332c0-1.15625.19043-2.130859.571289-2.922852.379883-.791992.891602-1.391602,1.535156-1.799805.642578-.408203,1.363281-.612305,2.161133-.612305.612305,0,1.113281.102539,1.50293.305664.389648.205078.701172.450195.932617.738281.232422.287109.40918.554688.533203.802734h.102539v-5.167969h2.430664v13.823242h-2.384766v-1.641602h-.148438c-.129883.253906-.3125.520508-.546875.801758-.235352.282227-.547852.522461-.9375.723633s-.884766.301758-1.484375.301758ZM379.604558,89.294434c.519531,0,.959961-.140625,1.322266-.421875.361328-.282227.637695-.674805.830078-1.178711.191406-.503906.287109-1.089844.287109-1.757812,0-.673828-.09375-1.259766-.282227-1.757812-.189453-.498047-.463867-.882812-.826172-1.155273-.361328-.272461-.805664-.408203-1.331055-.408203-.538086,0-.990234.142578-1.354492.426758-.365234.285156-.638672.677734-.821289,1.177734-.182617.501953-.273438,1.074219-.273438,1.716797,0,.643555.092773,1.21875.27832,1.725586s.458984.90625.821289,1.196289c.361328.291016.811523.436523,1.349609.436523Z"/><path class="cls-6" d="M389.223698,91.32666c-.660156,0-1.253906-.119141-1.78125-.357422-.524414-.238281-.939453-.589844-1.242188-1.052734-.302734-.464844-.454102-1.036133-.454102-1.716797,0-.581055.107422-1.063477.324219-1.447266.216797-.382812.511719-.689453.886719-.917969.374023-.228516.795898-.404297,1.264648-.524414.470703-.121094.957031-.206055,1.457031-.254883.613281-.068359,1.107422-.126953,1.484375-.176758s.650391-.129883.822266-.241211c.169922-.111328.253906-.28418.253906-.519531v-.046875c0-.5-.148438-.890625-.445312-1.167969-.296875-.279297-.728516-.417969-1.298828-.417969-.599609,0-1.074219.129883-1.423828.389648s-.585938.56543-.708984.918945l-2.273438-.325195c.179688-.630859.476562-1.158203.890625-1.582031.414062-.422852.919922-.742188,1.517578-.955078.595703-.213867,1.255859-.320312,1.980469-.320312.494141,0,.988281.057617,1.484375.171875.494141.114258.949219.307617,1.363281.579102.414062.273438.746094.637695.992188,1.095703.248047.457031.371094,1.029297.371094,1.71582v6.939453h-2.347656v-1.428711h-.074219c-.148438.285156-.355469.551758-.625.802734-.269531.25-.603516.453125-1.001953.607422s-.871094.232422-1.416016.232422ZM389.846745,89.525879c.494141,0,.921875-.09668,1.279297-.291992.359375-.194336.636719-.454102.835938-.779297.197266-.324219.296875-.678711.296875-1.061523v-1.21582c-.080078.061523-.210938.119141-.390625.171875-.179688.051758-.382812.100586-.611328.143555s-.453125.080078-.673828.111328c-.21875.03125-.408203.055664-.570312.074219-.365234.049805-.691406.130859-.978516.246094-.287109.114258-.515625.270508-.681641.46875-.167969.197266-.25.454102-.25.769531,0,.451172.164062.791992.490234,1.020508.328125.229492.746094.342773,1.253906.342773Z"/><path class="cls-6" d="M401.666081,80.740723v1.892578h-5.946289v-1.892578h5.946289ZM397.175847,78.272949h2.44043v9.722656c0,.408203.088867.709961.268555.904297.179688.195312.463867.291992.853516.291992.105469,0,.222656-.008789.352539-.027344s.24707-.040039.352539-.064453l.416992,1.910156c-.259766.081055-.522461.140625-.788086.181641-.265625.040039-.532227.060547-.797852.060547-.964844,0-1.722656-.255859-2.273438-.765625-.549805-.510742-.825195-1.207031-.825195-2.091797v-10.12207Z"/><path class="cls-6" d="M405.998112,91.32666c-.661133,0-1.254883-.119141-1.78125-.357422-.525391-.238281-.939453-.589844-1.242188-1.052734-.303711-.464844-.455078-1.036133-.455078-1.716797,0-.581055.108398-1.063477.324219-1.447266.216797-.382812.511719-.689453.886719-.917969.374023-.228516.795898-.404297,1.265625-.524414.470703-.121094.956055-.206055,1.457031-.254883.612305-.068359,1.107422-.126953,1.484375-.176758s.650391-.129883.821289-.241211c.169922-.111328.254883-.28418.254883-.519531v-.046875c0-.5-.148438-.890625-.445312-1.167969-.296875-.279297-.729492-.417969-1.298828-.417969-.599609,0-1.075195.129883-1.423828.389648-.349609.259766-.585938.56543-.709961.918945l-2.272461-.325195c.178711-.630859.475586-1.158203.890625-1.582031.414062-.422852.918945-.742188,1.516602-.955078.59668-.213867,1.256836-.320312,1.980469-.320312.495117,0,.989258.057617,1.484375.171875s.949219.307617,1.364258.579102c.414062.273438.745117.637695.992188,1.095703.24707.457031.371094,1.029297.371094,1.71582v6.939453h-2.347656v-1.428711h-.074219c-.148438.285156-.356445.551758-.625977.802734-.268555.25-.602539.453125-1.001953.607422-.398438.154297-.870117.232422-1.415039.232422ZM406.620183,89.525879c.495117,0,.921875-.09668,1.280273-.291992.358398-.194336.636719-.454102.834961-.779297.198242-.324219.296875-.678711.296875-1.061523v-1.21582c-.080078.061523-.209961.119141-.389648.171875-.179688.051758-.383789.100586-.612305.143555s-.453125.080078-.672852.111328-.40918.055664-.570312.074219c-.365234.049805-.691406.130859-.978516.246094-.288086.114258-.515625.270508-.681641.46875-.167969.197266-.250977.454102-.250977.769531,0,.451172.164062.791992.491211,1.020508.328125.229492.746094.342773,1.25293.342773Z"/><path class="cls-6" d="M65.842839,12.092773V1.907227h1.845703v8.640625h4.491211v1.544922h-6.336914Z"/><path class="cls-6" d="M76.561589,12.243164c-.765625,0-1.425781-.160645-1.982422-.481934-.555664-.321289-.983398-.775879-1.28125-1.36377-.298828-.587891-.448242-1.280762-.448242-2.078125,0-.788574.148438-1.47998.444336-2.074707.296875-.594727.713867-1.058594,1.250977-1.391113.538086-.33252,1.171875-.499023,1.900391-.499023.469727,0,.915039.075195,1.336914.225586.420898.150391.794922.382812,1.121094.697266.325195.314453.582031.714355.768555,1.199707.1875.485352.280273,1.062988.280273,1.73291v.560547h-6.261719v-1.209961h5.366211l-.84082.355469c0-.433105-.06543-.810059-.198242-1.131348-.131836-.321289-.328125-.573242-.587891-.755371s-.583008-.273438-.970703-.273438c-.386719,0-.717773.091309-.991211.273438s-.480469.427246-.62207.734863c-.140625.307617-.211914.650391-.211914,1.028809v.84082c0,.464844.081055.862305.243164,1.192871.161133.330566.389648.582031.683594.755371s.636719.259766,1.02832.259766c.255859,0,.489258-.036621.701172-.109375s.393555-.183594.546875-.331543c.152344-.147949.269531-.331543.351562-.550293l1.681641.198242c-.109375.441895-.310547.828125-.604492,1.158691s-.669922.585449-1.12793.765625-.983398.27002-1.576172.27002Z"/><path class="cls-6" d="M84.245183,15.114258c-.970703,0-1.733398-.187988-2.290039-.563965-.555664-.375977-.913086-.830566-1.073242-1.36377l1.613281-.396484c.073242.150391.180664.299805.321289.447754.141602.147949.331055.270996.567383.369141.237305.098145.536133.146973.895508.146973.510742,0,.933594-.124023,1.268555-.372559s.501953-.652832.501953-1.213379v-1.442383h-.102539c-.085938.182129-.21875.370117-.396484.563965s-.411133.35791-.700195.492188c-.290039.134277-.655273.20166-1.097656.20166-.583008,0-1.113281-.13916-1.588867-.416992-.476562-.277832-.854492-.692871-1.134766-1.244141s-.420898-1.241699-.420898-2.071289c0-.838379.140625-1.547363.420898-2.125977s.65918-1.018555,1.137695-1.319336,1.011719-.451172,1.599609-.451172c.447266,0,.816406.075195,1.107422.225586.291992.150391.524414.331543.697266.543457.173828.211914.307617.40918.40332.591309h.095703v-1.264648h1.756836v7.765625c0,.651855-.154297,1.191895-.464844,1.620117-.30957.428223-.734375.748535-1.274414.960449s-1.154297.317871-1.842773.317871ZM84.258854,10.568359c.574219,0,1.017578-.206055,1.330078-.618652.311523-.412598.467773-.983398.467773-1.712402,0-.48291-.068359-.904785-.205078-1.264648s-.338867-.640137-.608398-.84082c-.268555-.200684-.59668-.300781-.984375-.300781-.400391,0-.735352.10498-1.004883.314453-.268555.209473-.470703.495605-.604492.85791-.134766.362305-.202148.773438-.202148,1.233887,0,.464844.068359.872559.205078,1.223633s.34082.623047.612305.816895c.270508.193848.602539.290527.994141.290527Z"/><path class="cls-6" d="M91.369206,12.25c-.488281,0-.925781-.087891-1.3125-.263184-.387695-.175293-.693359-.434082-.916016-.775879-.223633-.341797-.334961-.763184-.334961-1.264648,0-.428223.079102-.783691.239258-1.066406.15918-.282715.376953-.508301.652344-.676758.276367-.168457.586914-.297363.933594-.38623.345703-.088867.704102-.151367,1.073242-.187988.451172-.050293.81543-.093262,1.09375-.129883.277344-.036621.479492-.095703.604492-.177734.125977-.082031.188477-.209473.188477-.382812v-.03418c0-.369141-.109375-.65625-.328125-.861328s-.538086-.307617-.957031-.307617c-.442383,0-.791992.095703-1.049805.287109-.256836.191406-.431641.416992-.522461.676758l-1.674805-.239258c.131836-.464844.350586-.853516.65625-1.165527.304688-.312012.677734-.546875,1.117188-.704102.44043-.157227.926758-.23584,1.459961-.23584.364258,0,.728516.041992,1.09375.126465.364258.084473.699219.226562,1.004883.427246.304688.200684.548828.469238.731445.806641.181641.337402.273438.758789.273438,1.264648v5.113281h-1.729492v-1.052734h-.054688c-.109375.209473-.263672.406738-.461914.591309s-.444336.333984-.738281.447754-.641602.170898-1.041992.170898ZM91.827214,10.923828c.364258,0,.678711-.071777.943359-.215332.263672-.143555.46875-.334961.615234-.574219.145508-.239258.21875-.5.21875-.782715v-.895508c-.05957.04541-.155273.087891-.287109.126465-.132812.038574-.283203.074219-.451172.105957-.168945.031738-.333984.059082-.496094.082031-.161133.022949-.301758.041016-.419922.054688-.269531.036621-.509766.09668-.72168.181152s-.378906.199219-.501953.345215-.18457.334961-.18457.567383c0,.33252.120117.583496.362305.751953.241211.168457.548828.25293.922852.25293Z"/><path class="cls-6" d="M98.540104,1.907227v10.185547h-1.797852V1.907227h1.797852Z"/><path class="cls-6" d="M104.645573,1.907227v10.185547h-1.797852V1.907227h1.797852Z"/><path class="cls-6" d="M106.887761,3.376953c-.287109,0-.533203-.095703-.738281-.287109s-.307617-.421387-.307617-.69043c0-.273438.102539-.505859.307617-.697266s.451172-.287109.738281-.287109c.282227,0,.526367.095703.731445.287109s.307617.423828.307617.697266c0,.269043-.102539.499023-.307617.69043s-.449219.287109-.731445.287109ZM105.985417,12.092773v-7.642578h1.797852v7.642578h-1.797852Z"/><path class="cls-6" d="M109.124089,12.092773v-7.642578h1.71582v1.305664h.095703c.15918-.4375.423828-.780273.792969-1.028809s.806641-.372559,1.3125-.372559c.519531,0,.957031.125488,1.3125.375977s.603516.592285.745117,1.025391h.082031c.172852-.423828.459961-.763184.861328-1.018555s.879883-.382812,1.435547-.382812c.702148,0,1.274414.222168,1.719727.666504.443359.444336.666016,1.092773.666016,1.944824v5.126953h-1.804688v-4.853516c0-.469238-.126953-.814453-.378906-1.035645-.253906-.221191-.5625-.331543-.926758-.331543-.432617,0-.770508.135742-1.011719.406738s-.362305.618652-.362305,1.04248v4.771484h-1.777344v-4.921875c0-.396484-.116211-.711914-.348633-.946777s-.540039-.352051-.922852-.352051c-.259766,0-.49707.065918-.710938.198242s-.383789.316895-.509766.553711c-.125.236816-.1875.510254-.1875.820312v4.648438h-1.797852Z"/><path class="cls-6" d="M122.105534,3.376953c-.287109,0-.533203-.095703-.738281-.287109s-.307617-.421387-.307617-.69043c0-.273438.102539-.505859.307617-.697266s.451172-.287109.738281-.287109c.282227,0,.526367.095703.731445.287109s.307617.423828.307617.697266c0,.269043-.102539.499023-.307617.69043s-.449219.287109-.731445.287109ZM121.20319,12.092773v-7.642578h1.797852v7.642578h-1.797852Z"/><path class="cls-6" d="M128.148503,4.450195v1.394531h-4.381836v-1.394531h4.381836ZM124.839909,2.631836h1.797852v7.164062c0,.300781.066406.522949.198242.666504s.341797.215332.628906.215332c.077148,0,.164062-.006836.259766-.020508s.182617-.029785.259766-.047852l.307617,1.408203c-.191406.059082-.384766.103516-.581055.133301s-.391602.044434-.587891.044434c-.710938,0-1.269531-.187988-1.674805-.563965s-.608398-.889648-.608398-1.541504V2.631836Z"/><rect class="cls-8" x="363.696433" y="29.460743" width="32.55237" height="32.55237"/><rect class="cls-3" x="65.10474" y="29.460743" width="32.55237" height="32.55237" transform="translate(35.643997 127.117853) rotate(-90)"/><rect class="cls-11" x="97.65711" y="29.460743" width="32.55237" height="32.55237" transform="translate(68.196367 159.670222) rotate(-90)"/><rect class="cls-1" x="0" y="29.460743" width="32.55237" height="32.55237" transform="translate(-29.460743 62.013113) rotate(-90)"/><rect class="cls-10" x="32.55237" y="29.460743" width="32.55237" height="32.55237" transform="translate(3.091627 94.565483) rotate(-90)"/><rect class="cls-9" x="130.20948" y="29.460743" width="32.55237" height="32.55237" transform="translate(100.748737 192.222592) rotate(-90)"/><rect class="cls-4" x="162.76185" y="29.460743" width="32.55237" height="32.55237" transform="translate(133.301107 224.774962) rotate(-90)"/><rect class="cls-7" x="195.314219" y="29.460743" width="32.55237" height="32.55237" transform="translate(165.853477 257.327332) rotate(-90)"/><rect class="cls-2" x="227.866589" y="29.460743" width="32.55237" height="32.55237" transform="translate(198.405846 289.879702) rotate(-90)"/><rect class="cls-5" x="260.418959" y="29.460743" width="32.55237" height="32.55237" transform="translate(230.958216 322.432072) rotate(-90)"/><line class="cls-12" x1="65.10474" y1="25.960899" x2="65.10474" y2="66.302338"/></g></svg>