<?xml version="1.0" encoding="UTF-8"?>
<svg id="_레이어_2" data-name="레이어 2" xmlns="http://www.w3.org/2000/svg" viewBox="0 0 68.7461 145.7235">
  <defs>
    <style>
      .cls-1 {
        stroke-width: 0px;
      }
    </style>
  </defs>
  <g id="_레이어_1-2" data-name="레이어 1">
    <g>
      <rect class="cls-1" x="28.7542" y="10" width="11.9048" height="50"/>
      <rect class="cls-1" x="16.7542" width="11.9048" height="72"/>
      <rect class="cls-1" x="40.6589" y="20.3333" width="11.9048" height="30.9524"/>
      <rect class="cls-1" x="52.5637" y="29.0714" width="11.9048" height="14.2857"/>
    </g>
    <g>
      <path class="cls-1" d="m9.7998,112.9422h3.3818v32.7812h-3.3818v-9.7998h-3.2334v-6.5166h-3.1357v16.3164H0v-32.7812h3.4307v9.8008h3.2334v6.5166h3.1357v-16.3174Z"/>
      <path class="cls-1" d="m29.5957,122.743v3.2822h3.2344v9.8984h-9.8496v6.4189h6.4688v-3.2344h3.3809v3.3818h-3.2344v3.2334h-6.7617v-3.2334h-3.2344v-16.4648h3.2344v-3.2822h6.7617Zm-6.6152,9.7998h6.4688v-6.4189h-6.4688v6.4189Z"/>
      <path class="cls-1" d="m52.4297,122.743v6.6641h-3.2344v6.4189h3.2344v9.8975h-3.3809v-9.7998h-6.4688v9.7998h-3.3809v-9.8975h3.2344v-6.4189h-3.2344v-6.6641h3.3809v6.5166h6.4688v-6.5166h3.3809Z"/>
      <path class="cls-1" d="m58.7988,122.743h3.2832v-6.5176h3.3809v6.5176h3.2832v3.3809h-3.2832v19.5996h-3.3809v-19.5996h-3.2832v-3.3809Z"/>
    </g>
  </g>
</svg>