<?xml version="1.0" encoding="UTF-8"?>
<svg id="_레이어_2" data-name="레이어 2" xmlns="http://www.w3.org/2000/svg" viewBox="0 0 1100 168">
  <defs>
    <style>
      .cls-1, .cls-2 {
        stroke-width: 0px;
      }

      .cls-2 {
        fill: #fff;
      }
    </style>
  </defs>
  <g id="_레이어_1-2" data-name="레이어 1">
    <g>
      <rect class="cls-1" x="922" y="57" width="51" height="51"/>
      <rect class="cls-1" x="714" y="67" width="37" height="37"/>
      <rect class="cls-1" x="1028" width="37" height="37"/>
      <rect class="cls-1" x="417" y="131" width="37" height="37"/>
      <rect class="cls-1" x="1080" y="133" width="20" height="20"/>
      <rect class="cls-1" y="33" width="20" height="20"/>
      <rect class="cls-1" x="255" y="79" width="20" height="20"/>
      <rect class="cls-1" x="345" y="26" width="20" height="20"/>
      <rect class="cls-1" x="620" y="130" width="20" height="20"/>
      <g>
        <g>
          <rect class="cls-1" x="84.6752" y="105.3559" width="50.2265" height="50.2265"/>
          <rect class="cls-1" x="92.0615" y="100.4318" width="34.9616" height="8.8635"/>
          <rect class="cls-1" x="96.4933" y="96" width="25.6057" height="8.8635"/>
          <rect class="cls-1" x="96.4933" y="154.5976" width="25.6057" height="8.8635"/>
          <rect class="cls-1" x="126.0383" y="125.545" width="25.6057" height="8.8635" transform="translate(268.8179 -8.8643) rotate(90)"/>
          <rect class="cls-1" x="67.4407" y="125.545" width="25.6057" height="8.8635" transform="translate(210.2203 49.7333) rotate(90)"/>
          <rect class="cls-1" x="92.0615" y="151.1507" width="34.9616" height="8.8635"/>
          <rect class="cls-1" x="66.2096" y="126.2836" width="34.9616" height="8.8635" transform="translate(214.4058 47.025) rotate(90)"/>
          <rect class="cls-1" x="118.4058" y="126.2836" width="34.9616" height="8.8635" transform="translate(266.602 -5.1712) rotate(90)"/>
        </g>
        <g>
          <rect class="cls-2" x="97.9705" y="120.0967" width="11.3256" height="16.8057"/>
          <rect class="cls-2" x="99.9402" y="117.1739" width="7.3863" height="5.1148"/>
          <rect class="cls-2" x="99.9402" y="134.7103" width="7.3863" height="5.1148"/>
          <rect class="cls-2" x="104.0622" y="126.7761" width="10.9602" height="3.4469" transform="translate(238.0418 18.9572) rotate(90)"/>
          <rect class="cls-2" x="92.2442" y="126.7761" width="10.9602" height="3.4469" transform="translate(226.2238 30.7752) rotate(90)"/>
        </g>
        <g>
          <rect class="cls-2" x="117.1748" y="118.6512" width="11.3256" height="11.3256"/>
          <rect class="cls-2" x="119.1444" y="116.6815" width="7.3863" height="3.4469"/>
          <rect class="cls-2" x="119.1444" y="128.4995" width="7.3863" height="3.4469"/>
          <rect class="cls-2" x="125.0534" y="122.5905" width="7.3863" height="3.4469" transform="translate(253.0605 -4.4326) rotate(90)"/>
          <rect class="cls-2" x="113.2354" y="122.5905" width="7.3863" height="3.4469" transform="translate(241.2425 7.3854) rotate(90)"/>
        </g>
        <g>
          <rect class="cls-1" x="103.4347" y="122.5905" width="8.7682" height="11.3256"/>
          <rect class="cls-1" x="104.9597" y="120.6208" width="5.7184" height="3.4469"/>
          <rect class="cls-1" x="104.9597" y="132.4389" width="5.7184" height="3.4469"/>
          <rect class="cls-1" x="108.7004" y="126.919" width="7.3863" height="2.6686" transform="translate(240.6469 15.8598) rotate(90)"/>
          <rect class="cls-1" x="99.551" y="126.919" width="7.3863" height="2.6686" transform="translate(231.4974 25.0092) rotate(90)"/>
        </g>
        <g>
          <rect class="cls-1" x="123.6238" y="119.1436" width="8.7682" height="11.3256"/>
          <rect class="cls-1" x="125.1487" y="117.1739" width="5.7184" height="3.4469"/>
          <rect class="cls-1" x="125.1487" y="128.9919" width="5.7184" height="3.4469"/>
          <rect class="cls-1" x="128.8895" y="123.4721" width="7.3863" height="2.6686" transform="translate(257.3891 -7.7763) rotate(90)"/>
          <rect class="cls-1" x="119.7401" y="123.4721" width="7.3863" height="2.6686" transform="translate(248.2396 1.3732) rotate(90)"/>
        </g>
      </g>
      <g>
        <g>
          <rect class="cls-1" x="501.2081" y="70.6406" width="24.9127" height="24.9127"/>
          <rect class="cls-1" x="504.8717" y="68.1982" width="17.3412" height="4.3964"/>
          <rect class="cls-1" x="507.0699" y="66" width="12.7006" height="4.3964"/>
          <rect class="cls-1" x="507.0699" y="95.0648" width="12.7006" height="4.3964"/>
          <rect class="cls-1" x="521.7244" y="80.6545" width="12.7006" height="4.3964" transform="translate(610.9274 -445.222) rotate(90)"/>
          <rect class="cls-1" x="492.6596" y="80.6545" width="12.7006" height="4.3964" transform="translate(581.8626 -416.1572) rotate(90)"/>
          <rect class="cls-1" x="504.8717" y="93.3551" width="17.3412" height="4.3964"/>
          <rect class="cls-1" x="492.049" y="81.0209" width="17.3412" height="4.3964" transform="translate(583.9387 -417.5006) rotate(90)"/>
          <rect class="cls-1" x="517.9387" y="81.0209" width="17.3412" height="4.3964" transform="translate(609.8283 -443.3902) rotate(90)"/>
        </g>
        <g>
          <rect class="cls-2" x="507.8026" y="77.9521" width="5.6176" height="8.3357"/>
          <rect class="cls-2" x="508.7796" y="76.5024" width="3.6636" height="2.537"/>
          <rect class="cls-2" x="508.7796" y="85.2006" width="3.6636" height="2.537"/>
          <rect class="cls-2" x="510.8241" y="81.2651" width="5.4364" height="1.7097" transform="translate(595.6623 -431.4223) rotate(90)"/>
          <rect class="cls-2" x="504.9623" y="81.2651" width="5.4364" height="1.7097" transform="translate(589.8005 -425.5605) rotate(90)"/>
        </g>
        <g>
          <rect class="cls-2" x="517.3281" y="77.2351" width="5.6176" height="5.6176"/>
          <rect class="cls-2" x="518.305" y="76.2582" width="3.6636" height="1.7097"/>
          <rect class="cls-2" x="518.305" y="82.12" width="3.6636" height="1.7097"/>
          <rect class="cls-2" x="521.2359" y="79.1891" width="3.6636" height="1.7097" transform="translate(603.1116 -443.0238) rotate(90)"/>
          <rect class="cls-2" x="515.3741" y="79.1891" width="3.6636" height="1.7097" transform="translate(597.2498 -437.162) rotate(90)"/>
        </g>
        <g>
          <rect class="cls-1" x="510.5129" y="79.1891" width="4.3491" height="5.6176"/>
          <rect class="cls-1" x="511.2693" y="78.2121" width="2.8364" height="1.7097"/>
          <rect class="cls-1" x="511.2693" y="84.0739" width="2.8364" height="1.7097"/>
          <rect class="cls-1" x="513.1247" y="81.336" width="3.6636" height="1.3236" transform="translate(596.9544 -432.9587) rotate(90)"/>
          <rect class="cls-1" x="508.5866" y="81.336" width="3.6636" height="1.3236" transform="translate(592.4162 -428.4205) rotate(90)"/>
        </g>
        <g>
          <rect class="cls-1" x="520.5268" y="77.4794" width="4.3491" height="5.6176"/>
          <rect class="cls-1" x="521.2832" y="76.5024" width="2.8364" height="1.7097"/>
          <rect class="cls-1" x="521.2832" y="82.3642" width="2.8364" height="1.7097"/>
          <rect class="cls-1" x="523.1386" y="79.6263" width="3.6636" height="1.3236" transform="translate(605.2586 -444.6823) rotate(90)"/>
          <rect class="cls-1" x="518.6005" y="79.6263" width="3.6636" height="1.3236" transform="translate(600.7204 -440.1441) rotate(90)"/>
        </g>
      </g>
      <g>
        <g>
          <rect class="cls-1" x="848.5664" y="23.2917" width="26.9431" height="26.9431"/>
          <rect class="cls-1" x="852.5286" y="20.6502" width="18.7545" height="4.7547"/>
          <rect class="cls-1" x="854.906" y="18.2729" width="13.7357" height="4.7547"/>
          <rect class="cls-1" x="854.906" y="49.7065" width="13.7357" height="4.7547"/>
          <rect class="cls-1" x="870.7548" y="34.1217" width="13.7357" height="4.7547" transform="translate(914.1217 -841.1236) rotate(90)"/>
          <rect class="cls-1" x="839.3212" y="34.1217" width="13.7357" height="4.7547" transform="translate(882.6881 -809.69) rotate(90)"/>
          <rect class="cls-1" x="852.5286" y="47.8574" width="18.7545" height="4.7547"/>
          <rect class="cls-1" x="838.6609" y="34.518" width="18.7545" height="4.7547" transform="translate(884.9334 -811.1428) rotate(90)"/>
          <rect class="cls-1" x="866.6605" y="34.518" width="18.7545" height="4.7547" transform="translate(912.9331 -839.1425) rotate(90)"/>
        </g>
        <g>
          <rect class="cls-2" x="855.6984" y="31.1991" width="6.0754" height="9.0151"/>
          <rect class="cls-2" x="856.755" y="29.6312" width="3.9622" height="2.7437"/>
          <rect class="cls-2" x="856.755" y="39.0383" width="3.9622" height="2.7437"/>
          <rect class="cls-2" x="858.9662" y="34.7821" width="5.8794" height="1.849" transform="translate(897.6125 -826.1992) rotate(90)"/>
          <rect class="cls-2" x="852.6266" y="34.7821" width="5.8794" height="1.849" transform="translate(891.273 -819.8597) rotate(90)"/>
        </g>
        <g>
          <rect class="cls-2" x="866.0002" y="30.4237" width="6.0754" height="6.0754"/>
          <rect class="cls-2" x="867.0568" y="29.3671" width="3.9622" height="1.849"/>
          <rect class="cls-2" x="867.0568" y="35.7066" width="3.9622" height="1.849"/>
          <rect class="cls-2" x="870.2265" y="32.5369" width="3.9622" height="1.849" transform="translate(905.669 -838.7463) rotate(90)"/>
          <rect class="cls-2" x="863.887" y="32.5369" width="3.9622" height="1.849" transform="translate(899.3295 -832.4067) rotate(90)"/>
        </g>
        <g>
          <rect class="cls-1" x="858.6296" y="32.5369" width="4.7035" height="6.0754"/>
          <rect class="cls-1" x="859.4476" y="31.4803" width="3.0675" height="1.849"/>
          <rect class="cls-1" x="859.4476" y="37.8198" width="3.0675" height="1.849"/>
          <rect class="cls-1" x="861.4543" y="34.8588" width="3.9622" height="1.4315" transform="translate(899.0099 -827.8608) rotate(90)"/>
          <rect class="cls-1" x="856.5462" y="34.8588" width="3.9622" height="1.4315" transform="translate(894.1019 -822.9528) rotate(90)"/>
        </g>
        <g>
          <rect class="cls-1" x="869.4596" y="30.6878" width="4.7035" height="6.0754"/>
          <rect class="cls-1" x="870.2777" y="29.6312" width="3.0675" height="1.849"/>
          <rect class="cls-1" x="870.2777" y="35.9708" width="3.0675" height="1.849"/>
          <rect class="cls-1" x="872.2843" y="33.0098" width="3.9622" height="1.4315" transform="translate(907.991 -840.5399) rotate(90)"/>
          <rect class="cls-1" x="867.3763" y="33.0098" width="3.9622" height="1.4315" transform="translate(903.0829 -835.6319) rotate(90)"/>
        </g>
      </g>
    </g>
  </g>
</svg>